<svg width="188" height="27" viewBox="0 0 188 27" fill="none" xmlns="http://www.w3.org/2000/svg">
<path d="M13.28 26.374C10.628 26.374 8.35 25.864 6.446 24.844C4.542 23.824 3.08 22.3847 2.06 20.526C1.06267 18.6673 0.564 16.4913 0.564 13.998C0.564 11.5047 1.06267 9.34 2.06 7.504C3.08 5.64533 4.542 4.206 6.446 3.186C8.35 2.166 10.628 1.656 13.28 1.656C14.8667 1.656 16.3967 1.894 17.87 2.37C19.3433 2.846 20.5333 3.492 21.44 4.308L19.57 9.238C18.5727 8.51267 17.5753 7.98 16.578 7.64C15.5807 7.27733 14.5607 7.096 13.518 7.096C11.41 7.096 9.82333 7.69667 8.758 8.898C7.69267 10.0767 7.16 11.7767 7.16 13.998C7.16 16.242 7.69267 17.9647 8.758 19.166C9.82333 20.3447 11.41 20.934 13.518 20.934C14.5607 20.934 15.5807 20.764 16.578 20.424C17.5753 20.0613 18.5727 19.5173 19.57 18.792L21.44 23.722C20.5333 24.5153 19.3433 25.1613 17.87 25.66C16.3967 26.136 14.8667 26.374 13.28 26.374ZM31.3805 26.374C29.5218 26.374 27.9012 26.0227 26.5185 25.32C25.1358 24.6173 24.0592 23.6087 23.2885 22.294C22.5178 20.9793 22.1325 19.4267 22.1325 17.636C22.1325 15.8227 22.5178 14.27 23.2885 12.978C24.0592 11.6633 25.1358 10.6547 26.5185 9.952C27.9012 9.24933 29.5218 8.898 31.3805 8.898C33.2392 8.898 34.8598 9.24933 36.2425 9.952C37.6252 10.6547 38.6905 11.6633 39.4385 12.978C40.2092 14.27 40.5945 15.8227 40.5945 17.636C40.5945 19.4267 40.2092 20.9793 39.4385 22.294C38.6905 23.6087 37.6252 24.6173 36.2425 25.32C34.8598 26.0227 33.2392 26.374 31.3805 26.374ZM31.3805 21.92C32.2872 21.92 33.0352 21.58 33.6245 20.9C34.2138 20.22 34.5085 19.132 34.5085 17.636C34.5085 16.1173 34.2138 15.0293 33.6245 14.372C33.0352 13.692 32.2872 13.352 31.3805 13.352C30.4512 13.352 29.6918 13.692 29.1025 14.372C28.5132 15.0293 28.2185 16.1173 28.2185 17.636C28.2185 19.132 28.5132 20.22 29.1025 20.9C29.6918 21.58 30.4512 21.92 31.3805 21.92ZM43.3676 26V9.272H49.2496V12.196H48.8756C49.4196 11.1307 50.1903 10.3147 51.1876 9.748C52.2076 9.18133 53.3636 8.898 54.6556 8.898C55.9929 8.898 57.0923 9.15867 57.9536 9.68C58.8149 10.1787 59.4609 10.972 59.8916 12.06C60.3223 13.1253 60.5376 14.474 60.5376 16.106V26H54.4856V16.344C54.4856 15.664 54.4063 15.12 54.2476 14.712C54.0889 14.2813 53.8509 13.9753 53.5336 13.794C53.2389 13.6127 52.8649 13.522 52.4116 13.522C51.7996 13.522 51.2669 13.658 50.8136 13.93C50.3603 14.1793 50.0089 14.542 49.7596 15.018C49.5329 15.494 49.4196 16.0607 49.4196 16.718V26H43.3676ZM64.3948 26V2.03H81.1228V6.858H70.6508V11.686H80.3748V16.48H70.6508V26H64.3948ZM83.5062 6.382V0.907999H89.8642V6.382H83.5062ZM83.6762 26V9.272H89.7282V26H83.6762ZM102.555 26.374C101.308 26.374 100.084 26.272 98.8827 26.068C97.6814 25.864 96.5707 25.5693 95.5507 25.184C94.5307 24.7987 93.6467 24.3453 92.8987 23.824L94.6327 18.962C95.3354 19.4153 96.1174 19.812 96.9787 20.152C97.84 20.492 98.7467 20.764 99.6987 20.968C100.651 21.1493 101.603 21.24 102.555 21.24C104.051 21.24 105.093 21.0473 105.683 20.662C106.295 20.254 106.601 19.7553 106.601 19.166C106.601 18.8033 106.51 18.4973 106.329 18.248C106.147 17.9987 105.841 17.7833 105.411 17.602C105.003 17.398 104.447 17.228 103.745 17.092L99.7667 16.242C97.5907 15.7887 95.97 14.9953 94.9047 13.862C93.8394 12.7287 93.3067 11.2667 93.3067 9.476C93.3067 7.88933 93.726 6.518 94.5647 5.362C95.426 4.18333 96.616 3.27667 98.1347 2.642C99.676 1.98467 101.444 1.656 103.439 1.656C104.549 1.656 105.615 1.758 106.635 1.962C107.677 2.166 108.641 2.472 109.525 2.88C110.409 3.26533 111.157 3.71867 111.769 4.24L110.035 8.796C109.173 8.16133 108.165 7.674 107.009 7.334C105.875 6.97133 104.663 6.79 103.371 6.79C102.532 6.79 101.818 6.892 101.229 7.096C100.639 7.27733 100.186 7.54933 99.8687 7.912C99.574 8.27467 99.4267 8.694 99.4267 9.17C99.4267 9.646 99.6194 10.054 100.005 10.394C100.413 10.7113 101.149 10.9833 102.215 11.21L106.159 12.06C108.357 12.536 110.001 13.318 111.089 14.406C112.177 15.494 112.721 16.9107 112.721 18.656C112.721 20.1973 112.301 21.5573 111.463 22.736C110.624 23.892 109.445 24.7873 107.927 25.422C106.408 26.0567 104.617 26.374 102.555 26.374ZM124.497 26.374C122.457 26.374 120.689 26.0227 119.193 25.32C117.72 24.5947 116.587 23.5747 115.793 22.26C115 20.9453 114.603 19.3927 114.603 17.602C114.603 15.8793 114.977 14.372 115.725 13.08C116.496 11.7653 117.539 10.7453 118.853 10.02C120.191 9.272 121.709 8.898 123.409 8.898C125.109 8.898 126.571 9.24933 127.795 9.952C129.019 10.6547 129.96 11.6633 130.617 12.978C131.297 14.27 131.637 15.7887 131.637 17.534V18.86H119.669V16.004H127.217L126.673 16.446C126.673 15.222 126.413 14.3153 125.891 13.726C125.37 13.114 124.633 12.808 123.681 12.808C122.979 12.808 122.367 12.978 121.845 13.318C121.347 13.6353 120.961 14.1113 120.689 14.746C120.417 15.3807 120.281 16.174 120.281 17.126V17.432C120.281 18.4973 120.429 19.3587 120.723 20.016C121.041 20.6733 121.528 21.1607 122.185 21.478C122.843 21.7727 123.67 21.92 124.667 21.92C125.529 21.92 126.424 21.7953 127.353 21.546C128.305 21.274 129.144 20.8887 129.869 20.39L131.365 24.368C130.504 24.98 129.45 25.4673 128.203 25.83C126.957 26.1927 125.721 26.374 124.497 26.374ZM134.245 26V9.272H140.127V12.196H139.753C140.297 11.1307 141.067 10.3147 142.065 9.748C143.085 9.18133 144.241 8.898 145.533 8.898C146.87 8.898 147.969 9.15867 148.831 9.68C149.692 10.1787 150.338 10.972 150.769 12.06C151.199 13.1253 151.415 14.474 151.415 16.106V26H145.363V16.344C145.363 15.664 145.283 15.12 145.125 14.712C144.966 14.2813 144.728 13.9753 144.411 13.794C144.116 13.6127 143.742 13.522 143.289 13.522C142.677 13.522 142.144 13.658 141.691 13.93C141.237 14.1793 140.886 14.542 140.637 15.018C140.41 15.494 140.297 16.0607 140.297 16.718V26H134.245ZM161.528 26.374C160.508 26.374 159.522 26.306 158.57 26.17C157.64 26.034 156.79 25.83 156.02 25.558C155.249 25.286 154.558 24.9573 153.946 24.572L155.34 20.662C155.906 20.9793 156.53 21.2627 157.21 21.512C157.912 21.7613 158.638 21.954 159.386 22.09C160.134 22.226 160.859 22.294 161.562 22.294C162.4 22.294 163.001 22.1807 163.364 21.954C163.726 21.7047 163.908 21.3873 163.908 21.002C163.908 20.662 163.783 20.4013 163.534 20.22C163.307 20.0387 162.978 19.914 162.548 19.846L158.774 19.234C157.368 18.9847 156.28 18.4747 155.51 17.704C154.739 16.9107 154.354 15.8793 154.354 14.61C154.354 13.4313 154.682 12.4227 155.34 11.584C156.02 10.7227 156.938 10.0653 158.094 9.612C159.272 9.136 160.621 8.898 162.14 8.898C162.956 8.898 163.76 8.966 164.554 9.102C165.347 9.21533 166.106 9.408 166.832 9.68C167.557 9.92933 168.214 10.2693 168.804 10.7L167.308 14.542C166.877 14.2247 166.367 13.9527 165.778 13.726C165.188 13.4993 164.576 13.318 163.942 13.182C163.33 13.0233 162.763 12.944 162.242 12.944C161.312 12.944 160.655 13.0687 160.27 13.318C159.884 13.5673 159.692 13.8847 159.692 14.27C159.692 14.5647 159.794 14.814 159.998 15.018C160.202 15.1993 160.519 15.324 160.95 15.392L164.724 16.038C166.174 16.2647 167.285 16.7633 168.056 17.534C168.849 18.282 169.246 19.302 169.246 20.594C169.246 21.818 168.928 22.8607 168.294 23.722C167.659 24.5833 166.764 25.2407 165.608 25.694C164.452 26.1473 163.092 26.374 161.528 26.374ZM180.843 26.374C178.803 26.374 177.035 26.0227 175.539 25.32C174.066 24.5947 172.932 23.5747 172.139 22.26C171.346 20.9453 170.949 19.3927 170.949 17.602C170.949 15.8793 171.323 14.372 172.071 13.08C172.842 11.7653 173.884 10.7453 175.199 10.02C176.536 9.272 178.055 8.898 179.755 8.898C181.455 8.898 182.917 9.24933 184.141 9.952C185.365 10.6547 186.306 11.6633 186.963 12.978C187.643 14.27 187.983 15.7887 187.983 17.534V18.86H176.015V16.004H183.563L183.019 16.446C183.019 15.222 182.758 14.3153 182.237 13.726C181.716 13.114 180.979 12.808 180.027 12.808C179.324 12.808 178.712 12.978 178.191 13.318C177.692 13.6353 177.307 14.1113 177.035 14.746C176.763 15.3807 176.627 16.174 176.627 17.126V17.432C176.627 18.4973 176.774 19.3587 177.069 20.016C177.386 20.6733 177.874 21.1607 178.531 21.478C179.188 21.7727 180.016 21.92 181.013 21.92C181.874 21.92 182.77 21.7953 183.699 21.546C184.651 21.274 185.49 20.8887 186.215 20.39L187.711 24.368C186.85 24.98 185.796 25.4673 184.549 25.83C183.302 26.1927 182.067 26.374 180.843 26.374Z" fill="white"/>
</svg>
