<svg width="274" height="26" viewBox="0 0 274 26" fill="none" xmlns="http://www.w3.org/2000/svg">
<path d="M9.82079 0.289999C10.6141 0.289999 11.3958 0.359999 12.1658 0.499998C12.9591 0.639999 13.5891 0.826666 14.0558 1.06C14.4758 1.27 14.7558 1.515 14.8958 1.795C15.0358 2.075 15.1058 2.44833 15.1058 2.915V5.505C14.4058 5.45833 13.7058 5.42333 13.0058 5.4C12.3291 5.35333 11.5825 5.33 10.7658 5.33C9.97246 5.33 9.31913 5.44667 8.8058 5.68C8.3158 5.89 7.91913 6.275 7.61579 6.835C7.3358 7.37167 7.13746 8.11833 7.02079 9.075C6.92746 10.0317 6.8808 11.245 6.8808 12.715C6.8808 14.2317 6.93913 15.48 7.05579 16.46C7.17246 17.44 7.3708 18.2217 7.6508 18.805C7.9308 19.3883 8.29246 19.7967 8.7358 20.03C9.20246 20.2633 9.76246 20.38 10.4158 20.38C11.1858 20.38 11.8858 20.3567 12.5158 20.31C13.1691 20.2633 13.6941 20.24 14.0908 20.24C14.9308 20.24 15.3508 20.66 15.3508 21.5V24.37C14.5575 24.6967 13.6825 24.9533 12.7258 25.14C11.7925 25.35 10.6141 25.455 9.1908 25.455C7.88413 25.455 6.7058 25.2683 5.6558 24.895C4.6058 24.4983 3.70746 23.8217 2.96079 22.865C2.21413 21.9083 1.64246 20.625 1.24579 19.015C0.849128 17.405 0.650795 15.3633 0.650795 12.89C0.650795 10.51 0.814128 8.515 1.14079 6.905C1.49079 5.295 2.02746 4 2.75079 3.02C3.49746 2.04 4.45413 1.34 5.6208 0.919999C6.78746 0.499999 8.18746 0.289999 9.82079 0.289999ZM28.5083 6.73C29.4183 6.73 29.8733 7.13833 29.8733 7.955V11.98C29.71 11.9567 29.5583 11.945 29.4183 11.945C29.2783 11.945 29.115 11.945 28.9283 11.945C28.1817 11.945 27.435 12.0033 26.6883 12.12C25.965 12.2367 25.37 12.4933 24.9033 12.89V25H20.3533C19.49 25 19.0583 24.5917 19.0583 23.775V6.835H22.4183C22.9317 6.835 23.2933 6.92833 23.5033 7.115C23.7133 7.27833 23.9117 7.65167 24.0983 8.235L24.3783 9.18C24.8683 8.41 25.475 7.815 26.1983 7.395C26.9217 6.95167 27.6917 6.73 28.5083 6.73ZM46.8174 24.3C46.2108 24.5567 45.3708 24.8133 44.2974 25.07C43.2474 25.3267 41.9408 25.455 40.3774 25.455C39.0008 25.455 37.8108 25.28 36.8074 24.93C35.8041 24.58 34.9641 24.02 34.2874 23.25C33.6341 22.48 33.1441 21.5 32.8174 20.31C32.5141 19.0967 32.3624 17.6383 32.3624 15.935C32.3624 12.5517 32.9924 10.125 34.2524 8.655C35.5358 7.16167 37.5308 6.415 40.2374 6.415C41.6608 6.415 42.8158 6.61333 43.7024 7.01C44.6124 7.40667 45.3241 7.955 45.8374 8.655C46.3508 9.33167 46.7008 10.1483 46.8874 11.105C47.0741 12.0383 47.1674 13.0533 47.1674 14.15C47.1674 14.3833 47.1558 14.675 47.1324 15.025C47.1091 15.375 47.0624 15.725 46.9924 16.075C46.9458 16.425 46.8874 16.7633 46.8174 17.09C46.7474 17.3933 46.6774 17.6267 46.6074 17.79H37.7874C37.7874 18.98 38.0674 19.8083 38.6274 20.275C39.2108 20.7417 40.1208 20.975 41.3574 20.975C42.5008 20.975 43.3641 20.9633 43.9474 20.94C44.5541 20.8933 45.0791 20.87 45.5224 20.87C45.9891 20.87 46.3158 20.9867 46.5024 21.22C46.7124 21.43 46.8174 21.7333 46.8174 22.13V24.3ZM42.1974 14.395C42.1974 12.9483 42.0458 11.9567 41.7424 11.42C41.4624 10.86 40.9374 10.58 40.1674 10.58C39.2341 10.58 38.6041 10.8717 38.2774 11.455C37.9741 12.0383 37.8108 13.0183 37.7874 14.395H42.1974ZM55.3982 25.21C53.7182 25.21 52.4232 24.7083 51.5132 23.705C50.6265 22.7017 50.1832 21.2783 50.1832 19.435C50.1832 18.175 50.3815 17.1717 50.7782 16.425C51.1982 15.655 51.7465 15.0833 52.4232 14.71C53.0999 14.3133 53.8699 14.0567 54.7332 13.94C55.5965 13.8233 56.4949 13.765 57.4282 13.765H59.5632V12.715C59.5632 11.9683 59.3065 11.5133 58.7932 11.35C58.2799 11.1633 57.4865 11.07 56.4132 11.07C55.4565 11.07 54.5932 11.0933 53.8232 11.14C53.0765 11.1867 52.5982 11.21 52.3882 11.21C51.9449 11.21 51.6299 11.0933 51.4432 10.86C51.2565 10.6267 51.1632 10.3583 51.1632 10.055V7.605C51.8165 7.325 52.6915 7.05667 53.7882 6.8C54.8849 6.54333 56.1449 6.415 57.5682 6.415C60.2982 6.415 62.2582 6.98667 63.4482 8.13C64.6382 9.27333 65.2332 10.9067 65.2332 13.03V25H61.8732C61.6165 25 61.3949 24.9883 61.2082 24.965C61.0449 24.9183 60.9049 24.8483 60.7882 24.755C60.6715 24.6383 60.5665 24.4867 60.4732 24.3C60.3799 24.1133 60.2865 23.88 60.1932 23.6L59.9832 23.04C59.5165 23.5533 58.9099 24.0433 58.1632 24.51C57.4165 24.9767 56.4949 25.21 55.3982 25.21ZM59.5282 17.16H57.2882C56.5182 17.16 55.9699 17.335 55.6432 17.685C55.3399 18.0117 55.1882 18.4783 55.1882 19.085C55.1882 19.8083 55.3632 20.31 55.7132 20.59C56.0632 20.8467 56.5649 20.975 57.2182 20.975C58.1515 20.975 58.9215 20.7417 59.5282 20.275V17.16ZM80.2684 24.79C79.5684 25 78.9267 25.1517 78.3434 25.245C77.7834 25.3383 77.1651 25.385 76.4884 25.385C75.5551 25.385 74.7151 25.2917 73.9684 25.105C73.2451 24.9183 72.6151 24.5917 72.0784 24.125C71.5651 23.635 71.1684 22.9933 70.8884 22.2C70.6084 21.3833 70.4684 20.3567 70.4684 19.12V11.35H69.7684C68.9051 11.35 68.4734 10.9417 68.4734 10.125V6.835H70.6784L70.9584 2.425H75.0184C75.8817 2.425 76.3134 2.83333 76.3134 3.65V6.835H78.9734C79.8367 6.835 80.2684 7.24333 80.2684 8.06V11.35H76.3134V19.015C76.3134 20.2517 76.8617 20.87 77.9584 20.87H78.9734C79.8367 20.87 80.2684 21.2783 80.2684 22.095V24.79ZM97.4868 24.3C96.8801 24.5567 96.0401 24.8133 94.9668 25.07C93.9168 25.3267 92.6101 25.455 91.0468 25.455C89.6701 25.455 88.4801 25.28 87.4768 24.93C86.4734 24.58 85.6334 24.02 84.9568 23.25C84.3034 22.48 83.8134 21.5 83.4868 20.31C83.1834 19.0967 83.0318 17.6383 83.0318 15.935C83.0318 12.5517 83.6618 10.125 84.9218 8.655C86.2051 7.16167 88.2001 6.415 90.9068 6.415C92.3301 6.415 93.4851 6.61333 94.3718 7.01C95.2818 7.40667 95.9934 7.955 96.5068 8.655C97.0201 9.33167 97.3701 10.1483 97.5568 11.105C97.7434 12.0383 97.8368 13.0533 97.8368 14.15C97.8368 14.3833 97.8251 14.675 97.8018 15.025C97.7784 15.375 97.7318 15.725 97.6618 16.075C97.6151 16.425 97.5568 16.7633 97.4868 17.09C97.4168 17.3933 97.3468 17.6267 97.2768 17.79H88.4568C88.4568 18.98 88.7368 19.8083 89.2968 20.275C89.8801 20.7417 90.7901 20.975 92.0268 20.975C93.1701 20.975 94.0334 20.9633 94.6168 20.94C95.2234 20.8933 95.7484 20.87 96.1918 20.87C96.6584 20.87 96.9851 20.9867 97.1718 21.22C97.3818 21.43 97.4868 21.7333 97.4868 22.13V24.3ZM92.8668 14.395C92.8668 12.9483 92.7151 11.9567 92.4118 11.42C92.1318 10.86 91.6068 10.58 90.8368 10.58C89.9034 10.58 89.2734 10.8717 88.9468 11.455C88.6434 12.0383 88.4801 13.0183 88.4568 14.395H92.8668ZM113.809 25.21C112.129 25.21 110.834 24.7083 109.924 23.705C109.037 22.7017 108.594 21.2783 108.594 19.435C108.594 18.175 108.792 17.1717 109.189 16.425C109.609 15.655 110.157 15.0833 110.834 14.71C111.51 14.3133 112.28 14.0567 113.144 13.94C114.007 13.8233 114.905 13.765 115.839 13.765H117.974V12.715C117.974 11.9683 117.717 11.5133 117.204 11.35C116.69 11.1633 115.897 11.07 114.824 11.07C113.867 11.07 113.004 11.0933 112.234 11.14C111.487 11.1867 111.009 11.21 110.799 11.21C110.355 11.21 110.04 11.0933 109.854 10.86C109.667 10.6267 109.574 10.3583 109.574 10.055V7.605C110.227 7.325 111.102 7.05667 112.199 6.8C113.295 6.54333 114.555 6.415 115.979 6.415C118.709 6.415 120.669 6.98667 121.859 8.13C123.049 9.27333 123.644 10.9067 123.644 13.03V25H120.284C120.027 25 119.805 24.9883 119.619 24.965C119.455 24.9183 119.315 24.8483 119.199 24.755C119.082 24.6383 118.977 24.4867 118.884 24.3C118.79 24.1133 118.697 23.88 118.604 23.6L118.394 23.04C117.927 23.5533 117.32 24.0433 116.574 24.51C115.827 24.9767 114.905 25.21 113.809 25.21ZM117.939 17.16H115.699C114.929 17.16 114.38 17.335 114.054 17.685C113.75 18.0117 113.599 18.4783 113.599 19.085C113.599 19.8083 113.774 20.31 114.124 20.59C114.474 20.8467 114.975 20.975 115.629 20.975C116.562 20.975 117.332 20.7417 117.939 20.275V17.16ZM133.744 25H129.194C128.33 25 127.899 24.5917 127.899 23.775V6.835H131.259C131.795 6.835 132.157 6.92833 132.344 7.115C132.554 7.27833 132.752 7.65167 132.939 8.235L133.149 8.865C133.965 7.97833 134.759 7.34833 135.529 6.975C136.322 6.60167 137.244 6.415 138.294 6.415C141.607 6.415 143.264 8.46833 143.264 12.575V25H138.714C137.85 25 137.419 24.5917 137.419 23.775V13.17C137.419 12.5633 137.302 12.12 137.069 11.84C136.835 11.5367 136.404 11.385 135.774 11.385C135.424 11.385 135.062 11.4433 134.689 11.56C134.315 11.6767 134 11.8517 133.744 12.085V25ZM159.624 25.21C157.944 25.21 156.649 24.7083 155.739 23.705C154.853 22.7017 154.409 21.2783 154.409 19.435C154.409 18.175 154.608 17.1717 155.004 16.425C155.424 15.655 155.973 15.0833 156.649 14.71C157.326 14.3133 158.096 14.0567 158.959 13.94C159.823 13.8233 160.721 13.765 161.654 13.765H163.789V12.715C163.789 11.9683 163.533 11.5133 163.019 11.35C162.506 11.1633 161.713 11.07 160.639 11.07C159.683 11.07 158.819 11.0933 158.049 11.14C157.303 11.1867 156.824 11.21 156.614 11.21C156.171 11.21 155.856 11.0933 155.669 10.86C155.483 10.6267 155.389 10.3583 155.389 10.055V7.605C156.043 7.325 156.918 7.05667 158.014 6.8C159.111 6.54333 160.371 6.415 161.794 6.415C164.524 6.415 166.484 6.98667 167.674 8.13C168.864 9.27333 169.459 10.9067 169.459 13.03V25H166.099C165.843 25 165.621 24.9883 165.434 24.965C165.271 24.9183 165.131 24.8483 165.014 24.755C164.898 24.6383 164.793 24.4867 164.699 24.3C164.606 24.1133 164.513 23.88 164.419 23.6L164.209 23.04C163.743 23.5533 163.136 24.0433 162.389 24.51C161.643 24.9767 160.721 25.21 159.624 25.21ZM163.754 17.16H161.514C160.744 17.16 160.196 17.335 159.869 17.685C159.566 18.0117 159.414 18.4783 159.414 19.085C159.414 19.8083 159.589 20.31 159.939 20.59C160.289 20.8467 160.791 20.975 161.444 20.975C162.378 20.975 163.148 20.7417 163.754 20.275V17.16ZM186.035 24.3C185.428 24.6033 184.74 24.8717 183.97 25.105C183.223 25.3383 182.243 25.455 181.03 25.455C178.3 25.455 176.34 24.7083 175.15 23.215C173.96 21.6983 173.365 19.2833 173.365 15.97C173.365 12.6567 173.948 10.2417 175.115 8.725C176.281 7.185 178.171 6.415 180.785 6.415C181.648 6.415 182.441 6.485 183.165 6.625C183.911 6.765 184.518 6.95167 184.985 7.185C185.405 7.395 185.685 7.64 185.825 7.92C185.965 8.2 186.035 8.57333 186.035 9.04V11.315C185.335 11.245 184.623 11.1983 183.9 11.175C183.2 11.1283 182.686 11.105 182.36 11.105C181.706 11.105 181.181 11.1867 180.785 11.35C180.388 11.49 180.085 11.7467 179.875 12.12C179.665 12.47 179.525 12.9483 179.455 13.555C179.385 14.1383 179.35 14.885 179.35 15.795C179.35 16.775 179.385 17.5917 179.455 18.245C179.525 18.875 179.653 19.3767 179.84 19.75C180.026 20.1 180.295 20.345 180.645 20.485C180.995 20.625 181.438 20.695 181.975 20.695C182.115 20.695 182.301 20.695 182.535 20.695C182.768 20.6717 183.001 20.66 183.235 20.66C183.491 20.66 183.725 20.66 183.935 20.66C184.168 20.6367 184.343 20.625 184.46 20.625C184.996 20.625 185.393 20.73 185.65 20.94C185.906 21.15 186.035 21.5 186.035 21.99V24.3ZM201.603 24.3C200.996 24.6033 200.308 24.8717 199.538 25.105C198.791 25.3383 197.811 25.455 196.598 25.455C193.868 25.455 191.908 24.7083 190.718 23.215C189.528 21.6983 188.933 19.2833 188.933 15.97C188.933 12.6567 189.516 10.2417 190.683 8.725C191.849 7.185 193.739 6.415 196.353 6.415C197.216 6.415 198.009 6.485 198.733 6.625C199.479 6.765 200.086 6.95167 200.553 7.185C200.973 7.395 201.253 7.64 201.393 7.92C201.533 8.2 201.603 8.57333 201.603 9.04V11.315C200.903 11.245 200.191 11.1983 199.468 11.175C198.768 11.1283 198.254 11.105 197.928 11.105C197.274 11.105 196.749 11.1867 196.353 11.35C195.956 11.49 195.653 11.7467 195.443 12.12C195.233 12.47 195.093 12.9483 195.023 13.555C194.953 14.1383 194.918 14.885 194.918 15.795C194.918 16.775 194.953 17.5917 195.023 18.245C195.093 18.875 195.221 19.3767 195.408 19.75C195.594 20.1 195.863 20.345 196.213 20.485C196.563 20.625 197.006 20.695 197.543 20.695C197.683 20.695 197.869 20.695 198.103 20.695C198.336 20.6717 198.569 20.66 198.803 20.66C199.059 20.66 199.293 20.66 199.503 20.66C199.736 20.6367 199.911 20.625 200.028 20.625C200.564 20.625 200.961 20.73 201.218 20.94C201.474 21.15 201.603 21.5 201.603 21.99V24.3ZM212.481 25.455C211.058 25.455 209.833 25.28 208.806 24.93C207.803 24.5567 206.974 23.985 206.321 23.215C205.691 22.445 205.224 21.465 204.921 20.275C204.641 19.0617 204.501 17.615 204.501 15.935C204.501 14.2317 204.641 12.785 204.921 11.595C205.224 10.3817 205.691 9.39 206.321 8.62C206.974 7.85 207.803 7.29 208.806 6.94C209.833 6.59 211.058 6.415 212.481 6.415C213.904 6.415 215.118 6.59 216.121 6.94C217.148 7.29 217.976 7.85 218.606 8.62C219.259 9.39 219.726 10.3817 220.006 11.595C220.309 12.785 220.461 14.2317 220.461 15.935C220.461 17.615 220.309 19.0617 220.006 20.275C219.726 21.465 219.259 22.445 218.606 23.215C217.976 23.985 217.148 24.5567 216.121 24.93C215.118 25.28 213.904 25.455 212.481 25.455ZM214.546 15.935C214.546 14.815 214.511 13.9283 214.441 13.275C214.394 12.5983 214.289 12.085 214.126 11.735C213.963 11.3617 213.753 11.1167 213.496 11C213.239 10.8833 212.901 10.825 212.481 10.825C212.061 10.825 211.723 10.8833 211.466 11C211.209 11.1167 210.999 11.3617 210.836 11.735C210.673 12.085 210.556 12.5983 210.486 13.275C210.439 13.9283 210.416 14.815 210.416 15.935C210.416 17.0783 210.439 17.9883 210.486 18.665C210.556 19.3417 210.673 19.8667 210.836 20.24C210.999 20.59 211.209 20.8233 211.466 20.94C211.723 21.0567 212.061 21.115 212.481 21.115C212.901 21.115 213.239 21.0567 213.496 20.94C213.753 20.8233 213.963 20.59 214.126 20.24C214.289 19.8667 214.394 19.3417 214.441 18.665C214.511 17.9883 214.546 17.0783 214.546 15.935ZM233.631 6.835H238.181C239.044 6.835 239.476 7.24333 239.476 8.06V25H236.116C235.579 25 235.206 24.9183 234.996 24.755C234.809 24.5683 234.622 24.1833 234.436 23.6L234.226 22.97C233.409 23.8567 232.604 24.4867 231.811 24.86C231.041 25.2333 230.131 25.42 229.081 25.42C225.767 25.42 224.111 23.3667 224.111 19.26V6.835H228.661C229.524 6.835 229.956 7.24333 229.956 8.06V18.665C229.956 19.2717 230.072 19.7267 230.306 20.03C230.539 20.31 230.971 20.45 231.601 20.45C231.951 20.45 232.312 20.3917 232.686 20.275C233.059 20.1583 233.374 19.9833 233.631 19.75V6.835ZM249.591 25H245.041C244.178 25 243.746 24.5917 243.746 23.775V6.835H247.106C247.643 6.835 248.004 6.92833 248.191 7.115C248.401 7.27833 248.599 7.65167 248.786 8.235L248.996 8.865C249.813 7.97833 250.606 7.34833 251.376 6.975C252.169 6.60167 253.091 6.415 254.141 6.415C257.454 6.415 259.111 8.46833 259.111 12.575V25H254.561C253.698 25 253.266 24.5917 253.266 23.775V13.17C253.266 12.5633 253.149 12.12 252.916 11.84C252.683 11.5367 252.251 11.385 251.621 11.385C251.271 11.385 250.909 11.4433 250.536 11.56C250.163 11.6767 249.848 11.8517 249.591 12.085V25ZM273.991 24.79C273.291 25 272.649 25.1517 272.066 25.245C271.506 25.3383 270.887 25.385 270.211 25.385C269.277 25.385 268.437 25.2917 267.691 25.105C266.967 24.9183 266.337 24.5917 265.801 24.125C265.287 23.635 264.891 22.9933 264.611 22.2C264.331 21.3833 264.191 20.3567 264.191 19.12V11.35H263.491C262.627 11.35 262.196 10.9417 262.196 10.125V6.835H264.401L264.681 2.425H268.741C269.604 2.425 270.036 2.83333 270.036 3.65V6.835H272.696C273.559 6.835 273.991 7.24333 273.991 8.06V11.35H270.036V19.015C270.036 20.2517 270.584 20.87 271.681 20.87H272.696C273.559 20.87 273.991 21.2783 273.991 22.095V24.79Z" fill="#0B1547"/>
</svg>
