<svg width="437" height="79" viewBox="0 0 437 79" fill="none" xmlns="http://www.w3.org/2000/svg">
<mask id="path-1-inside-1_371_766" fill="white">
<path d="M0 28C0 24.134 3.13401 21 7 21H430C433.866 21 437 24.134 437 28V72C437 75.866 433.866 79 430 79H7.00001C3.13402 79 0 75.866 0 72V28Z"/>
</mask>
<path d="M0 28C0 24.134 3.13401 21 7 21H430C433.866 21 437 24.134 437 28V72C437 75.866 433.866 79 430 79H7.00001C3.13402 79 0 75.866 0 72V28Z" fill="#D9D9D9"/>
<path d="M0 21H437H0ZM437 72C437 76.9706 432.971 81 428 81H9C4.02944 81 0 76.9706 0 72C0 74.7614 3.13401 77 7 77H430C433.866 77 437 74.7614 437 72ZM0 79V21V79ZM437 21V79V21Z" fill="#7C7C7C" mask="url(#path-1-inside-1_371_766)"/>
<path opacity="0.7" d="M12.008 1.912C12.2533 1.912 12.376 2.03467 12.376 2.28V3.288H7.8V6.696H11.592C11.8373 6.696 11.96 6.81867 11.96 7.064V8.088H7.8V11.624H12.184C12.3013 11.624 12.392 11.656 12.456 11.72C12.5307 11.784 12.568 11.8747 12.568 11.992V13H6.504C6.248 13 6.12 12.8773 6.12 12.632V1.912H12.008ZM19.2351 13C19.1391 13 19.0485 12.968 18.9631 12.904C18.8885 12.8293 18.8511 12.7387 18.8511 12.632V7.592C18.8511 7.03733 18.7391 6.64267 18.5151 6.408C18.3018 6.16267 17.9818 6.04 17.5551 6.04C17.1605 6.04 16.8138 6.12533 16.5151 6.296C16.2271 6.456 15.9871 6.632 15.7951 6.824V13H14.5631C14.3071 13 14.1791 12.8773 14.1791 12.632V4.856H15.1551C15.2831 4.856 15.3791 4.88267 15.4431 4.936C15.5285 4.97867 15.5818 5.08533 15.6031 5.256L15.6671 5.752C15.9658 5.42133 16.3071 5.16 16.6911 4.968C17.0965 4.776 17.5658 4.68 18.0991 4.68C18.5578 4.68 18.9631 4.76533 19.3151 4.936C19.6885 5.08533 19.9711 5.38933 20.1631 5.848C20.4191 5.56 20.7605 5.29333 21.1871 5.048C21.6031 4.80267 22.1365 4.68 22.7871 4.68C23.5338 4.68 24.1098 4.89867 24.5151 5.336C24.9311 5.784 25.1391 6.49333 25.1391 7.464V13H23.8911C23.6458 13 23.5231 12.8773 23.5231 12.632V7.592C23.5231 7.03733 23.4111 6.64267 23.1871 6.408C22.9738 6.16267 22.6538 6.04 22.2271 6.04C21.7898 6.04 21.4271 6.13067 21.1391 6.312C20.8191 6.52533 20.5791 6.712 20.4191 6.872C20.4511 7.13867 20.4671 7.416 20.4671 7.704V13H19.2351ZM29.744 9.112C29.392 9.112 29.1253 9.144 28.944 9.208C28.7413 9.272 28.576 9.368 28.448 9.496C28.352 9.592 28.2667 9.74133 28.192 9.944C28.1387 10.1253 28.112 10.312 28.112 10.504C28.112 10.984 28.2293 11.3413 28.464 11.576C28.6987 11.8 29.056 11.912 29.536 11.912C29.9733 11.912 30.3413 11.832 30.64 11.672C30.9387 11.512 31.2053 11.32 31.44 11.096V9.112H29.744ZM29.12 13.144C28.3093 13.144 27.6907 12.9147 27.264 12.456C26.8587 11.9867 26.656 11.352 26.656 10.552C26.656 10.0187 26.7307 9.60267 26.88 9.304C27.04 8.96267 27.2587 8.70133 27.536 8.52C27.8027 8.328 28.1387 8.18933 28.544 8.104C28.8853 8.01867 29.3013 7.976 29.792 7.976H31.44V7.432C31.44 6.86667 31.296 6.488 31.008 6.296C30.7307 6.09333 30.24 5.992 29.536 5.992C28.9493 5.992 28.528 6.01333 28.272 6.056C27.8667 6.10933 27.6213 6.136 27.536 6.136C27.408 6.136 27.312 6.104 27.248 6.04C27.184 5.96533 27.152 5.87467 27.152 5.768V5.08C27.536 4.952 27.9573 4.856 28.416 4.792C28.864 4.71733 29.344 4.68 29.856 4.68C30.5173 4.68 31.024 4.744 31.376 4.872C31.7813 5 32.1067 5.192 32.352 5.448C32.5867 5.672 32.7573 5.97067 32.864 6.344C32.9707 6.67467 33.024 7.064 33.024 7.512V13H32.048C31.8667 13 31.7547 12.9627 31.712 12.888L31.616 12.6L31.552 12.12C31.296 12.3653 30.9653 12.6 30.56 12.824C30.1653 13.0373 29.6853 13.144 29.12 13.144ZM36.5928 13H35.3608C35.1048 13 34.9768 12.8773 34.9768 12.632V4.856H36.2088C36.4648 4.856 36.5928 4.97867 36.5928 5.224V13ZM35.8088 3.576C35.4674 3.576 35.2168 3.512 35.0568 3.384C34.8968 3.24533 34.8168 3.016 34.8168 2.696C34.8168 2.36533 34.8914 2.14133 35.0408 2.024C35.1901 1.88533 35.4461 1.816 35.8088 1.816C36.1608 1.816 36.4114 1.88533 36.5608 2.024C36.7208 2.152 36.8008 2.376 36.8008 2.696C36.8008 2.99467 36.7208 3.21867 36.5608 3.368C36.3901 3.50667 36.1394 3.576 35.8088 3.576ZM40.1858 11.112C40.1858 11.3893 40.2338 11.576 40.3298 11.672C40.4258 11.7467 40.5964 11.7947 40.8418 11.816C41.0124 11.816 41.1404 11.8427 41.2258 11.896C41.3111 11.928 41.3538 12.0293 41.3538 12.2V12.936C41.2364 12.968 41.0604 13.0053 40.8258 13.048C40.6444 13.08 40.4471 13.096 40.2338 13.096C39.9138 13.096 39.6418 13.048 39.4178 12.952C39.2044 12.8347 39.0338 12.68 38.9058 12.488C38.8098 12.328 38.7244 12.0773 38.6497 11.736C38.5964 11.384 38.5698 11.0267 38.5698 10.664V1.512H39.8018C39.9191 1.512 40.0098 1.544 40.0738 1.608C40.1484 1.672 40.1858 1.76267 40.1858 1.88V11.112Z" fill="black"/>
</svg>
