<svg width="447" height="68" viewBox="0 0 447 68" fill="none" xmlns="http://www.w3.org/2000/svg">
<g filter="url(#filter0_d_371_962)">
<rect x="5" y="3" width="437" height="58" rx="7" fill="url(#paint0_linear_371_962)" shape-rendering="crispEdges"/>
</g>
<path d="M186.474 31.412C186.762 31.412 186.906 31.55 186.906 31.826V37.658C186.498 37.814 186.006 37.946 185.43 38.054C184.854 38.15 184.26 38.198 183.648 38.198C182.736 38.198 181.95 38.078 181.29 37.838C180.642 37.586 180.126 37.208 179.742 36.704C179.358 36.188 179.076 35.522 178.896 34.706C178.716 33.902 178.626 32.93 178.626 31.79C178.626 30.602 178.716 29.594 178.896 28.766C179.1 27.926 179.394 27.26 179.778 26.768C180.174 26.264 180.678 25.904 181.29 25.688C181.89 25.46 182.628 25.346 183.504 25.346C184.212 25.346 184.746 25.388 185.106 25.472C185.598 25.568 185.94 25.664 186.132 25.76C186.276 25.808 186.366 25.88 186.402 25.976C186.45 26.036 186.474 26.162 186.474 26.354V27.164C186.198 27.116 185.778 27.074 185.214 27.038C184.77 26.99 184.302 26.966 183.81 26.966C183.138 26.966 182.622 27.026 182.262 27.146C181.83 27.278 181.494 27.518 181.254 27.866C181.026 28.166 180.846 28.646 180.714 29.306C180.594 29.99 180.534 30.782 180.534 31.682C180.534 32.69 180.6 33.536 180.732 34.22C180.876 34.856 181.074 35.354 181.326 35.714C181.59 36.074 181.92 36.314 182.316 36.434C182.772 36.554 183.246 36.614 183.738 36.614C184.086 36.614 184.344 36.608 184.512 36.596C184.56 36.584 184.662 36.572 184.818 36.56C184.986 36.536 185.106 36.518 185.178 36.506V32.96H183.63C183.522 32.96 183.432 32.924 183.36 32.852C183.288 32.78 183.252 32.678 183.252 32.546V31.412H186.474ZM190.889 34.094C190.925 34.574 190.979 34.982 191.051 35.318C191.147 35.666 191.285 35.936 191.465 36.128C191.669 36.32 191.939 36.476 192.275 36.596C192.635 36.692 193.067 36.74 193.571 36.74C193.919 36.74 194.345 36.716 194.849 36.668C195.197 36.62 195.461 36.596 195.641 36.596C195.917 36.596 196.055 36.728 196.055 36.992V37.748C195.827 37.832 195.437 37.934 194.885 38.054C194.345 38.15 193.769 38.198 193.157 38.198C192.497 38.198 191.903 38.114 191.375 37.946C190.871 37.766 190.457 37.496 190.133 37.136C189.785 36.716 189.539 36.224 189.395 35.66C189.239 35 189.161 34.262 189.161 33.446C189.161 32.63 189.239 31.892 189.395 31.232C189.563 30.608 189.797 30.11 190.097 29.738C190.409 29.354 190.805 29.072 191.285 28.892C191.753 28.712 192.299 28.622 192.923 28.622C193.679 28.622 194.249 28.718 194.633 28.91C195.077 29.102 195.425 29.372 195.677 29.72C195.941 30.056 196.115 30.446 196.199 30.89C196.295 31.286 196.343 31.772 196.343 32.348C196.343 32.696 196.325 33.032 196.289 33.356C196.253 33.704 196.205 33.95 196.145 34.094H190.889ZM194.687 32.816C194.699 32.732 194.705 32.642 194.705 32.546V32.312C194.705 31.52 194.591 30.944 194.363 30.584C194.123 30.188 193.661 29.99 192.977 29.99C192.557 29.99 192.221 30.056 191.969 30.188C191.705 30.32 191.495 30.506 191.339 30.746C191.195 30.986 191.087 31.28 191.015 31.628C190.955 31.952 190.913 32.348 190.889 32.816H194.687ZM203.202 37.946C202.926 38.018 202.668 38.072 202.428 38.108C202.176 38.144 201.918 38.162 201.654 38.162C200.814 38.162 200.19 37.97 199.782 37.586C199.386 37.19 199.188 36.584 199.188 35.768V30.278H198.558C198.27 30.278 198.126 30.14 198.126 29.864V28.838H199.224L199.314 26.462H200.574C200.862 26.462 201.006 26.6 201.006 26.876V28.838H202.77C202.902 28.838 203.004 28.874 203.076 28.946C203.16 29.018 203.202 29.12 203.202 29.252V30.278H201.006V35.678C201.006 36.002 201.06 36.254 201.168 36.434C201.276 36.614 201.492 36.704 201.816 36.704H202.32C202.416 36.692 202.548 36.686 202.716 36.686C203.04 36.686 203.202 36.824 203.202 37.1V37.946ZM209.066 28.784C209.066 27.644 209.39 26.786 210.038 26.21C210.686 25.634 211.688 25.346 213.044 25.346C213.632 25.346 214.136 25.376 214.556 25.436C215.12 25.52 215.51 25.604 215.726 25.688C215.918 25.76 216.032 25.85 216.068 25.958C216.116 26.054 216.14 26.174 216.14 26.318V27.146C215.852 27.098 215.396 27.05 214.772 27.002C214.352 26.954 213.872 26.93 213.332 26.93C212.816 26.93 212.426 26.966 212.162 27.038C211.898 27.098 211.652 27.212 211.424 27.38C211.256 27.512 211.124 27.692 211.028 27.92C210.944 28.172 210.902 28.424 210.902 28.676C210.902 28.952 210.944 29.216 211.028 29.468C211.124 29.684 211.262 29.87 211.442 30.026C211.658 30.17 211.916 30.308 212.216 30.44C212.324 30.476 212.51 30.548 212.774 30.656C213.038 30.752 213.248 30.83 213.404 30.89C213.788 31.034 214.22 31.214 214.7 31.43C215.12 31.622 215.456 31.844 215.708 32.096C215.996 32.372 216.212 32.702 216.356 33.086C216.512 33.47 216.59 33.968 216.59 34.58C216.59 35.852 216.242 36.776 215.546 37.352C214.85 37.916 213.842 38.198 212.522 38.198C211.946 38.198 211.388 38.162 210.848 38.09C210.284 37.994 209.864 37.898 209.588 37.802C209.432 37.73 209.324 37.652 209.264 37.568C209.204 37.448 209.174 37.328 209.174 37.208V36.308C209.846 36.392 210.308 36.452 210.56 36.488C211.136 36.548 211.682 36.578 212.198 36.578C212.726 36.578 213.14 36.536 213.44 36.452C213.8 36.332 214.058 36.206 214.214 36.074C214.406 35.894 214.538 35.69 214.61 35.462C214.682 35.21 214.718 34.94 214.718 34.652C214.718 34.268 214.682 33.992 214.61 33.824C214.538 33.608 214.4 33.428 214.196 33.284C214.016 33.116 213.764 32.972 213.44 32.852C213.152 32.72 212.75 32.57 212.234 32.402C211.91 32.282 211.466 32.096 210.902 31.844C210.53 31.652 210.2 31.424 209.912 31.16C209.624 30.848 209.414 30.524 209.282 30.188C209.138 29.792 209.066 29.324 209.066 28.784ZM223.179 37.946C222.903 38.018 222.645 38.072 222.405 38.108C222.153 38.144 221.895 38.162 221.631 38.162C220.791 38.162 220.167 37.97 219.759 37.586C219.363 37.19 219.165 36.584 219.165 35.768V30.278H218.535C218.247 30.278 218.103 30.14 218.103 29.864V28.838H219.201L219.291 26.462H220.551C220.839 26.462 220.983 26.6 220.983 26.876V28.838H222.747C222.879 28.838 222.981 28.874 223.053 28.946C223.137 29.018 223.179 29.12 223.179 29.252V30.278H220.983V35.678C220.983 36.002 221.037 36.254 221.145 36.434C221.253 36.614 221.469 36.704 221.793 36.704H222.297C222.393 36.692 222.525 36.686 222.693 36.686C223.017 36.686 223.179 36.824 223.179 37.1V37.946ZM228.392 33.626C227.996 33.626 227.696 33.662 227.492 33.734C227.264 33.806 227.078 33.914 226.934 34.058C226.826 34.166 226.73 34.334 226.646 34.562C226.586 34.766 226.556 34.976 226.556 35.192C226.556 35.732 226.688 36.134 226.952 36.398C227.216 36.65 227.618 36.776 228.158 36.776C228.65 36.776 229.064 36.686 229.4 36.506C229.736 36.326 230.036 36.11 230.3 35.858V33.626H228.392ZM227.69 38.162C226.778 38.162 226.082 37.904 225.602 37.388C225.146 36.86 224.918 36.146 224.918 35.246C224.918 34.646 225.002 34.178 225.17 33.842C225.35 33.458 225.596 33.164 225.908 32.96C226.208 32.744 226.586 32.588 227.042 32.492C227.426 32.396 227.894 32.348 228.446 32.348H230.3V31.736C230.3 31.1 230.138 30.674 229.814 30.458C229.502 30.23 228.95 30.116 228.158 30.116C227.498 30.116 227.024 30.14 226.736 30.188C226.28 30.248 226.004 30.278 225.908 30.278C225.764 30.278 225.656 30.242 225.584 30.17C225.512 30.086 225.476 29.984 225.476 29.864V29.09C225.908 28.946 226.382 28.838 226.898 28.766C227.402 28.682 227.942 28.64 228.518 28.64C229.262 28.64 229.832 28.712 230.228 28.856C230.684 29 231.05 29.216 231.326 29.504C231.59 29.756 231.782 30.092 231.902 30.512C232.022 30.884 232.082 31.322 232.082 31.826V38H230.984C230.78 38 230.654 37.958 230.606 37.874L230.498 37.55L230.426 37.01C230.138 37.286 229.766 37.55 229.31 37.802C228.866 38.042 228.326 38.162 227.69 38.162ZM238.761 28.784C239.025 28.784 239.187 28.82 239.247 28.892C239.331 28.964 239.373 29.072 239.373 29.216V30.422C239.325 30.41 239.241 30.404 239.121 30.404H238.887C238.395 30.404 237.951 30.482 237.555 30.638C237.171 30.782 236.793 31.046 236.421 31.43V38H235.035C234.747 38 234.603 37.862 234.603 37.586V28.838H235.701C235.869 28.838 235.983 28.868 236.043 28.928C236.115 29 236.169 29.12 236.205 29.288L236.277 30.08C236.589 29.708 236.943 29.408 237.339 29.18C237.759 28.916 238.233 28.784 238.761 28.784ZM245.95 37.946C245.674 38.018 245.416 38.072 245.176 38.108C244.924 38.144 244.666 38.162 244.402 38.162C243.562 38.162 242.938 37.97 242.53 37.586C242.134 37.19 241.936 36.584 241.936 35.768V30.278H241.306C241.018 30.278 240.874 30.14 240.874 29.864V28.838H241.972L242.062 26.462H243.322C243.61 26.462 243.754 26.6 243.754 26.876V28.838H245.518C245.65 28.838 245.752 28.874 245.824 28.946C245.908 29.018 245.95 29.12 245.95 29.252V30.278H243.754V35.678C243.754 36.002 243.808 36.254 243.916 36.434C244.024 36.614 244.24 36.704 244.564 36.704H245.068C245.164 36.692 245.296 36.686 245.464 36.686C245.788 36.686 245.95 36.824 245.95 37.1V37.946ZM249.316 34.094C249.352 34.574 249.406 34.982 249.478 35.318C249.574 35.666 249.712 35.936 249.892 36.128C250.096 36.32 250.366 36.476 250.702 36.596C251.062 36.692 251.494 36.74 251.998 36.74C252.346 36.74 252.772 36.716 253.276 36.668C253.624 36.62 253.888 36.596 254.068 36.596C254.344 36.596 254.482 36.728 254.482 36.992V37.748C254.254 37.832 253.864 37.934 253.312 38.054C252.772 38.15 252.196 38.198 251.584 38.198C250.924 38.198 250.33 38.114 249.802 37.946C249.298 37.766 248.884 37.496 248.56 37.136C248.212 36.716 247.966 36.224 247.822 35.66C247.666 35 247.588 34.262 247.588 33.446C247.588 32.63 247.666 31.892 247.822 31.232C247.99 30.608 248.224 30.11 248.524 29.738C248.836 29.354 249.232 29.072 249.712 28.892C250.18 28.712 250.726 28.622 251.35 28.622C252.106 28.622 252.676 28.718 253.06 28.91C253.504 29.102 253.852 29.372 254.104 29.72C254.368 30.056 254.542 30.446 254.626 30.89C254.722 31.286 254.77 31.772 254.77 32.348C254.77 32.696 254.752 33.032 254.716 33.356C254.68 33.704 254.632 33.95 254.572 34.094H249.316ZM253.114 32.816C253.126 32.732 253.132 32.642 253.132 32.546V32.312C253.132 31.52 253.018 30.944 252.79 30.584C252.55 30.188 252.088 29.99 251.404 29.99C250.984 29.99 250.648 30.056 250.396 30.188C250.132 30.32 249.922 30.506 249.766 30.746C249.622 30.986 249.514 31.28 249.442 31.628C249.382 31.952 249.34 32.348 249.316 32.816H253.114ZM262.457 30.368C262.253 30.272 262.013 30.194 261.737 30.134C261.533 30.074 261.245 30.044 260.873 30.044C260.453 30.044 260.105 30.104 259.829 30.224C259.565 30.32 259.343 30.512 259.163 30.8C259.007 31.064 258.893 31.412 258.821 31.844C258.749 32.276 258.713 32.798 258.713 33.41C258.713 34.55 258.839 35.378 259.091 35.894C259.355 36.41 259.823 36.668 260.495 36.668C260.963 36.668 261.359 36.578 261.683 36.398C262.019 36.194 262.277 36.002 262.457 35.822V30.368ZM259.955 38.162C258.899 38.162 258.119 37.766 257.615 36.974C257.123 36.158 256.877 35 256.877 33.5C256.877 31.772 257.171 30.536 257.759 29.792C258.371 29.036 259.271 28.658 260.459 28.658C260.999 28.658 261.413 28.706 261.701 28.802C262.061 28.898 262.313 28.994 262.457 29.09V25.076H263.843C263.975 25.076 264.077 25.112 264.149 25.184C264.233 25.256 264.275 25.358 264.275 25.49V38H263.177C263.081 38 262.973 37.97 262.853 37.91C262.769 37.838 262.709 37.718 262.673 37.55L262.601 36.992C262.325 37.292 261.977 37.562 261.557 37.802C261.113 38.042 260.579 38.162 259.955 38.162Z" fill="white" fill-opacity="0.81"/>
<defs>
<filter id="filter0_d_371_962" x="0.8" y="0.8" width="445.4" height="66.4" filterUnits="userSpaceOnUse" color-interpolation-filters="sRGB">
<feFlood flood-opacity="0" result="BackgroundImageFix"/>
<feColorMatrix in="SourceAlpha" type="matrix" values="0 0 0 0 0 0 0 0 0 0 0 0 0 0 0 0 0 0 127 0" result="hardAlpha"/>
<feOffset dy="2"/>
<feGaussianBlur stdDeviation="2.1"/>
<feComposite in2="hardAlpha" operator="out"/>
<feColorMatrix type="matrix" values="0 0 0 0 0 0 0 0 0 0 0 0 0 0 0 0 0 0 0.28 0"/>
<feBlend mode="normal" in2="BackgroundImageFix" result="effect1_dropShadow_371_962"/>
<feBlend mode="normal" in="SourceGraphic" in2="effect1_dropShadow_371_962" result="shape"/>
</filter>
<linearGradient id="paint0_linear_371_962" x1="34.5" y1="250" x2="360.5" y2="32" gradientUnits="userSpaceOnUse">
<stop stop-color="#0B1547"/>
<stop offset="1" stop-color="#1B33AD" stop-opacity="0.94"/>
</linearGradient>
</defs>
</svg>
