<svg width="36" height="36" viewBox="0 0 36 36" fill="none" xmlns="http://www.w3.org/2000/svg">
<mask id="path-1-inside-1_371_789" fill="white">
<path d="M0 10C0 4.47715 4.47715 0 10 0H26C31.5228 0 36 4.47715 36 10V26C36 31.5228 31.5228 36 26 36H10C4.47715 36 0 31.5228 0 26V10Z"/>
</mask>
<path d="M0 10C0 4.47715 4.47715 0 10 0H26C31.5228 0 36 4.47715 36 10V26C36 31.5228 31.5228 36 26 36H10C4.47715 36 0 31.5228 0 26V10Z" fill="#F0F0F0"/>
<path d="M0 0H36H0ZM36 26C36 32.6274 30.6274 38 24 38H12C5.37258 38 0 32.6274 0 26C0 30.4183 4.47715 34 10 34H26C31.5228 34 36 30.4183 36 26ZM0 36V0V36ZM36 0V36V0Z" fill="#7C7C7C" mask="url(#path-1-inside-1_371_789)"/>
<circle cx="18" cy="14" r="5" fill="#F0F0F0"/>
<circle cx="18" cy="14" r="4.25" stroke="black" stroke-opacity="0.67" stroke-width="1.5"/>
<ellipse cx="18" cy="25" rx="8" ry="5" fill="#F0F0F0"/>
<path d="M18 20.75C20.0911 20.75 21.949 21.2813 23.2598 22.1006C24.5809 22.9264 25.25 23.9713 25.25 25C25.25 26.0287 24.5809 27.0736 23.2598 27.8994C21.949 28.7187 20.0911 29.25 18 29.25C15.9089 29.25 14.051 28.7187 12.7402 27.8994C11.4191 27.0736 10.75 26.0287 10.75 25C10.75 23.9713 11.4191 22.9264 12.7402 22.1006C14.051 21.2813 15.9089 20.75 18 20.75Z" stroke="black" stroke-opacity="0.67" stroke-width="1.5"/>
<rect x="8" y="25" width="19" height="6" fill="#F0F0F0"/>
</svg>
