<svg width="437" height="38" viewBox="0 0 437 38" fill="none" xmlns="http://www.w3.org/2000/svg">
<path opacity="0.38" d="M164.749 11.772C164.749 12.624 164.767 13.314 164.803 13.842C164.851 14.358 164.929 14.76 165.037 15.048C165.145 15.336 165.295 15.528 165.487 15.624C165.691 15.72 165.949 15.768 166.261 15.768C166.573 15.768 166.825 15.72 167.017 15.624C167.221 15.528 167.377 15.336 167.485 15.048C167.593 14.76 167.665 14.358 167.701 13.842C167.749 13.314 167.773 12.624 167.773 11.772C167.773 10.932 167.749 10.254 167.701 9.738C167.665 9.21 167.593 8.802 167.485 8.514C167.377 8.226 167.221 8.034 167.017 7.938C166.825 7.83 166.573 7.776 166.261 7.776C165.949 7.776 165.691 7.83 165.487 7.938C165.295 8.034 165.145 8.226 165.037 8.514C164.929 8.802 164.851 9.21 164.803 9.738C164.767 10.254 164.749 10.932 164.749 11.772ZM170.959 11.772C170.959 13.164 170.845 14.286 170.617 15.138C170.389 15.99 170.071 16.65 169.663 17.118C169.255 17.574 168.757 17.874 168.169 18.018C167.593 18.174 166.957 18.252 166.261 18.252C165.553 18.252 164.911 18.174 164.335 18.018C163.759 17.874 163.267 17.574 162.859 17.118C162.451 16.65 162.133 15.99 161.905 15.138C161.677 14.286 161.563 13.164 161.563 11.772C161.563 10.38 161.677 9.258 161.905 8.406C162.133 7.554 162.451 6.9 162.859 6.444C163.267 5.976 163.759 5.67 164.335 5.526C164.911 5.37 165.553 5.292 166.261 5.292C166.957 5.292 167.593 5.37 168.169 5.526C168.757 5.67 169.255 5.976 169.663 6.444C170.071 6.9 170.389 7.554 170.617 8.406C170.845 9.258 170.959 10.38 170.959 11.772ZM177.604 8.604C178.072 8.604 178.306 8.814 178.306 9.234V11.304C178.222 11.292 178.144 11.286 178.072 11.286C178 11.286 177.916 11.286 177.82 11.286C177.436 11.286 177.052 11.316 176.668 11.376C176.296 11.436 175.99 11.568 175.75 11.772V18H173.41C172.966 18 172.744 17.79 172.744 17.37V8.658H174.472C174.736 8.658 174.922 8.706 175.03 8.802C175.138 8.886 175.24 9.078 175.336 9.378L175.48 9.864C175.732 9.468 176.044 9.162 176.416 8.946C176.788 8.718 177.184 8.604 177.604 8.604ZM181.455 16.47C181.455 16.602 181.443 16.74 181.419 16.884C181.407 17.028 181.371 17.196 181.311 17.388C181.263 17.568 181.179 17.784 181.059 18.036C180.951 18.288 180.801 18.594 180.609 18.954L179.871 20.304H178.593C178.293 20.304 178.143 20.19 178.143 19.962C178.143 19.926 178.143 19.878 178.143 19.818C178.155 19.77 178.179 19.71 178.215 19.638L179.097 17.856C178.665 17.712 178.377 17.526 178.233 17.298C178.101 17.07 178.035 16.818 178.035 16.542C178.035 15.978 178.167 15.57 178.431 15.318C178.695 15.066 179.133 14.94 179.745 14.94C180.369 14.94 180.807 15.072 181.059 15.336C181.323 15.588 181.455 15.966 181.455 16.47ZM186.629 9.108C186.629 8.4 186.725 7.806 186.917 7.326C187.121 6.834 187.409 6.438 187.781 6.138C188.153 5.838 188.603 5.622 189.131 5.49C189.659 5.358 190.253 5.292 190.913 5.292C191.513 5.292 192.023 5.334 192.443 5.418C192.875 5.49 193.211 5.574 193.451 5.67C193.763 5.802 193.943 5.958 193.991 6.138C194.051 6.318 194.081 6.492 194.081 6.66V7.956C193.805 7.944 193.559 7.932 193.343 7.92C193.127 7.896 192.917 7.884 192.713 7.884C192.509 7.872 192.305 7.866 192.101 7.866C191.897 7.854 191.675 7.848 191.435 7.848C191.063 7.848 190.757 7.872 190.517 7.92C190.289 7.968 190.109 8.034 189.977 8.118C189.845 8.202 189.755 8.31 189.707 8.442C189.659 8.574 189.635 8.718 189.635 8.874C189.635 9.054 189.653 9.21 189.689 9.342C189.737 9.462 189.821 9.576 189.941 9.684C190.073 9.792 190.259 9.906 190.499 10.026C190.751 10.146 191.087 10.296 191.507 10.476C192.059 10.716 192.521 10.95 192.893 11.178C193.277 11.406 193.583 11.664 193.811 11.952C194.051 12.24 194.219 12.576 194.315 12.96C194.423 13.344 194.477 13.806 194.477 14.346C194.477 15.03 194.399 15.618 194.243 16.11C194.087 16.59 193.835 16.992 193.487 17.316C193.151 17.628 192.713 17.856 192.173 18C191.633 18.156 190.973 18.234 190.193 18.234C189.617 18.234 189.077 18.198 188.573 18.126C188.069 18.066 187.679 17.982 187.403 17.874C187.151 17.778 186.977 17.658 186.881 17.514C186.785 17.358 186.737 17.178 186.737 16.974V15.516C187.205 15.552 187.661 15.582 188.105 15.606C188.549 15.618 189.005 15.624 189.473 15.624C189.881 15.624 190.211 15.6 190.463 15.552C190.727 15.504 190.925 15.438 191.057 15.354C191.201 15.258 191.297 15.144 191.345 15.012C191.393 14.868 191.417 14.712 191.417 14.544C191.417 14.328 191.387 14.154 191.327 14.022C191.267 13.878 191.159 13.752 191.003 13.644C190.859 13.524 190.655 13.41 190.391 13.302C190.139 13.182 189.815 13.038 189.419 12.87C188.855 12.642 188.393 12.408 188.033 12.168C187.673 11.928 187.391 11.658 187.187 11.358C186.983 11.058 186.839 10.728 186.755 10.368C186.671 9.996 186.629 9.576 186.629 9.108ZM199.147 18H196.807C196.363 18 196.141 17.79 196.141 17.37V8.658H198.481C198.925 8.658 199.147 8.868 199.147 9.288V18ZM197.653 7.74C197.041 7.74 196.603 7.638 196.339 7.434C196.087 7.218 195.961 6.864 195.961 6.372C195.961 5.88 196.087 5.532 196.339 5.328C196.603 5.112 197.041 5.004 197.653 5.004C198.265 5.004 198.697 5.112 198.949 5.328C199.213 5.532 199.345 5.88 199.345 6.372C199.345 6.864 199.213 7.218 198.949 7.434C198.697 7.638 198.265 7.74 197.653 7.74ZM205.69 10.854C205.63 10.842 205.552 10.836 205.456 10.836C205.372 10.824 205.282 10.818 205.186 10.818C204.886 10.818 204.646 10.86 204.466 10.944C204.286 11.028 204.148 11.154 204.052 11.322C203.956 11.49 203.89 11.712 203.854 11.988C203.83 12.264 203.818 12.588 203.818 12.96C203.818 13.44 203.836 13.83 203.872 14.13C203.92 14.418 203.986 14.64 204.07 14.796C204.166 14.952 204.286 15.06 204.43 15.12C204.574 15.168 204.748 15.192 204.952 15.192C205.096 15.192 205.228 15.18 205.348 15.156C205.48 15.12 205.594 15.078 205.69 15.03V10.854ZM205.204 8.532C205.768 8.532 206.29 8.556 206.77 8.604C207.262 8.652 207.712 8.706 208.12 8.766C208.3 8.79 208.456 8.82 208.588 8.856C208.732 8.892 208.852 8.94 208.948 9C209.056 9.06 209.134 9.144 209.182 9.252C209.242 9.36 209.272 9.504 209.272 9.684V11.016H208.444C208.528 11.652 208.582 12.282 208.606 12.906C208.63 13.53 208.642 14.112 208.642 14.652V17.712C208.642 18.936 208.306 19.83 207.634 20.394C206.962 20.958 205.984 21.24 204.7 21.24C204.148 21.24 203.62 21.198 203.116 21.114C202.612 21.042 202.24 20.958 202 20.862C201.796 20.778 201.658 20.67 201.586 20.538C201.514 20.418 201.478 20.256 201.478 20.052V18.846C201.934 18.882 202.354 18.912 202.738 18.936C203.134 18.96 203.524 18.972 203.908 18.972C204.448 18.972 204.88 18.918 205.204 18.81C205.528 18.714 205.69 18.456 205.69 18.036V16.83C205.402 17.01 205.108 17.154 204.808 17.262C204.52 17.358 204.166 17.406 203.746 17.406C202.762 17.406 202.03 17.088 201.55 16.452C201.07 15.804 200.83 14.76 200.83 13.32C200.83 12.444 200.92 11.7 201.1 11.088C201.28 10.476 201.55 9.984 201.91 9.612C202.27 9.228 202.72 8.952 203.26 8.784C203.812 8.616 204.46 8.532 205.204 8.532ZM213.649 18H211.309C210.865 18 210.643 17.79 210.643 17.37V8.658H212.371C212.647 8.658 212.833 8.706 212.929 8.802C213.037 8.886 213.139 9.078 213.235 9.378L213.343 9.702C213.763 9.246 214.171 8.922 214.567 8.73C214.975 8.538 215.449 8.442 215.989 8.442C217.693 8.442 218.545 9.498 218.545 11.61V18H216.205C215.761 18 215.539 17.79 215.539 17.37V11.916C215.539 11.604 215.479 11.376 215.359 11.232C215.239 11.076 215.017 10.998 214.693 10.998C214.513 10.998 214.327 11.028 214.135 11.088C213.943 11.148 213.781 11.238 213.649 11.358V18ZM228.705 8.658H231.045C231.489 8.658 231.711 8.868 231.711 9.288V18H229.983C229.707 18 229.515 17.958 229.407 17.874C229.311 17.778 229.215 17.58 229.119 17.28L229.011 16.956C228.591 17.412 228.177 17.736 227.769 17.928C227.373 18.12 226.905 18.216 226.365 18.216C224.661 18.216 223.809 17.16 223.809 15.048V8.658H226.149C226.593 8.658 226.815 8.868 226.815 9.288V14.742C226.815 15.054 226.875 15.288 226.995 15.444C227.115 15.588 227.337 15.66 227.661 15.66C227.841 15.66 228.027 15.63 228.219 15.57C228.411 15.51 228.573 15.42 228.705 15.3V8.658ZM238.569 18.09C238.185 18.09 237.849 18.036 237.561 17.928C237.285 17.82 237.003 17.67 236.715 17.478V21.06H234.375C233.931 21.06 233.709 20.85 233.709 20.43V14.652C233.709 14.112 233.721 13.53 233.745 12.906C233.769 12.282 233.823 11.652 233.907 11.016H233.583C233.247 11.016 233.079 10.818 233.079 10.422V8.964C233.211 8.928 233.409 8.886 233.673 8.838C233.949 8.79 234.267 8.742 234.627 8.694C234.987 8.646 235.377 8.61 235.797 8.586C236.217 8.55 236.643 8.532 237.075 8.532C237.915 8.532 238.623 8.61 239.199 8.766C239.787 8.91 240.261 9.162 240.621 9.522C240.993 9.882 241.257 10.362 241.413 10.962C241.581 11.55 241.665 12.288 241.665 13.176C241.665 14.112 241.587 14.898 241.431 15.534C241.275 16.158 241.059 16.662 240.783 17.046C240.507 17.418 240.177 17.688 239.793 17.856C239.421 18.012 239.013 18.09 238.569 18.09ZM237.471 15.84C237.711 15.84 237.903 15.804 238.047 15.732C238.203 15.66 238.323 15.528 238.407 15.336C238.491 15.132 238.545 14.856 238.569 14.508C238.605 14.16 238.623 13.704 238.623 13.14C238.623 12.72 238.611 12.366 238.587 12.078C238.563 11.778 238.503 11.538 238.407 11.358C238.311 11.166 238.167 11.028 237.975 10.944C237.795 10.86 237.543 10.818 237.219 10.818C237.111 10.818 237.015 10.824 236.931 10.836C236.847 10.836 236.775 10.842 236.715 10.854V15.66C236.943 15.78 237.195 15.84 237.471 15.84ZM248.765 18C248.513 18 248.345 17.94 248.261 17.82C248.177 17.7 248.111 17.574 248.062 17.442C247.595 16.026 247.235 14.598 246.983 13.158C246.743 11.706 246.539 10.206 246.371 8.658H248.711C249.143 8.658 249.371 8.874 249.395 9.306C249.407 9.654 249.425 10.074 249.449 10.566C249.485 11.058 249.521 11.58 249.557 12.132C249.593 12.672 249.641 13.218 249.701 13.77C249.761 14.31 249.833 14.808 249.917 15.264L251.195 9.522H252.833C253.037 9.522 253.187 9.576 253.283 9.684C253.379 9.792 253.451 9.942 253.499 10.134L254.651 15.264C254.735 14.808 254.807 14.286 254.867 13.698C254.927 13.098 254.981 12.492 255.029 11.88C255.077 11.268 255.113 10.68 255.137 10.116C255.161 9.54 255.185 9.054 255.209 8.658H257.441C257.681 8.658 257.837 8.724 257.909 8.856C257.993 8.976 258.035 9.138 258.035 9.342C258.035 9.462 258.023 9.606 257.999 9.774C257.987 9.93 257.969 10.104 257.945 10.296C257.813 11.388 257.621 12.582 257.369 13.878C257.129 15.162 256.763 16.536 256.271 18H253.985C253.781 18 253.631 17.952 253.535 17.856C253.451 17.76 253.391 17.634 253.355 17.478L252.239 12.816L251.015 18H248.765ZM262.622 18H260.282C259.838 18 259.616 17.79 259.616 17.37V8.658H261.956C262.4 8.658 262.622 8.868 262.622 9.288V18ZM261.128 7.74C260.516 7.74 260.078 7.638 259.814 7.434C259.562 7.218 259.436 6.864 259.436 6.372C259.436 5.88 259.562 5.532 259.814 5.328C260.078 5.112 260.516 5.004 261.128 5.004C261.74 5.004 262.172 5.112 262.424 5.328C262.688 5.532 262.82 5.88 262.82 6.372C262.82 6.864 262.688 7.218 262.424 7.434C262.172 7.638 261.74 7.74 261.128 7.74ZM270.028 17.892C269.668 18 269.338 18.078 269.038 18.126C268.75 18.174 268.432 18.198 268.084 18.198C267.604 18.198 267.172 18.15 266.788 18.054C266.416 17.958 266.092 17.79 265.816 17.55C265.552 17.298 265.348 16.968 265.204 16.56C265.06 16.14 264.988 15.612 264.988 14.976V10.98H264.628C264.184 10.98 263.962 10.77 263.962 10.35V8.658H265.096L265.24 6.39H267.328C267.772 6.39 267.994 6.6 267.994 7.02V8.658H269.362C269.806 8.658 270.028 8.868 270.028 9.288V10.98H267.994V14.922C267.994 15.558 268.276 15.876 268.84 15.876H269.362C269.806 15.876 270.028 16.086 270.028 16.506V17.892ZM277.043 18C276.599 18 276.377 17.79 276.377 17.37V11.916C276.377 11.604 276.317 11.376 276.197 11.232C276.077 11.076 275.855 10.998 275.531 10.998C275.351 10.998 275.165 11.028 274.973 11.088C274.781 11.148 274.619 11.238 274.487 11.358V18H272.147C271.703 18 271.481 17.79 271.481 17.37V5.076H273.821C274.265 5.076 274.487 5.286 274.487 5.706V9.504C275.135 8.796 275.909 8.442 276.809 8.442C278.525 8.442 279.383 9.498 279.383 11.61V18H277.043Z" fill="black" fill-opacity="0.56"/>
<line x1="0.00322574" y1="12.5" x2="150.003" y2="13.4678" stroke="#404040"/>
<line x1="291.003" y1="13.5" x2="437.003" y2="14.505" stroke="#404040"/>
</svg>
