<svg width="152" height="19" viewBox="0 0 152 19" fill="none" xmlns="http://www.w3.org/2000/svg">
<path d="M-0.00289062 4.76C-0.00289062 3.49333 0.357109 2.54 1.07711 1.9C1.79711 1.26 2.91044 0.94 4.41711 0.94C5.07044 0.94 5.63044 0.973333 6.09711 1.04C6.72378 1.13333 7.15711 1.22667 7.39711 1.32C7.61044 1.4 7.73711 1.5 7.77711 1.62C7.83044 1.72667 7.85711 1.86 7.85711 2.02V2.94C7.53711 2.88667 7.03044 2.83333 6.33711 2.78C5.87044 2.72667 5.33711 2.7 4.73711 2.7C4.16378 2.7 3.73044 2.74 3.43711 2.82C3.14378 2.88667 2.87044 3.01333 2.61711 3.2C2.43044 3.34667 2.28378 3.54667 2.17711 3.8C2.08378 4.08 2.03711 4.36 2.03711 4.64C2.03711 4.94667 2.08378 5.24 2.17711 5.52C2.28378 5.76 2.43711 5.96667 2.63711 6.14C2.87711 6.3 3.16378 6.45333 3.49711 6.6C3.61711 6.64 3.82378 6.72 4.11711 6.84C4.41044 6.94667 4.64378 7.03333 4.81711 7.1C5.24378 7.26 5.72378 7.46 6.25711 7.7C6.72378 7.91333 7.09711 8.16 7.37711 8.44C7.69711 8.74667 7.93711 9.11333 8.09711 9.54C8.27044 9.96667 8.35711 10.52 8.35711 11.2C8.35711 12.6133 7.97044 13.64 7.19711 14.28C6.42378 14.9067 5.30378 15.22 3.83711 15.22C3.19711 15.22 2.57711 15.18 1.97711 15.1C1.35044 14.9933 0.883776 14.8867 0.57711 14.78C0.403776 14.7 0.283776 14.6133 0.217109 14.52C0.150443 14.3867 0.117109 14.2533 0.117109 14.12V13.12C0.863776 13.2133 1.37711 13.28 1.65711 13.32C2.29711 13.3867 2.90378 13.42 3.47711 13.42C4.06378 13.42 4.52378 13.3733 4.85711 13.28C5.25711 13.1467 5.54378 13.0067 5.71711 12.86C5.93044 12.66 6.07711 12.4333 6.15711 12.18C6.23711 11.9 6.27711 11.6 6.27711 11.28C6.27711 10.8533 6.23711 10.5467 6.15711 10.36C6.07711 10.12 5.92378 9.92 5.69711 9.76C5.49711 9.57333 5.21711 9.41333 4.85711 9.28C4.53711 9.13333 4.09044 8.96667 3.51711 8.78C3.15711 8.64667 2.66378 8.44 2.03711 8.16C1.62378 7.94667 1.25711 7.69333 0.93711 7.4C0.617109 7.05333 0.383776 6.69333 0.237109 6.32C0.0771094 5.88 -0.00289062 5.36 -0.00289062 4.76ZM15.2776 14.94C14.9709 15.02 14.6842 15.08 14.4176 15.12C14.1376 15.16 13.8509 15.18 13.5576 15.18C12.6242 15.18 11.9309 14.9667 11.4776 14.54C11.0376 14.1 10.8176 13.4267 10.8176 12.52V6.42H10.1176C9.79758 6.42 9.63758 6.26667 9.63758 5.96V4.82H10.8576L10.9576 2.18H12.3576C12.6776 2.18 12.8376 2.33333 12.8376 2.64V4.82H14.7976C14.9442 4.82 15.0576 4.86 15.1376 4.94C15.2309 5.02 15.2776 5.13333 15.2776 5.28V6.42H12.8376V12.42C12.8376 12.78 12.8976 13.06 13.0176 13.26C13.1376 13.46 13.3776 13.56 13.7376 13.56H14.2976C14.4042 13.5467 14.5509 13.54 14.7376 13.54C15.0976 13.54 15.2776 13.6933 15.2776 14V14.94ZM20.6702 10.14C20.2302 10.14 19.8969 10.18 19.6702 10.26C19.4169 10.34 19.2102 10.46 19.0502 10.62C18.9302 10.74 18.8236 10.9267 18.7302 11.18C18.6636 11.4067 18.6302 11.64 18.6302 11.88C18.6302 12.48 18.7769 12.9267 19.0702 13.22C19.3636 13.5 19.8102 13.64 20.4102 13.64C20.9569 13.64 21.4169 13.54 21.7902 13.34C22.1636 13.14 22.4969 12.9 22.7902 12.62V10.14H20.6702ZM19.8902 15.18C18.8769 15.18 18.1036 14.8933 17.5702 14.32C17.0636 13.7333 16.8102 12.94 16.8102 11.94C16.8102 11.2733 16.9036 10.7533 17.0902 10.38C17.2902 9.95333 17.5636 9.62667 17.9102 9.4C18.2436 9.16 18.6636 8.98667 19.1702 8.88C19.5969 8.77333 20.1169 8.72 20.7302 8.72H22.7902V8.04C22.7902 7.33333 22.6102 6.86 22.2502 6.62C21.9036 6.36667 21.2902 6.24 20.4102 6.24C19.6769 6.24 19.1502 6.26667 18.8302 6.32C18.3236 6.38667 18.0169 6.42 17.9102 6.42C17.7502 6.42 17.6302 6.38 17.5502 6.3C17.4702 6.20667 17.4302 6.09333 17.4302 5.96V5.1C17.9102 4.94 18.4369 4.82 19.0102 4.74C19.5702 4.64667 20.1702 4.6 20.8102 4.6C21.6369 4.6 22.2702 4.68 22.7102 4.84C23.2169 5 23.6236 5.24 23.9302 5.56C24.2236 5.84 24.4369 6.21333 24.5702 6.68C24.7036 7.09333 24.7702 7.58 24.7702 8.14V15H23.5502C23.3236 15 23.1836 14.9533 23.1302 14.86L23.0102 14.5L22.9302 13.9C22.6102 14.2067 22.1969 14.5 21.6902 14.78C21.1969 15.0467 20.5969 15.18 19.8902 15.18ZM31.7912 4.76C32.0845 4.76 32.2645 4.8 32.3312 4.88C32.4245 4.96 32.4712 5.08 32.4712 5.24V6.58C32.4178 6.56667 32.3245 6.56 32.1912 6.56H31.9312C31.3845 6.56 30.8912 6.64667 30.4512 6.82C30.0245 6.98 29.6045 7.27333 29.1912 7.7V15H27.6512C27.3312 15 27.1712 14.8467 27.1712 14.54V4.82H28.3912C28.5778 4.82 28.7045 4.85333 28.7712 4.92C28.8512 5 28.9112 5.13333 28.9512 5.32L29.0312 6.2C29.3778 5.78667 29.7712 5.45333 30.2112 5.2C30.6778 4.90667 31.2045 4.76 31.7912 4.76ZM39.3791 14.94C39.0725 15.02 38.7858 15.08 38.5191 15.12C38.2391 15.16 37.9525 15.18 37.6591 15.18C36.7258 15.18 36.0325 14.9667 35.5791 14.54C35.1391 14.1 34.9191 13.4267 34.9191 12.52V6.42H34.2191C33.8991 6.42 33.7391 6.26667 33.7391 5.96V4.82H34.9591L35.0591 2.18H36.4591C36.7791 2.18 36.9391 2.33333 36.9391 2.64V4.82H38.8991C39.0458 4.82 39.1591 4.86 39.2391 4.94C39.3325 5.02 39.3791 5.13333 39.3791 5.28V6.42H36.9391V12.42C36.9391 12.78 36.9991 13.06 37.1191 13.26C37.2391 13.46 37.4791 13.56 37.8391 13.56H38.3991C38.5058 13.5467 38.6525 13.54 38.8391 13.54C39.1991 13.54 39.3791 13.6933 39.3791 14V14.94ZM46.7948 5.28C46.9948 6.4 47.1214 7.07333 47.1748 7.3C47.3081 7.91333 47.4481 8.48 47.5948 9C47.7548 9.56 47.9548 10.16 48.1948 10.8C48.2881 11.0533 48.5948 11.8133 49.1148 13.08C49.6081 11.92 50.0214 10.6133 50.3548 9.16C50.6881 7.77333 50.9481 6.32667 51.1348 4.82H52.6348C52.8348 4.82 52.9481 4.85333 52.9748 4.92C53.0281 4.98667 53.0548 5.08 53.0548 5.2C53.0548 5.38667 53.0414 5.55333 53.0148 5.7C53.0014 5.76667 52.9814 5.86667 52.9548 6C52.9414 6.12 52.9281 6.21333 52.9148 6.28C52.6881 7.64 52.4014 8.88 52.0548 10C51.7081 11.1867 51.3614 12.1933 51.0148 13.02C50.6014 14.0467 50.1814 14.9467 49.7548 15.72C49.3414 16.4533 48.9481 17.0133 48.5748 17.4C48.1614 17.8133 47.7681 18.0933 47.3948 18.24C46.9948 18.4 46.5881 18.48 46.1748 18.48C45.9481 18.48 45.7681 18.4733 45.6348 18.46C45.4481 18.42 45.3014 18.38 45.1948 18.34C44.9681 18.22 44.8548 18.04 44.8548 17.8V16.88C44.9081 16.88 44.9814 16.88 45.0748 16.88C45.1681 16.8933 45.2348 16.9 45.2748 16.9H45.6148C45.9481 16.9 46.2348 16.86 46.4748 16.78C46.7414 16.6733 46.9614 16.5467 47.1348 16.4C47.3214 16.2267 47.4948 16.0133 47.6548 15.76C47.9481 15.24 48.1214 14.9333 48.1748 14.84C47.7348 14.08 47.3281 13.2867 46.9548 12.46C46.6748 11.8067 46.3414 10.96 45.9548 9.92C45.7814 9.4 45.5214 8.54 45.1748 7.34C44.9748 6.54 44.8081 5.7 44.6748 4.82H46.2948C46.5214 4.82 46.6481 4.86667 46.6748 4.96C46.7414 5.06667 46.7814 5.17333 46.7948 5.28ZM58.7698 15.24C57.2898 15.24 56.2031 14.8133 55.5098 13.96C54.8298 13.1067 54.4898 11.7533 54.4898 9.9C54.4898 8.03333 54.8231 6.68667 55.4898 5.86C56.1698 5.00667 57.2631 4.58 58.7698 4.58C60.2631 4.58 61.3498 5.00667 62.0298 5.86C62.7098 6.7 63.0498 8.04667 63.0498 9.9C63.0498 11.7667 62.7164 13.12 62.0498 13.96C61.3564 14.8133 60.2631 15.24 58.7698 15.24ZM61.0098 9.9C61.0098 9.08667 60.9698 8.48667 60.8898 8.1C60.8098 7.59333 60.6764 7.21333 60.4898 6.96C60.3164 6.66667 60.0831 6.46 59.7898 6.34C59.5098 6.22 59.1698 6.16 58.7698 6.16C58.4098 6.16 58.0764 6.22 57.7698 6.34C57.4898 6.46 57.2564 6.66 57.0698 6.94C56.9098 7.18 56.7764 7.56667 56.6698 8.1C56.5764 8.66 56.5298 9.26 56.5298 9.9C56.5298 10.6067 56.5698 11.2133 56.6498 11.72C56.7564 12.2267 56.8898 12.6133 57.0498 12.88C57.2498 13.1733 57.4831 13.3733 57.7498 13.48C58.0431 13.6 58.3831 13.66 58.7698 13.66C59.1831 13.66 59.5164 13.6067 59.7698 13.5C60.0498 13.3933 60.2831 13.1933 60.4698 12.9C60.6564 12.62 60.7898 12.2333 60.8698 11.74C60.9631 11.2733 61.0098 10.66 61.0098 9.9ZM72.6609 4.82C72.9809 4.82 73.1409 4.97333 73.1409 5.28V15H71.9209C71.8142 15 71.6942 14.9667 71.5609 14.9C71.4675 14.82 71.4009 14.6867 71.3609 14.5L71.2809 13.88C70.4542 14.7733 69.3942 15.22 68.1009 15.22C67.5675 15.22 67.1009 15.14 66.7009 14.98C66.2875 14.7933 65.9742 14.56 65.7609 14.28C65.5342 13.9733 65.3609 13.6067 65.2409 13.18C65.1209 12.74 65.0609 12.26 65.0609 11.74V4.82H66.6009C66.7475 4.82 66.8609 4.86 66.9409 4.94C67.0342 5.02 67.0809 5.13333 67.0809 5.28V11.58C67.0809 12.2333 67.2275 12.7267 67.5209 13.06C67.8275 13.3667 68.2542 13.52 68.8009 13.52C69.3609 13.52 69.8275 13.4133 70.2009 13.2C70.6009 12.96 70.9075 12.7333 71.1209 12.52V4.82H72.6609ZM80.2091 4.76C80.5025 4.76 80.6825 4.8 80.7491 4.88C80.8425 4.96 80.8891 5.08 80.8891 5.24V6.58C80.8358 6.56667 80.7425 6.56 80.6091 6.56H80.3491C79.8025 6.56 79.3091 6.64667 78.8691 6.82C78.4425 6.98 78.0225 7.27333 77.6091 7.7V15H76.0691C75.7491 15 75.5891 14.8467 75.5891 14.54V4.82H76.8091C76.9958 4.82 77.1225 4.85333 77.1891 4.92C77.2691 5 77.3291 5.13333 77.3691 5.32L77.4491 6.2C77.7958 5.78667 78.1891 5.45333 78.6291 5.2C79.0958 4.90667 79.6225 4.76 80.2091 4.76ZM88.7038 16.12C88.7038 16.84 88.5105 17.4133 88.1238 17.84C87.7238 18.2667 87.1038 18.48 86.2638 18.48C86.0105 18.48 85.8105 18.4733 85.6638 18.46C85.4238 18.4067 85.2572 18.36 85.1638 18.32C85.1238 18.2933 85.0572 18.2333 84.9638 18.14C84.8838 18.0467 84.8438 17.9267 84.8438 17.78V16.88C84.8972 16.88 84.9772 16.88 85.0838 16.88C85.1772 16.8933 85.2438 16.9 85.2838 16.9H85.7238C86.0705 16.9 86.3172 16.8133 86.4638 16.64C86.6105 16.48 86.6838 16.2133 86.6838 15.84V4.82H88.2238C88.5438 4.82 88.7038 4.97333 88.7038 5.28V16.12ZM87.7238 3.22C87.2972 3.22 86.9838 3.14 86.7838 2.98C86.5838 2.80667 86.4838 2.52 86.4838 2.12C86.4838 1.70667 86.5772 1.42667 86.7638 1.28C86.9505 1.10667 87.2705 1.02 87.7238 1.02C88.1638 1.02 88.4772 1.10667 88.6638 1.28C88.8638 1.44 88.9638 1.72 88.9638 2.12C88.9638 2.49333 88.8638 2.77333 88.6638 2.96C88.4505 3.13333 88.1372 3.22 87.7238 3.22ZM95.2151 15.24C93.7351 15.24 92.6484 14.8133 91.9551 13.96C91.2751 13.1067 90.9351 11.7533 90.9351 9.9C90.9351 8.03333 91.2684 6.68667 91.9351 5.86C92.6151 5.00667 93.7084 4.58 95.2151 4.58C96.7084 4.58 97.7951 5.00667 98.4751 5.86C99.1551 6.7 99.4951 8.04667 99.4951 9.9C99.4951 11.7667 99.1617 13.12 98.4951 13.96C97.8017 14.8133 96.7084 15.24 95.2151 15.24ZM97.4551 9.9C97.4551 9.08667 97.4151 8.48667 97.3351 8.1C97.2551 7.59333 97.1217 7.21333 96.9351 6.96C96.7617 6.66667 96.5284 6.46 96.2351 6.34C95.9551 6.22 95.6151 6.16 95.2151 6.16C94.8551 6.16 94.5217 6.22 94.2151 6.34C93.9351 6.46 93.7017 6.66 93.5151 6.94C93.3551 7.18 93.2217 7.56667 93.1151 8.1C93.0217 8.66 92.9751 9.26 92.9751 9.9C92.9751 10.6067 93.0151 11.2133 93.0951 11.72C93.2017 12.2267 93.3351 12.6133 93.4951 12.88C93.6951 13.1733 93.9284 13.3733 94.1951 13.48C94.4884 13.6 94.8284 13.66 95.2151 13.66C95.6284 13.66 95.9617 13.6067 96.2151 13.5C96.4951 13.3933 96.7284 13.1933 96.9151 12.9C97.1017 12.62 97.2351 12.2333 97.3151 11.74C97.4084 11.2733 97.4551 10.66 97.4551 9.9ZM109.106 4.82C109.426 4.82 109.586 4.97333 109.586 5.28V15H108.366C108.26 15 108.14 14.9667 108.006 14.9C107.913 14.82 107.846 14.6867 107.806 14.5L107.726 13.88C106.9 14.7733 105.84 15.22 104.546 15.22C104.013 15.22 103.546 15.14 103.146 14.98C102.733 14.7933 102.42 14.56 102.206 14.28C101.98 13.9733 101.806 13.6067 101.686 13.18C101.566 12.74 101.506 12.26 101.506 11.74V4.82H103.046C103.193 4.82 103.306 4.86 103.386 4.94C103.48 5.02 103.526 5.13333 103.526 5.28V11.58C103.526 12.2333 103.673 12.7267 103.966 13.06C104.273 13.3667 104.7 13.52 105.246 13.52C105.806 13.52 106.273 13.4133 106.646 13.2C107.046 12.96 107.353 12.7333 107.566 12.52V4.82H109.106ZM116.654 4.76C116.948 4.76 117.128 4.8 117.194 4.88C117.288 4.96 117.334 5.08 117.334 5.24V6.58C117.281 6.56667 117.188 6.56 117.054 6.56H116.794C116.248 6.56 115.754 6.64667 115.314 6.82C114.888 6.98 114.468 7.27333 114.054 7.7V15H112.514C112.194 15 112.034 14.8467 112.034 14.54V4.82H113.254C113.441 4.82 113.568 4.85333 113.634 4.92C113.714 5 113.774 5.13333 113.814 5.32L113.894 6.2C114.241 5.78667 114.634 5.45333 115.074 5.2C115.541 4.90667 116.068 4.76 116.654 4.76ZM119.526 15C119.206 15 119.046 14.8467 119.046 14.54V4.82H120.266C120.426 4.82 120.546 4.85333 120.626 4.92C120.733 4.97333 120.8 5.10667 120.826 5.32L120.906 5.94C121.746 5.04667 122.806 4.6 124.086 4.6C125.193 4.6 125.973 4.91333 126.426 5.54C126.893 6.16667 127.126 7.01333 127.126 8.08V15H125.586C125.466 15 125.353 14.96 125.246 14.88C125.153 14.7867 125.106 14.6733 125.106 14.54V8.24C125.106 7.54667 124.96 7.05333 124.666 6.76C124.4 6.45333 123.973 6.3 123.386 6.3C122.813 6.3 122.346 6.40667 121.986 6.62C121.613 6.83333 121.306 7.06 121.066 7.3V15H119.526ZM131.214 10.66C131.254 11.1933 131.314 11.6467 131.394 12.02C131.501 12.4067 131.654 12.7067 131.854 12.92C132.081 13.1333 132.381 13.3067 132.754 13.44C133.154 13.5467 133.634 13.6 134.194 13.6C134.581 13.6 135.054 13.5733 135.614 13.52C136.001 13.4667 136.294 13.44 136.494 13.44C136.801 13.44 136.954 13.5867 136.954 13.88V14.72C136.701 14.8133 136.268 14.9267 135.654 15.06C135.054 15.1667 134.414 15.22 133.734 15.22C133.001 15.22 132.341 15.1267 131.754 14.94C131.194 14.74 130.734 14.44 130.374 14.04C129.988 13.5733 129.714 13.0267 129.554 12.4C129.381 11.6667 129.294 10.8467 129.294 9.94C129.294 9.03333 129.381 8.21333 129.554 7.48C129.741 6.78667 130.001 6.23333 130.334 5.82C130.681 5.39333 131.121 5.08 131.654 4.88C132.174 4.68 132.781 4.58 133.474 4.58C134.314 4.58 134.948 4.68667 135.374 4.9C135.868 5.11333 136.254 5.41333 136.534 5.8C136.828 6.17333 137.021 6.60667 137.114 7.1C137.221 7.54 137.274 8.08 137.274 8.72C137.274 9.10667 137.254 9.48 137.214 9.84C137.174 10.2267 137.121 10.5 137.054 10.66H131.214ZM135.434 9.24C135.448 9.14667 135.454 9.04667 135.454 8.94V8.68C135.454 7.8 135.328 7.16 135.074 6.76C134.808 6.32 134.294 6.1 133.534 6.1C133.068 6.1 132.694 6.17333 132.414 6.32C132.121 6.46667 131.888 6.67333 131.714 6.94C131.554 7.20667 131.434 7.53333 131.354 7.92C131.288 8.28 131.241 8.72 131.214 9.24H135.434ZM140.76 5.28C140.96 6.4 141.086 7.07333 141.14 7.3C141.273 7.91333 141.413 8.48 141.56 9C141.72 9.56 141.92 10.16 142.16 10.8C142.253 11.0533 142.56 11.8133 143.08 13.08C143.573 11.92 143.986 10.6133 144.32 9.16C144.653 7.77333 144.913 6.32667 145.1 4.82H146.6C146.8 4.82 146.913 4.85333 146.94 4.92C146.993 4.98667 147.02 5.08 147.02 5.2C147.02 5.38667 147.006 5.55333 146.98 5.7C146.966 5.76667 146.946 5.86667 146.92 6C146.906 6.12 146.893 6.21333 146.88 6.28C146.653 7.64 146.366 8.88 146.02 10C145.673 11.1867 145.326 12.1933 144.98 13.02C144.566 14.0467 144.146 14.9467 143.72 15.72C143.306 16.4533 142.913 17.0133 142.54 17.4C142.126 17.8133 141.733 18.0933 141.36 18.24C140.96 18.4 140.553 18.48 140.14 18.48C139.913 18.48 139.733 18.4733 139.6 18.46C139.413 18.42 139.266 18.38 139.16 18.34C138.933 18.22 138.82 18.04 138.82 17.8V16.88C138.873 16.88 138.946 16.88 139.04 16.88C139.133 16.8933 139.2 16.9 139.24 16.9H139.58C139.913 16.9 140.2 16.86 140.44 16.78C140.706 16.6733 140.926 16.5467 141.1 16.4C141.286 16.2267 141.46 16.0133 141.62 15.76C141.913 15.24 142.086 14.9333 142.14 14.84C141.7 14.08 141.293 13.2867 140.92 12.46C140.64 11.8067 140.306 10.96 139.92 9.92C139.746 9.4 139.486 8.54 139.14 7.34C138.94 6.54 138.773 5.7 138.64 4.82H140.26C140.486 4.82 140.613 4.86667 140.64 4.96C140.706 5.06667 140.746 5.17333 140.76 5.28ZM149.569 10.34C149.516 9.67333 149.476 9.16 149.449 8.8C149.436 8.61333 149.422 8.34667 149.409 8C149.396 7.64 149.382 7.37333 149.369 7.2C149.369 7.02667 149.362 6.76667 149.349 6.42C149.349 6.07333 149.342 5.81333 149.329 5.64C149.329 5.45333 149.322 5.20667 149.309 4.9C149.309 4.59333 149.309 4.36667 149.309 4.22V1.14H150.889C151.116 1.14 151.249 1.24 151.289 1.44C151.342 1.61333 151.369 1.81333 151.369 2.04V4.24C151.369 5.64 151.349 6.72667 151.309 7.5C151.269 8.63333 151.189 9.74 151.069 10.82H150.029C149.762 10.82 149.609 10.66 149.569 10.34ZM151.689 13.84C151.689 14.2933 151.582 14.62 151.369 14.82C151.169 15.02 150.829 15.12 150.349 15.12C149.869 15.12 149.529 15.0267 149.329 14.84C149.116 14.6267 149.009 14.2933 149.009 13.84C149.009 13.4133 149.116 13.0933 149.329 12.88C149.556 12.68 149.896 12.58 150.349 12.58C150.842 12.58 151.182 12.6733 151.369 12.86C151.582 13.06 151.689 13.3867 151.689 13.84Z" fill="#0B1547" fill-opacity="0.58"/>
</svg>
