<svg width="113" height="78" viewBox="0 0 113 78" fill="none" xmlns="http://www.w3.org/2000/svg">
<path d="M91.7432 71.4362L84.5957 77.6823L60.3936 49.9889C58.9703 51.0629 57.1996 51.7008 55.2793 51.7008C50.5849 51.7008 46.7793 47.8952 46.7793 43.2008C46.7793 40.8697 47.7177 38.7579 49.2373 37.2223L22.7793 6.9469L29.9268 0.700806L91.7432 71.4362ZM41.584 33.941C39.5955 36.0508 38.2994 38.6551 37.9922 41.5602C37.1197 49.8153 44.5597 57.3689 54.6094 58.4313C57.3663 58.7226 60.0328 58.4933 62.4697 57.8395L70.8867 67.4713C66.8469 68.1441 62.4888 68.559 57.8027 68.6266C19.9695 69.1716 0.728061 45.2809 0.662109 45.1989C0.662109 45.1989 10.6779 29.5621 31.2891 22.1598L41.584 33.941ZM49.1719 18.4977C51.5354 18.3493 53.9876 18.3174 56.5283 18.4225C94.2435 19.9831 112.154 44.9108 112.154 44.9108C112.118 44.9617 104.504 55.6384 87.7568 62.65L74.1045 47.027C74.2319 46.4989 74.3275 45.9589 74.3857 45.4078C75.2527 37.2064 67.9152 29.6994 57.9648 28.5602L49.1719 18.4977Z" fill="black"/>
</svg>
