<svg width="437" height="58" viewBox="0 0 437 58" fill="none" xmlns="http://www.w3.org/2000/svg">
<mask id="path-1-inside-1_351_762" fill="white">
<path d="M0 10C0 4.47715 4.47715 0 10 0H427C432.523 0 437 4.47715 437 10V48C437 53.5229 432.523 58 427 58H10C4.47715 58 0 53.5228 0 48V10Z"/>
</mask>
<path d="M0 10C0 4.47715 4.47715 0 10 0H427C432.523 0 437 4.47715 437 10V48C437 53.5229 432.523 58 427 58H10C4.47715 58 0 53.5228 0 48V10Z" fill="#D9D9D9"/>
<path d="M0 0H437H0ZM437 48C437 54.6274 431.627 60 425 60H12C5.37258 60 0 54.6274 0 48C0 52.4183 4.47715 56 10 56H427C432.523 56 437 52.4183 437 48ZM0 58V0V58ZM437 0V58V0Z" fill="#7C7C7C" mask="url(#path-1-inside-1_351_762)"/>
<path opacity="0.5" d="M12.96 14C12.7133 14 12.59 13.8833 12.59 13.65V7.19C12.9633 7.11667 13.34 7.06333 13.72 7.03C14.1067 6.99 14.45 6.97 14.75 6.97C15.17 6.97 15.5333 7.01 15.84 7.09C16.1533 7.17 16.41 7.3 16.61 7.48C16.8167 7.66 16.9667 7.89667 17.06 8.19C17.16 8.48333 17.21 8.84333 17.21 9.27C17.21 10.0967 17.0333 10.6967 16.68 11.07C16.3333 11.4367 15.8167 11.62 15.13 11.62C14.9633 11.62 14.8033 11.6133 14.65 11.6C14.5033 11.58 14.3833 11.56 14.29 11.54V14H12.96ZM14.29 10.31C14.37 10.3233 14.4433 10.3333 14.51 10.34C14.5767 10.3467 14.64 10.35 14.7 10.35C14.8467 10.35 14.97 10.3367 15.07 10.31C15.1767 10.2767 15.2633 10.22 15.33 10.14C15.3967 10.0533 15.4467 9.94 15.48 9.8C15.5133 9.66 15.53 9.48 15.53 9.26C15.53 9.05333 15.5133 8.88333 15.48 8.75C15.4533 8.61667 15.41 8.51333 15.35 8.44C15.29 8.36 15.21 8.30667 15.11 8.28C15.0167 8.25333 14.9067 8.24 14.78 8.24C14.72 8.24 14.6367 8.24333 14.53 8.25C14.4233 8.25 14.3433 8.25333 14.29 8.26V10.31ZM19.2897 14.06C18.8097 14.06 18.4397 13.9167 18.1797 13.63C17.9264 13.3433 17.7997 12.9367 17.7997 12.41C17.7997 12.05 17.8564 11.7633 17.9697 11.55C18.0897 11.33 18.2464 11.1667 18.4397 11.06C18.633 10.9467 18.853 10.8733 19.0997 10.84C19.3464 10.8067 19.603 10.79 19.8697 10.79H20.4797V10.49C20.4797 10.2767 20.4064 10.1467 20.2597 10.1C20.113 10.0467 19.8864 10.02 19.5797 10.02C19.3064 10.02 19.0597 10.0267 18.8397 10.04C18.6264 10.0533 18.4897 10.06 18.4297 10.06C18.303 10.06 18.213 10.0267 18.1597 9.96C18.1064 9.89333 18.0797 9.81667 18.0797 9.73V9.03C18.2664 8.95 18.5164 8.87333 18.8297 8.8C19.143 8.72667 19.503 8.69 19.9097 8.69C20.6897 8.69 21.2497 8.85333 21.5897 9.18C21.9297 9.50667 22.0997 9.97333 22.0997 10.58V14H21.1397C21.0664 14 21.003 13.9967 20.9497 13.99C20.903 13.9767 20.863 13.9567 20.8297 13.93C20.7964 13.8967 20.7664 13.8533 20.7397 13.8C20.713 13.7467 20.6864 13.68 20.6597 13.6L20.5997 13.44C20.4664 13.5867 20.293 13.7267 20.0797 13.86C19.8664 13.9933 19.603 14.06 19.2897 14.06ZM20.4697 11.76H19.8297C19.6097 11.76 19.453 11.81 19.3597 11.91C19.273 12.0033 19.2297 12.1367 19.2297 12.31C19.2297 12.5167 19.2797 12.66 19.3797 12.74C19.4797 12.8133 19.623 12.85 19.8097 12.85C20.0764 12.85 20.2964 12.7833 20.4697 12.65V11.76ZM22.9855 12.74C23.2655 12.76 23.5355 12.7767 23.7955 12.79C24.0555 12.8033 24.2821 12.81 24.4755 12.81C24.7755 12.81 24.9788 12.7867 25.0855 12.74C25.1921 12.6867 25.2455 12.5833 25.2455 12.43C25.2455 12.3633 25.2355 12.31 25.2155 12.27C25.1955 12.23 25.1588 12.1933 25.1055 12.16C25.0521 12.1267 24.9788 12.0967 24.8855 12.07C24.7988 12.0433 24.6821 12.0133 24.5355 11.98C24.2555 11.9133 24.0155 11.8433 23.8155 11.77C23.6155 11.69 23.4488 11.5933 23.3155 11.48C23.1821 11.3667 23.0821 11.2233 23.0155 11.05C22.9555 10.87 22.9255 10.6433 22.9255 10.37C22.9255 10.0233 22.9721 9.74333 23.0655 9.53C23.1588 9.31 23.2888 9.13667 23.4555 9.01C23.6288 8.88333 23.8321 8.79667 24.0655 8.75C24.2988 8.70333 24.5555 8.68 24.8355 8.68C25.2288 8.68 25.5421 8.71 25.7755 8.77C26.0155 8.82333 26.1921 8.87333 26.3055 8.92C26.4255 8.97333 26.5088 9.03333 26.5555 9.1C26.6021 9.16 26.6255 9.26 26.6255 9.4V10.07C26.1855 10.0433 25.8588 10.0267 25.6455 10.02C25.4388 10.0067 25.2821 10 25.1755 10C24.9488 10 24.7755 10.02 24.6555 10.06C24.5421 10.0933 24.4855 10.18 24.4855 10.32C24.4855 10.4533 24.5388 10.5467 24.6455 10.6C24.7588 10.6533 24.9321 10.7067 25.1655 10.76C25.4455 10.8333 25.6888 10.9067 25.8955 10.98C26.1088 11.0533 26.2821 11.15 26.4155 11.27C26.5488 11.3833 26.6488 11.53 26.7155 11.71C26.7821 11.8833 26.8155 12.1067 26.8155 12.38C26.8155 12.72 26.7655 13.0033 26.6655 13.23C26.5721 13.4567 26.4388 13.6367 26.2655 13.77C26.0921 13.9033 25.8855 13.9967 25.6455 14.05C25.4055 14.1033 25.1421 14.13 24.8555 14.13C24.5155 14.13 24.2021 14.1033 23.9155 14.05C23.6355 13.9967 23.4288 13.9433 23.2955 13.89C23.1755 13.8367 23.0921 13.7733 23.0455 13.7C23.0055 13.62 22.9855 13.5233 22.9855 13.41V12.74ZM27.4093 12.74C27.6893 12.76 27.9593 12.7767 28.2193 12.79C28.4793 12.8033 28.706 12.81 28.8993 12.81C29.1993 12.81 29.4026 12.7867 29.5093 12.74C29.616 12.6867 29.6693 12.5833 29.6693 12.43C29.6693 12.3633 29.6593 12.31 29.6393 12.27C29.6193 12.23 29.5826 12.1933 29.5293 12.16C29.476 12.1267 29.4026 12.0967 29.3093 12.07C29.2226 12.0433 29.106 12.0133 28.9593 11.98C28.6793 11.9133 28.4393 11.8433 28.2393 11.77C28.0393 11.69 27.8726 11.5933 27.7393 11.48C27.606 11.3667 27.506 11.2233 27.4393 11.05C27.3793 10.87 27.3493 10.6433 27.3493 10.37C27.3493 10.0233 27.396 9.74333 27.4893 9.53C27.5826 9.31 27.7126 9.13667 27.8793 9.01C28.0526 8.88333 28.256 8.79667 28.4893 8.75C28.7226 8.70333 28.9793 8.68 29.2593 8.68C29.6526 8.68 29.966 8.71 30.1993 8.77C30.4393 8.82333 30.616 8.87333 30.7293 8.92C30.8493 8.97333 30.9326 9.03333 30.9793 9.1C31.026 9.16 31.0493 9.26 31.0493 9.4V10.07C30.6093 10.0433 30.2826 10.0267 30.0693 10.02C29.8626 10.0067 29.706 10 29.5993 10C29.3726 10 29.1993 10.02 29.0793 10.06C28.966 10.0933 28.9093 10.18 28.9093 10.32C28.9093 10.4533 28.9626 10.5467 29.0693 10.6C29.1826 10.6533 29.356 10.7067 29.5893 10.76C29.8693 10.8333 30.1126 10.9067 30.3193 10.98C30.5326 11.0533 30.706 11.15 30.8393 11.27C30.9726 11.3833 31.0726 11.53 31.1393 11.71C31.206 11.8833 31.2393 12.1067 31.2393 12.38C31.2393 12.72 31.1893 13.0033 31.0893 13.23C30.996 13.4567 30.8626 13.6367 30.6893 13.77C30.516 13.9033 30.3093 13.9967 30.0693 14.05C29.8293 14.1033 29.566 14.13 29.2793 14.13C28.9393 14.13 28.626 14.1033 28.3393 14.05C28.0593 13.9967 27.8526 13.9433 27.7193 13.89C27.5993 13.8367 27.516 13.7733 27.4693 13.7C27.4293 13.62 27.4093 13.5233 27.4093 13.41V12.74ZM33.181 14C33.041 14 32.9477 13.9667 32.901 13.9C32.8543 13.8333 32.8177 13.7633 32.791 13.69C32.531 12.9033 32.331 12.11 32.191 11.31C32.0577 10.5033 31.9443 9.67 31.851 8.81H33.151C33.391 8.81 33.5177 8.93 33.531 9.17C33.5377 9.36333 33.5477 9.59667 33.561 9.87C33.581 10.1433 33.601 10.4333 33.621 10.74C33.641 11.04 33.6677 11.3433 33.701 11.65C33.7343 11.95 33.7743 12.2267 33.821 12.48L34.531 9.29H35.441C35.5543 9.29 35.6377 9.32 35.691 9.38C35.7443 9.44 35.7843 9.52333 35.811 9.63L36.451 12.48C36.4977 12.2267 36.5377 11.9367 36.571 11.61C36.6043 11.2767 36.6343 10.94 36.661 10.6C36.6877 10.26 36.7077 9.93333 36.721 9.62C36.7343 9.3 36.7477 9.03 36.761 8.81H38.001C38.1343 8.81 38.221 8.84667 38.261 8.92C38.3077 8.98667 38.331 9.07667 38.331 9.19C38.331 9.25667 38.3243 9.33667 38.311 9.43C38.3043 9.51667 38.2943 9.61333 38.281 9.72C38.2077 10.3267 38.101 10.99 37.961 11.71C37.8277 12.4233 37.6243 13.1867 37.351 14H36.081C35.9677 14 35.8843 13.9733 35.831 13.92C35.7843 13.8667 35.751 13.7967 35.731 13.71L35.111 11.12L34.431 14H33.181ZM41.3111 14.13C40.9044 14.13 40.5544 14.08 40.2611 13.98C39.9744 13.8733 39.7378 13.71 39.5511 13.49C39.3711 13.27 39.2378 12.99 39.1511 12.65C39.0711 12.3033 39.0311 11.89 39.0311 11.41C39.0311 10.9233 39.0711 10.51 39.1511 10.17C39.2378 9.82333 39.3711 9.54 39.5511 9.32C39.7378 9.1 39.9744 8.94 40.2611 8.84C40.5544 8.74 40.9044 8.69 41.3111 8.69C41.7178 8.69 42.0644 8.74 42.3511 8.84C42.6444 8.94 42.8811 9.1 43.0611 9.32C43.2478 9.54 43.3811 9.82333 43.4611 10.17C43.5478 10.51 43.5911 10.9233 43.5911 11.41C43.5911 11.89 43.5478 12.3033 43.4611 12.65C43.3811 12.99 43.2478 13.27 43.0611 13.49C42.8811 13.71 42.6444 13.8733 42.3511 13.98C42.0644 14.08 41.7178 14.13 41.3111 14.13ZM41.9011 11.41C41.9011 11.09 41.8911 10.8367 41.8711 10.65C41.8578 10.4567 41.8278 10.31 41.7811 10.21C41.7344 10.1033 41.6744 10.0333 41.6011 10C41.5278 9.96667 41.4311 9.95 41.3111 9.95C41.1911 9.95 41.0944 9.96667 41.0211 10C40.9478 10.0333 40.8878 10.1033 40.8411 10.21C40.7944 10.31 40.7611 10.4567 40.7411 10.65C40.7278 10.8367 40.7211 11.09 40.7211 11.41C40.7211 11.7367 40.7278 11.9967 40.7411 12.19C40.7611 12.3833 40.7944 12.5333 40.8411 12.64C40.8878 12.74 40.9478 12.8067 41.0211 12.84C41.0944 12.8733 41.1911 12.89 41.3111 12.89C41.4311 12.89 41.5278 12.8733 41.6011 12.84C41.6744 12.8067 41.7344 12.74 41.7811 12.64C41.8278 12.5333 41.8578 12.3833 41.8711 12.19C41.8911 11.9967 41.9011 11.7367 41.9011 11.41ZM47.212 8.78C47.472 8.78 47.602 8.89667 47.602 9.13V10.28C47.5553 10.2733 47.512 10.27 47.472 10.27C47.432 10.27 47.3853 10.27 47.332 10.27C47.1186 10.27 46.9053 10.2867 46.692 10.32C46.4853 10.3533 46.3153 10.4267 46.182 10.54V14H44.882C44.6353 14 44.512 13.8833 44.512 13.65V8.81H45.472C45.6186 8.81 45.722 8.83667 45.782 8.89C45.842 8.93667 45.8986 9.04333 45.952 9.21L46.032 9.48C46.172 9.26 46.3453 9.09 46.552 8.97C46.7586 8.84333 46.9786 8.78 47.212 8.78ZM49.7331 14.08C49.4931 14.08 49.2731 14.0367 49.0731 13.95C48.8731 13.8567 48.7031 13.7067 48.5631 13.5C48.4231 13.2933 48.3131 13.02 48.2331 12.68C48.1531 12.34 48.1131 11.9233 48.1131 11.43C48.1131 10.4833 48.2665 9.8 48.5731 9.38C48.8865 8.95333 49.3731 8.74 50.0331 8.74C50.2465 8.74 50.4231 8.75667 50.5631 8.79C50.7031 8.82333 50.8131 8.85667 50.8931 8.89V6.82H52.1931C52.4398 6.82 52.5631 6.93667 52.5631 7.17V14H51.6031C51.4498 14 51.3431 13.9767 51.2831 13.93C51.2298 13.8767 51.1765 13.7667 51.1231 13.6L51.0631 13.43C50.9098 13.6033 50.7231 13.7567 50.5031 13.89C50.2898 14.0167 50.0331 14.08 49.7331 14.08ZM50.8931 9.97C50.8265 9.95667 50.7565 9.94667 50.6831 9.94C50.6098 9.93333 50.5465 9.93 50.4931 9.93C50.3331 9.93 50.2065 9.95667 50.1131 10.01C50.0265 10.0633 49.9598 10.1467 49.9131 10.26C49.8665 10.3667 49.8365 10.5067 49.8231 10.68C49.8098 10.8467 49.8031 11.0467 49.8031 11.28C49.8031 11.5667 49.8098 11.8033 49.8231 11.99C49.8365 12.1767 49.8631 12.3267 49.9031 12.44C49.9431 12.5467 49.9998 12.6233 50.0731 12.67C50.1465 12.7167 50.2431 12.74 50.3631 12.74C50.4765 12.74 50.5765 12.7233 50.6631 12.69C50.7498 12.6567 50.8265 12.6167 50.8931 12.57V9.97Z" fill="black"/>
<path d="M414.155 34.8643L412.81 36L408.249 30.9619C407.981 31.1571 407.649 31.2754 407.287 31.2754C406.403 31.2753 405.687 30.583 405.687 29.7295C405.687 29.3054 405.863 28.9209 406.149 28.6416L401.166 23.1357L402.512 22L414.155 34.8643ZM404.709 28.0469C404.334 28.4305 404.088 28.9024 404.03 29.4307C403.866 30.9319 405.267 32.3057 407.16 32.499C407.679 32.552 408.18 32.5072 408.639 32.3887L410.226 34.1416C409.465 34.2639 408.644 34.3403 407.762 34.3525C400.651 34.4512 397.027 30.1251 397 30.0928C397.011 30.0765 398.898 27.2456 402.77 25.9033L404.709 28.0469ZM407.522 25.2227C414.604 25.5057 417.979 30.0121 418 30.04C417.998 30.0426 416.564 31.9874 413.403 33.2646L410.832 30.4248C410.856 30.3289 410.875 30.2309 410.886 30.1309C411.049 28.6397 409.667 27.2751 407.794 27.0674L406.138 25.2373C406.583 25.2104 407.044 25.2036 407.522 25.2227Z" fill="#4A4949"/>
</svg>
