<svg width="108" height="68" viewBox="0 0 108 68" fill="none" xmlns="http://www.w3.org/2000/svg">
<rect x="4.15039" y="0.732147" width="103.94" height="61.5031" rx="6" transform="rotate(2.95843 4.15039 0.732147)" fill="url(#paint0_linear_265_830)"/>
<rect x="9.9043" y="33.2443" width="73.0054" height="8.66166" rx="3" transform="rotate(2.95843 9.9043 33.2443)" fill="#D9D9D9"/>
<rect x="11.3096" y="6.05826" width="22.2728" height="8.66166" rx="3" transform="rotate(2.95843 11.3096 6.05826)" fill="#D9D9D9"/>
<rect x="85.748" y="52.6474" width="10.6879" height="7.53715" rx="2" transform="rotate(2.95843 85.748 52.6474)" fill="#F8B007"/>
<rect x="11.9717" y="17.2438" width="17.3233" height="11.9338" rx="1" transform="rotate(2.95843 11.9717 17.2438)" fill="#FFD700"/>
<path d="M16.6989 19.9063L20.1503 17.9962C20.4839 17.8116 20.8935 17.8328 21.2063 18.0508L24.4424 20.3065C24.0406 22.9803 23.9411 24.5509 24.0704 27.5039L20.6066 29.334C20.2818 29.5056 19.8891 29.4853 19.5837 29.2811L16.327 27.1038C16.6987 24.3047 16.7841 22.729 16.6989 19.9063Z" fill="#FFD700"/>
<path d="M16.6989 19.9063L20.1503 17.9962C20.4839 17.8116 20.8935 17.8328 21.2063 18.0508L24.4424 20.3065M16.6989 19.9063C16.7841 22.729 16.6987 24.3047 16.327 27.1038M16.6989 19.9063L11.847 19.6556M16.327 27.1038L19.5837 29.2811C19.8891 29.4853 20.2818 29.5056 20.6066 29.334L24.0704 27.5039M16.327 27.1038L11.4751 26.853M24.0704 27.5039C23.9411 24.5509 24.0406 22.9803 24.4424 20.3065M24.0704 27.5039L28.7753 27.7471M24.4424 20.3065L29.1473 20.5497" stroke="black" stroke-width="0.5"/>
<defs>
<linearGradient id="paint0_linear_265_830" x1="52.6468" y1="-20.3719" x2="56.4447" y2="112.895" gradientUnits="userSpaceOnUse">
<stop offset="0.198063" stop-color="#60D4FF"/>
<stop offset="0.818528" stop-color="#0035A8"/>
</linearGradient>
</defs>
</svg>
