<svg width="437" height="38" viewBox="0 0 437 38" fill="none" xmlns="http://www.w3.org/2000/svg">
<path opacity="0.38" d="M215.842 18.234C215.11 18.234 214.48 18.144 213.952 17.964C213.436 17.772 213.01 17.478 212.674 17.082C212.35 16.686 212.11 16.182 211.954 15.57C211.81 14.946 211.738 14.202 211.738 13.338C211.738 12.462 211.81 11.718 211.954 11.106C212.11 10.482 212.35 9.972 212.674 9.576C213.01 9.18 213.436 8.892 213.952 8.712C214.48 8.532 215.11 8.442 215.842 8.442C216.574 8.442 217.198 8.532 217.714 8.712C218.242 8.892 218.668 9.18 218.992 9.576C219.328 9.972 219.568 10.482 219.712 11.106C219.868 11.718 219.946 12.462 219.946 13.338C219.946 14.202 219.868 14.946 219.712 15.57C219.568 16.182 219.328 16.686 218.992 17.082C218.668 17.478 218.242 17.772 217.714 17.964C217.198 18.144 216.574 18.234 215.842 18.234ZM216.904 13.338C216.904 12.762 216.886 12.306 216.85 11.97C216.826 11.622 216.772 11.358 216.688 11.178C216.604 10.986 216.496 10.86 216.364 10.8C216.232 10.74 216.058 10.71 215.842 10.71C215.626 10.71 215.452 10.74 215.32 10.8C215.188 10.86 215.08 10.986 214.996 11.178C214.912 11.358 214.852 11.622 214.816 11.97C214.792 12.306 214.78 12.762 214.78 13.338C214.78 13.926 214.792 14.394 214.816 14.742C214.852 15.09 214.912 15.36 214.996 15.552C215.08 15.732 215.188 15.852 215.32 15.912C215.452 15.972 215.626 16.002 215.842 16.002C216.058 16.002 216.232 15.972 216.364 15.912C216.496 15.852 216.604 15.732 216.688 15.552C216.772 15.36 216.826 15.09 216.85 14.742C216.886 14.394 216.904 13.926 216.904 13.338ZM226.464 8.604C226.932 8.604 227.166 8.814 227.166 9.234V11.304C227.082 11.292 227.004 11.286 226.932 11.286C226.86 11.286 226.776 11.286 226.68 11.286C226.296 11.286 225.912 11.316 225.528 11.376C225.156 11.436 224.85 11.568 224.61 11.772V18H222.27C221.826 18 221.604 17.79 221.604 17.37V8.658H223.332C223.596 8.658 223.782 8.706 223.89 8.802C223.998 8.886 224.1 9.078 224.196 9.378L224.34 9.864C224.592 9.468 224.904 9.162 225.276 8.946C225.648 8.718 226.044 8.604 226.464 8.604Z" fill="black" fill-opacity="0.56"/>
<line x1="0.00249997" y1="12.5" x2="201.002" y2="13.505" stroke="#404040"/>
<line x1="236.002" y1="13.5" x2="437.002" y2="14.505" stroke="#404040"/>
</svg>
