<svg width="437" height="59" viewBox="0 0 437 59" fill="none" xmlns="http://www.w3.org/2000/svg">
<path d="M0 10C0 4.47715 4.47715 0 10 0H427C432.523 0 437 4.47715 437 10V48C437 53.5229 432.523 58 427 58H10C4.47715 58 0 53.5228 0 48V10Z" fill="#D9D9D9"/>
<path d="M0 0H437H0ZM437 48C437 54.0751 432.075 59 426 59H11C4.92487 59 0 54.0751 0 48C0 52.9706 4.47715 57 10 57H427C432.523 57 437 52.9706 437 48ZM0 58V0V58ZM437 0V58V0Z" fill="#7C7C7C"/>
<path opacity="0.5" d="M17.42 14.41C17.42 14.83 17.39 15.21 17.33 15.55C17.27 15.8833 17.15 16.17 16.97 16.41C16.7967 16.6433 16.5533 16.8233 16.24 16.95C15.9333 17.07 15.53 17.13 15.03 17.13C14.61 17.13 14.2433 17.0867 13.93 17C13.6167 16.92 13.3567 16.78 13.15 16.58C12.95 16.3733 12.8 16.0967 12.7 15.75C12.6 15.3967 12.55 14.95 12.55 14.41V10.07H13.93C14.1767 10.07 14.3 10.1867 14.3 10.42V14.69C14.3 14.8633 14.31 15.0167 14.33 15.15C14.35 15.2767 14.3833 15.3833 14.43 15.47C14.4833 15.5567 14.5533 15.6233 14.64 15.67C14.7333 15.71 14.8533 15.73 15 15.73C15.1533 15.73 15.2733 15.71 15.36 15.67C15.4533 15.63 15.52 15.5667 15.56 15.48C15.6067 15.3933 15.6367 15.2833 15.65 15.15C15.6633 15.0167 15.67 14.8533 15.67 14.66V10.07H17.05C17.2967 10.07 17.42 10.1867 17.42 10.42V14.41ZM18.2784 15.74C18.5584 15.76 18.8284 15.7767 19.0884 15.79C19.3484 15.8033 19.5751 15.81 19.7684 15.81C20.0684 15.81 20.2718 15.7867 20.3784 15.74C20.4851 15.6867 20.5384 15.5833 20.5384 15.43C20.5384 15.3633 20.5284 15.31 20.5084 15.27C20.4884 15.23 20.4518 15.1933 20.3984 15.16C20.3451 15.1267 20.2718 15.0967 20.1784 15.07C20.0918 15.0433 19.9751 15.0133 19.8284 14.98C19.5484 14.9133 19.3084 14.8433 19.1084 14.77C18.9084 14.69 18.7418 14.5933 18.6084 14.48C18.4751 14.3667 18.3751 14.2233 18.3084 14.05C18.2484 13.87 18.2184 13.6433 18.2184 13.37C18.2184 13.0233 18.2651 12.7433 18.3584 12.53C18.4518 12.31 18.5818 12.1367 18.7484 12.01C18.9218 11.8833 19.1251 11.7967 19.3584 11.75C19.5918 11.7033 19.8484 11.68 20.1284 11.68C20.5218 11.68 20.8351 11.71 21.0684 11.77C21.3084 11.8233 21.4851 11.8733 21.5984 11.92C21.7184 11.9733 21.8018 12.0333 21.8484 12.1C21.8951 12.16 21.9184 12.26 21.9184 12.4V13.07C21.4784 13.0433 21.1518 13.0267 20.9384 13.02C20.7318 13.0067 20.5751 13 20.4684 13C20.2418 13 20.0684 13.02 19.9484 13.06C19.8351 13.0933 19.7784 13.18 19.7784 13.32C19.7784 13.4533 19.8318 13.5467 19.9384 13.6C20.0518 13.6533 20.2251 13.7067 20.4584 13.76C20.7384 13.8333 20.9818 13.9067 21.1884 13.98C21.4018 14.0533 21.5751 14.15 21.7084 14.27C21.8418 14.3833 21.9418 14.53 22.0084 14.71C22.0751 14.8833 22.1084 15.1067 22.1084 15.38C22.1084 15.72 22.0584 16.0033 21.9584 16.23C21.8651 16.4567 21.7318 16.6367 21.5584 16.77C21.3851 16.9033 21.1784 16.9967 20.9384 17.05C20.6984 17.1033 20.4351 17.13 20.1484 17.13C19.8084 17.13 19.4951 17.1033 19.2084 17.05C18.9284 16.9967 18.7218 16.9433 18.5884 16.89C18.4684 16.8367 18.3851 16.7733 18.3384 16.7C18.2984 16.62 18.2784 16.5233 18.2784 16.41V15.74ZM26.9502 16.8C26.7768 16.8733 26.5368 16.9467 26.2302 17.02C25.9302 17.0933 25.5568 17.13 25.1102 17.13C24.7168 17.13 24.3768 17.08 24.0902 16.98C23.8035 16.88 23.5635 16.72 23.3702 16.5C23.1835 16.28 23.0435 16 22.9502 15.66C22.8635 15.3133 22.8202 14.8967 22.8202 14.41C22.8202 13.4433 23.0002 12.75 23.3602 12.33C23.7268 11.9033 24.2968 11.69 25.0702 11.69C25.4768 11.69 25.8068 11.7467 26.0602 11.86C26.3202 11.9733 26.5235 12.13 26.6702 12.33C26.8168 12.5233 26.9168 12.7567 26.9702 13.03C27.0235 13.2967 27.0502 13.5867 27.0502 13.9C27.0502 13.9667 27.0468 14.05 27.0402 14.15C27.0335 14.25 27.0202 14.35 27.0002 14.45C26.9868 14.55 26.9702 14.6467 26.9502 14.74C26.9302 14.8267 26.9102 14.8933 26.8902 14.94H24.3702C24.3702 15.28 24.4502 15.5167 24.6102 15.65C24.7768 15.7833 25.0368 15.85 25.3902 15.85C25.7168 15.85 25.9635 15.8467 26.1302 15.84C26.3035 15.8267 26.4535 15.82 26.5802 15.82C26.7135 15.82 26.8068 15.8533 26.8602 15.92C26.9202 15.98 26.9502 16.0667 26.9502 16.18V16.8ZM25.6302 13.97C25.6302 13.5567 25.5868 13.2733 25.5002 13.12C25.4202 12.96 25.2702 12.88 25.0502 12.88C24.7835 12.88 24.6035 12.9633 24.5102 13.13C24.4235 13.2967 24.3768 13.5767 24.3702 13.97H25.6302ZM30.6592 11.78C30.9192 11.78 31.0492 11.8967 31.0492 12.13V13.28C31.0026 13.2733 30.9592 13.27 30.9192 13.27C30.8792 13.27 30.8326 13.27 30.7792 13.27C30.5659 13.27 30.3526 13.2867 30.1392 13.32C29.9326 13.3533 29.7626 13.4267 29.6292 13.54V17H28.3292C28.0826 17 27.9592 16.8833 27.9592 16.65V11.81H28.9192C29.0659 11.81 29.1692 11.8367 29.2292 11.89C29.2892 11.9367 29.3459 12.0433 29.3992 12.21L29.4792 12.48C29.6192 12.26 29.7926 12.09 29.9992 11.97C30.2059 11.8433 30.4259 11.78 30.6592 11.78ZM33.4476 17H32.1476C31.9009 17 31.7776 16.8833 31.7776 16.65V11.81H32.7376C32.8909 11.81 32.9942 11.8367 33.0476 11.89C33.1076 11.9367 33.1642 12.0433 33.2176 12.21L33.2776 12.39C33.5109 12.1367 33.7376 11.9567 33.9576 11.85C34.1842 11.7433 34.4476 11.69 34.7476 11.69C35.6942 11.69 36.1676 12.2767 36.1676 13.45V17H34.8676C34.6209 17 34.4976 16.8833 34.4976 16.65V13.62C34.4976 13.4467 34.4642 13.32 34.3976 13.24C34.3309 13.1533 34.2076 13.11 34.0276 13.11C33.9276 13.11 33.8242 13.1267 33.7176 13.16C33.6109 13.1933 33.5209 13.2433 33.4476 13.31V17ZM38.4889 17.06C38.0089 17.06 37.6389 16.9167 37.3789 16.63C37.1256 16.3433 36.9989 15.9367 36.9989 15.41C36.9989 15.05 37.0556 14.7633 37.1689 14.55C37.2889 14.33 37.4456 14.1667 37.6389 14.06C37.8322 13.9467 38.0522 13.8733 38.2989 13.84C38.5456 13.8067 38.8022 13.79 39.0689 13.79H39.6789V13.49C39.6789 13.2767 39.6056 13.1467 39.4589 13.1C39.3122 13.0467 39.0856 13.02 38.7789 13.02C38.5056 13.02 38.2589 13.0267 38.0389 13.04C37.8256 13.0533 37.6889 13.06 37.6289 13.06C37.5022 13.06 37.4122 13.0267 37.3589 12.96C37.3056 12.8933 37.2789 12.8167 37.2789 12.73V12.03C37.4656 11.95 37.7156 11.8733 38.0289 11.8C38.3422 11.7267 38.7022 11.69 39.1089 11.69C39.8889 11.69 40.4489 11.8533 40.7889 12.18C41.1289 12.5067 41.2989 12.9733 41.2989 13.58V17H40.3389C40.2656 17 40.2022 16.9967 40.1489 16.99C40.1022 16.9767 40.0622 16.9567 40.0289 16.93C39.9956 16.8967 39.9656 16.8533 39.9389 16.8C39.9122 16.7467 39.8856 16.68 39.8589 16.6L39.7989 16.44C39.6656 16.5867 39.4922 16.7267 39.2789 16.86C39.0656 16.9933 38.8022 17.06 38.4889 17.06ZM39.6689 14.76H39.0289C38.8089 14.76 38.6522 14.81 38.5589 14.91C38.4722 15.0033 38.4289 15.1367 38.4289 15.31C38.4289 15.5167 38.4789 15.66 38.5789 15.74C38.6789 15.8133 38.8222 15.85 39.0089 15.85C39.2756 15.85 39.4956 15.7833 39.6689 15.65V14.76ZM46.6547 17H45.3547C45.108 17 44.9847 16.8833 44.9847 16.65V13.62C44.9847 13.4467 44.9514 13.32 44.8847 13.24C44.8247 13.1533 44.708 13.11 44.5347 13.11C44.4414 13.11 44.3447 13.1267 44.2447 13.16C44.1514 13.1867 44.0647 13.2333 43.9847 13.3V17H42.6847C42.438 17 42.3147 16.8833 42.3147 16.65V11.81H43.2747C43.428 11.81 43.5314 11.8367 43.5847 11.89C43.6447 11.9367 43.7014 12.0433 43.7547 12.21L43.8147 12.39C44.048 12.1367 44.2747 11.9567 44.4947 11.85C44.7147 11.7433 44.9714 11.69 45.2647 11.69C45.5447 11.69 45.7847 11.7467 45.9847 11.86C46.1914 11.9667 46.3514 12.1433 46.4647 12.39C46.658 12.1633 46.8747 11.99 47.1147 11.87C47.3547 11.75 47.6247 11.69 47.9247 11.69C48.858 11.69 49.3247 12.2767 49.3247 13.45V17H48.0247C47.778 17 47.6547 16.8833 47.6547 16.65V13.62C47.6547 13.4467 47.6214 13.32 47.5547 13.24C47.4947 13.1533 47.378 13.11 47.2047 13.11C47.1114 13.11 47.0147 13.1267 46.9147 13.16C46.8214 13.1867 46.7347 13.2333 46.6547 13.3V17ZM54.372 16.8C54.1987 16.8733 53.9587 16.9467 53.652 17.02C53.352 17.0933 52.9787 17.13 52.532 17.13C52.1387 17.13 51.7987 17.08 51.512 16.98C51.2254 16.88 50.9854 16.72 50.792 16.5C50.6054 16.28 50.4654 16 50.372 15.66C50.2854 15.3133 50.242 14.8967 50.242 14.41C50.242 13.4433 50.422 12.75 50.782 12.33C51.1487 11.9033 51.7187 11.69 52.492 11.69C52.8987 11.69 53.2287 11.7467 53.482 11.86C53.742 11.9733 53.9454 12.13 54.092 12.33C54.2387 12.5233 54.3387 12.7567 54.392 13.03C54.4454 13.2967 54.472 13.5867 54.472 13.9C54.472 13.9667 54.4687 14.05 54.462 14.15C54.4554 14.25 54.442 14.35 54.422 14.45C54.4087 14.55 54.392 14.6467 54.372 14.74C54.352 14.8267 54.332 14.8933 54.312 14.94H51.792C51.792 15.28 51.872 15.5167 52.032 15.65C52.1987 15.7833 52.4587 15.85 52.812 15.85C53.1387 15.85 53.3854 15.8467 53.552 15.84C53.7254 15.8267 53.8754 15.82 54.002 15.82C54.1354 15.82 54.2287 15.8533 54.282 15.92C54.342 15.98 54.372 16.0667 54.372 16.18V16.8ZM53.052 13.97C53.052 13.5567 53.0087 13.2733 52.922 13.12C52.842 12.96 52.692 12.88 52.472 12.88C52.2054 12.88 52.0254 12.9633 51.932 13.13C51.8454 13.2967 51.7987 13.5767 51.792 13.97H53.052ZM55.2511 17.83C55.0711 17.83 54.9811 17.7467 54.9811 17.58C54.9811 17.5667 54.9811 17.5467 54.9811 17.52C54.9878 17.5 54.9978 17.4633 55.0111 17.41L57.2311 9.32H58.4811C58.6611 9.32 58.7511 9.40333 58.7511 9.57C58.7511 9.58333 58.7478 9.60333 58.7411 9.63C58.7411 9.65 58.7344 9.68667 58.7211 9.74L56.5011 17.83H55.2511ZM62.8681 16.8C62.6948 16.8733 62.4548 16.9467 62.1481 17.02C61.8481 17.0933 61.4748 17.13 61.0281 17.13C60.6348 17.13 60.2948 17.08 60.0081 16.98C59.7215 16.88 59.4815 16.72 59.2881 16.5C59.1015 16.28 58.9615 16 58.8681 15.66C58.7815 15.3133 58.7381 14.8967 58.7381 14.41C58.7381 13.4433 58.9181 12.75 59.2781 12.33C59.6448 11.9033 60.2148 11.69 60.9881 11.69C61.3948 11.69 61.7248 11.7467 61.9781 11.86C62.2381 11.9733 62.4415 12.13 62.5881 12.33C62.7348 12.5233 62.8348 12.7567 62.8881 13.03C62.9415 13.2967 62.9681 13.5867 62.9681 13.9C62.9681 13.9667 62.9648 14.05 62.9581 14.15C62.9515 14.25 62.9381 14.35 62.9181 14.45C62.9048 14.55 62.8881 14.6467 62.8681 14.74C62.8481 14.8267 62.8281 14.8933 62.8081 14.94H60.2881C60.2881 15.28 60.3681 15.5167 60.5281 15.65C60.6948 15.7833 60.9548 15.85 61.3081 15.85C61.6348 15.85 61.8815 15.8467 62.0481 15.84C62.2215 15.8267 62.3715 15.82 62.4981 15.82C62.6315 15.82 62.7248 15.8533 62.7781 15.92C62.8381 15.98 62.8681 16.0667 62.8681 16.18V16.8ZM61.5481 13.97C61.5481 13.5567 61.5048 13.2733 61.4181 13.12C61.3381 12.96 61.1881 12.88 60.9681 12.88C60.7015 12.88 60.5215 12.9633 60.4281 13.13C60.3415 13.2967 60.2948 13.5767 60.2881 13.97H61.5481ZM68.2172 17H66.9172C66.6705 17 66.5472 16.8833 66.5472 16.65V13.62C66.5472 13.4467 66.5139 13.32 66.4472 13.24C66.3872 13.1533 66.2705 13.11 66.0972 13.11C66.0039 13.11 65.9072 13.1267 65.8072 13.16C65.7139 13.1867 65.6272 13.2333 65.5472 13.3V17H64.2472C64.0005 17 63.8772 16.8833 63.8772 16.65V11.81H64.8372C64.9905 11.81 65.0939 11.8367 65.1472 11.89C65.2072 11.9367 65.2639 12.0433 65.3172 12.21L65.3772 12.39C65.6105 12.1367 65.8372 11.9567 66.0572 11.85C66.2772 11.7433 66.5339 11.69 66.8272 11.69C67.1072 11.69 67.3472 11.7467 67.5472 11.86C67.7539 11.9667 67.9139 12.1433 68.0272 12.39C68.2205 12.1633 68.4372 11.99 68.6772 11.87C68.9172 11.75 69.1872 11.69 69.4872 11.69C70.4205 11.69 70.8872 12.2767 70.8872 13.45V17H69.5872C69.3405 17 69.2172 16.8833 69.2172 16.65V13.62C69.2172 13.4467 69.1839 13.32 69.1172 13.24C69.0572 13.1533 68.9405 13.11 68.7672 13.11C68.6739 13.11 68.5772 13.1267 68.4772 13.16C68.3839 13.1867 68.2972 13.2333 68.2172 13.3V17ZM73.2057 17.06C72.7257 17.06 72.3557 16.9167 72.0957 16.63C71.8424 16.3433 71.7157 15.9367 71.7157 15.41C71.7157 15.05 71.7724 14.7633 71.8857 14.55C72.0057 14.33 72.1624 14.1667 72.3557 14.06C72.549 13.9467 72.769 13.8733 73.0157 13.84C73.2624 13.8067 73.519 13.79 73.7857 13.79H74.3957V13.49C74.3957 13.2767 74.3224 13.1467 74.1757 13.1C74.029 13.0467 73.8024 13.02 73.4957 13.02C73.2224 13.02 72.9757 13.0267 72.7557 13.04C72.5424 13.0533 72.4057 13.06 72.3457 13.06C72.219 13.06 72.129 13.0267 72.0757 12.96C72.0224 12.8933 71.9957 12.8167 71.9957 12.73V12.03C72.1824 11.95 72.4324 11.8733 72.7457 11.8C73.059 11.7267 73.419 11.69 73.8257 11.69C74.6057 11.69 75.1657 11.8533 75.5057 12.18C75.8457 12.5067 76.0157 12.9733 76.0157 13.58V17H75.0557C74.9824 17 74.919 16.9967 74.8657 16.99C74.819 16.9767 74.779 16.9567 74.7457 16.93C74.7124 16.8967 74.6824 16.8533 74.6557 16.8C74.629 16.7467 74.6024 16.68 74.5757 16.6L74.5157 16.44C74.3824 16.5867 74.209 16.7267 73.9957 16.86C73.7824 16.9933 73.519 17.06 73.2057 17.06ZM74.3857 14.76H73.7457C73.5257 14.76 73.369 14.81 73.2757 14.91C73.189 15.0033 73.1457 15.1367 73.1457 15.31C73.1457 15.5167 73.1957 15.66 73.2957 15.74C73.3957 15.8133 73.539 15.85 73.7257 15.85C73.9924 15.85 74.2124 15.7833 74.3857 15.65V14.76ZM78.7115 17H77.4115C77.1648 17 77.0415 16.8833 77.0415 16.65V11.81H78.3415C78.5882 11.81 78.7115 11.9267 78.7115 12.16V17ZM77.8815 11.3C77.5415 11.3 77.2982 11.2433 77.1515 11.13C77.0115 11.01 76.9415 10.8133 76.9415 10.54C76.9415 10.2667 77.0115 10.0733 77.1515 9.96C77.2982 9.84 77.5415 9.78 77.8815 9.78C78.2215 9.78 78.4615 9.84 78.6015 9.96C78.7482 10.0733 78.8215 10.2667 78.8215 10.54C78.8215 10.8133 78.7482 11.01 78.6015 11.13C78.4615 11.2433 78.2215 11.3 77.8815 11.3ZM81.4163 15.42C81.4163 15.5533 81.4363 15.65 81.4763 15.71C81.5163 15.7633 81.603 15.7967 81.7363 15.81C81.8697 15.8233 81.9497 15.86 81.9763 15.92C82.003 15.98 82.0163 16.0733 82.0163 16.2V16.94C81.843 16.9933 81.693 17.0333 81.5663 17.06C81.4397 17.0867 81.2763 17.1 81.0763 17.1C80.8763 17.1 80.693 17.0733 80.5263 17.02C80.3663 16.9733 80.2263 16.89 80.1063 16.77C79.993 16.6433 79.903 16.4733 79.8363 16.26C79.7763 16.0467 79.7463 15.78 79.7463 15.46V9.82H81.0463C81.293 9.82 81.4163 9.93667 81.4163 10.17V15.42Z" fill="black"/>
</svg>
