<svg width="244" height="18" viewBox="0 0 244 18" fill="none" xmlns="http://www.w3.org/2000/svg">
<g opacity="0.38">
<path d="M6.4066 9.94H3.8866C3.8146 10.492 3.7486 11.038 3.6886 11.578C3.6286 12.118 3.5866 12.592 3.5626 13H1.1506C0.982602 13 0.844602 12.946 0.736602 12.838C0.640602 12.73 0.592602 12.55 0.592602 12.298C0.592602 12.19 0.598602 12.076 0.610602 11.956C0.622602 11.836 0.640602 11.722 0.664602 11.614C0.988602 9.646 1.3546 7.756 1.7626 5.944C2.1706 4.132 2.6866 2.326 3.3106 0.526H6.5686C6.8086 0.526 6.9766 0.586 7.0726 0.705999C7.1686 0.825999 7.2406 0.951999 7.2886 1.084C7.8286 2.692 8.3206 4.516 8.7646 6.556C9.2086 8.584 9.6046 10.732 9.9526 13H7.3606C6.9766 13 6.7546 12.784 6.6946 12.352L6.4066 9.94ZM5.1466 2.83C4.8946 3.838 4.6906 4.732 4.5346 5.512C4.3906 6.28 4.2526 7.012 4.1206 7.708H6.1726C6.0406 7.012 5.8966 6.28 5.7406 5.512C5.5966 4.732 5.3986 3.838 5.1466 2.83ZM14.1886 10.156C14.1886 10.396 14.2246 10.57 14.2966 10.678C14.3686 10.774 14.5246 10.834 14.7646 10.858C15.0046 10.882 15.1486 10.948 15.1966 11.056C15.2446 11.164 15.2686 11.332 15.2686 11.56V12.892C14.9566 12.988 14.6866 13.06 14.4586 13.108C14.2306 13.156 13.9366 13.18 13.5766 13.18C13.2166 13.18 12.8866 13.132 12.5866 13.036C12.2986 12.952 12.0466 12.802 11.8306 12.586C11.6266 12.358 11.4646 12.052 11.3446 11.668C11.2366 11.284 11.1826 10.804 11.1826 10.228V0.075999H13.5226C13.9666 0.075999 14.1886 0.285999 14.1886 0.705999V10.156ZM21.4391 3.604C21.9071 3.604 22.1411 3.814 22.1411 4.234V6.304C22.0571 6.292 21.9791 6.286 21.9071 6.286C21.8351 6.286 21.7511 6.286 21.6551 6.286C21.2711 6.286 20.8871 6.316 20.5031 6.376C20.1311 6.436 19.8251 6.568 19.5851 6.772V13H17.2451C16.8011 13 16.5791 12.79 16.5791 12.37V3.658H18.3071C18.5711 3.658 18.7571 3.706 18.8651 3.802C18.9731 3.886 19.0751 4.078 19.1711 4.378L19.3151 4.864C19.5671 4.468 19.8791 4.162 20.2511 3.946C20.6231 3.718 21.0191 3.604 21.4391 3.604ZM30.4952 12.64C30.1832 12.772 29.7512 12.904 29.1992 13.036C28.6592 13.168 27.9872 13.234 27.1832 13.234C26.4752 13.234 25.8632 13.144 25.3472 12.964C24.8312 12.784 24.3992 12.496 24.0512 12.1C23.7152 11.704 23.4632 11.2 23.2952 10.588C23.1392 9.964 23.0612 9.214 23.0612 8.338C23.0612 6.598 23.3852 5.35 24.0332 4.594C24.6932 3.826 25.7192 3.442 27.1112 3.442C27.8432 3.442 28.4372 3.544 28.8932 3.748C29.3612 3.952 29.7272 4.234 29.9912 4.594C30.2552 4.942 30.4352 5.362 30.5312 5.854C30.6272 6.334 30.6752 6.856 30.6752 7.42C30.6752 7.54 30.6692 7.69 30.6572 7.87C30.6452 8.05 30.6212 8.23 30.5852 8.41C30.5612 8.59 30.5312 8.764 30.4952 8.932C30.4592 9.088 30.4232 9.208 30.3872 9.292H25.8512C25.8512 9.904 25.9952 10.33 26.2832 10.57C26.5832 10.81 27.0512 10.93 27.6872 10.93C28.2752 10.93 28.7192 10.924 29.0192 10.912C29.3312 10.888 29.6012 10.876 29.8292 10.876C30.0692 10.876 30.2372 10.936 30.3332 11.056C30.4412 11.164 30.4952 11.32 30.4952 11.524V12.64ZM28.1192 7.546C28.1192 6.802 28.0412 6.292 27.8852 6.016C27.7412 5.728 27.4712 5.584 27.0752 5.584C26.5952 5.584 26.2712 5.734 26.1032 6.034C25.9472 6.334 25.8632 6.838 25.8512 7.546H28.1192ZM34.5482 13.108C33.6842 13.108 33.0182 12.85 32.5502 12.334C32.0942 11.818 31.8662 11.086 31.8662 10.138C31.8662 9.49 31.9682 8.974 32.1722 8.59C32.3882 8.194 32.6702 7.9 33.0182 7.708C33.3662 7.504 33.7622 7.372 34.2062 7.312C34.6502 7.252 35.1122 7.222 35.5922 7.222H36.6902V6.682C36.6902 6.298 36.5582 6.064 36.2942 5.98C36.0302 5.884 35.6222 5.836 35.0702 5.836C34.5782 5.836 34.1342 5.848 33.7382 5.872C33.3542 5.896 33.1082 5.908 33.0002 5.908C32.7722 5.908 32.6102 5.848 32.5142 5.728C32.4182 5.608 32.3702 5.47 32.3702 5.314V4.054C32.7062 3.91 33.1562 3.772 33.7202 3.64C34.2842 3.508 34.9322 3.442 35.6642 3.442C37.0682 3.442 38.0762 3.736 38.6882 4.324C39.3002 4.912 39.6062 5.752 39.6062 6.844V13H37.8782C37.7462 13 37.6322 12.994 37.5362 12.982C37.4522 12.958 37.3802 12.922 37.3202 12.874C37.2602 12.814 37.2062 12.736 37.1582 12.64C37.1102 12.544 37.0622 12.424 37.0142 12.28L36.9062 11.992C36.6662 12.256 36.3542 12.508 35.9702 12.748C35.5862 12.988 35.1122 13.108 34.5482 13.108ZM36.6722 8.968H35.5202C35.1242 8.968 34.8422 9.058 34.6742 9.238C34.5182 9.406 34.4402 9.646 34.4402 9.958C34.4402 10.33 34.5302 10.588 34.7102 10.732C34.8902 10.864 35.1482 10.93 35.4842 10.93C35.9642 10.93 36.3602 10.81 36.6722 10.57V8.968ZM44.1706 13.144C43.7386 13.144 43.3426 13.066 42.9826 12.91C42.6226 12.742 42.3166 12.472 42.0646 12.1C41.8126 11.728 41.6146 11.236 41.4706 10.624C41.3266 10.012 41.2546 9.262 41.2546 8.374C41.2546 6.67 41.5306 5.44 42.0826 4.684C42.6466 3.916 43.5226 3.532 44.7106 3.532C45.0946 3.532 45.4126 3.562 45.6646 3.622C45.9166 3.682 46.1146 3.742 46.2586 3.802V0.075999H48.5986C49.0426 0.075999 49.2646 0.285999 49.2646 0.705999V13H47.5366C47.2606 13 47.0686 12.958 46.9606 12.874C46.8646 12.778 46.7686 12.58 46.6726 12.28L46.5646 11.974C46.2886 12.286 45.9526 12.562 45.5566 12.802C45.1726 13.03 44.7106 13.144 44.1706 13.144ZM46.2586 5.746C46.1386 5.722 46.0126 5.704 45.8806 5.692C45.7486 5.68 45.6346 5.674 45.5386 5.674C45.2506 5.674 45.0226 5.722 44.8546 5.818C44.6986 5.914 44.5786 6.064 44.4946 6.268C44.4106 6.46 44.3566 6.712 44.3326 7.024C44.3086 7.324 44.2966 7.684 44.2966 8.104C44.2966 8.62 44.3086 9.046 44.3326 9.382C44.3566 9.718 44.4046 9.988 44.4766 10.192C44.5486 10.384 44.6506 10.522 44.7826 10.606C44.9146 10.69 45.0886 10.732 45.3046 10.732C45.5086 10.732 45.6886 10.702 45.8446 10.642C46.0006 10.582 46.1386 10.51 46.2586 10.426V5.746ZM53.8206 4.306C53.8926 4.846 53.9586 5.362 54.0186 5.854C54.0906 6.346 54.1686 6.832 54.2526 7.312C54.3366 7.78 54.4326 8.254 54.5406 8.734C54.6486 9.214 54.7746 9.712 54.9186 10.228C55.0386 9.748 55.1526 9.238 55.2606 8.698C55.3686 8.158 55.4646 7.606 55.5486 7.042C55.6446 6.478 55.7286 5.908 55.8006 5.332C55.8726 4.756 55.9386 4.198 55.9986 3.658H58.2846C58.4646 3.658 58.6086 3.706 58.7166 3.802C58.8246 3.886 58.8786 4.036 58.8786 4.252C58.8786 4.384 58.8606 4.546 58.8246 4.738C58.7886 4.918 58.7526 5.104 58.7166 5.296C58.6326 5.728 58.5366 6.202 58.4286 6.718C58.3206 7.234 58.1946 7.768 58.0506 8.32C57.9186 8.86 57.7686 9.412 57.6006 9.976C57.4326 10.528 57.2466 11.062 57.0426 11.578C56.7666 12.286 56.4786 12.922 56.1786 13.486C55.8786 14.05 55.5486 14.53 55.1886 14.926C54.8406 15.322 54.4506 15.622 54.0186 15.826C53.5986 16.042 53.1186 16.15 52.5786 16.15C52.3746 16.15 52.1586 16.138 51.9306 16.114C51.7026 16.09 51.5046 16.048 51.3366 15.988C51.1446 15.928 51.0066 15.838 50.9226 15.718C50.8386 15.61 50.7966 15.448 50.7966 15.232V13.792C50.9046 13.804 51.0366 13.81 51.1926 13.81C51.3486 13.822 51.4986 13.828 51.6426 13.828C51.9426 13.828 52.1886 13.81 52.3806 13.774C52.5846 13.738 52.7526 13.684 52.8846 13.612C53.0286 13.54 53.1426 13.45 53.2266 13.342C53.3226 13.246 53.4066 13.132 53.4786 13L53.5866 12.802C53.1666 12.106 52.7946 11.386 52.4706 10.642C52.1586 9.886 51.8826 9.124 51.6426 8.356C51.4146 7.576 51.2166 6.796 51.0486 6.016C50.8926 5.224 50.7606 4.438 50.6526 3.658H53.1546C53.5386 3.658 53.7606 3.874 53.8206 4.306ZM69.356 13C68.912 13 68.69 12.79 68.69 12.37V6.916C68.69 6.604 68.63 6.376 68.51 6.232C68.39 6.076 68.168 5.998 67.844 5.998C67.664 5.998 67.478 6.028 67.286 6.088C67.094 6.148 66.932 6.238 66.8 6.358V13H64.46C64.016 13 63.794 12.79 63.794 12.37V0.075999H66.134C66.578 0.075999 66.8 0.285999 66.8 0.705999V4.504C67.448 3.796 68.222 3.442 69.122 3.442C70.838 3.442 71.696 4.498 71.696 6.61V13H69.356ZM75.9623 13.108C75.0983 13.108 74.4323 12.85 73.9643 12.334C73.5083 11.818 73.2803 11.086 73.2803 10.138C73.2803 9.49 73.3823 8.974 73.5863 8.59C73.8023 8.194 74.0843 7.9 74.4323 7.708C74.7803 7.504 75.1763 7.372 75.6203 7.312C76.0643 7.252 76.5263 7.222 77.0063 7.222H78.1043V6.682C78.1043 6.298 77.9723 6.064 77.7083 5.98C77.4443 5.884 77.0363 5.836 76.4843 5.836C75.9923 5.836 75.5483 5.848 75.1523 5.872C74.7683 5.896 74.5223 5.908 74.4143 5.908C74.1863 5.908 74.0243 5.848 73.9283 5.728C73.8323 5.608 73.7843 5.47 73.7843 5.314V4.054C74.1203 3.91 74.5703 3.772 75.1343 3.64C75.6983 3.508 76.3463 3.442 77.0783 3.442C78.4823 3.442 79.4903 3.736 80.1023 4.324C80.7143 4.912 81.0203 5.752 81.0203 6.844V13H79.2923C79.1603 13 79.0463 12.994 78.9503 12.982C78.8663 12.958 78.7943 12.922 78.7343 12.874C78.6743 12.814 78.6203 12.736 78.5723 12.64C78.5243 12.544 78.4763 12.424 78.4283 12.28L78.3203 11.992C78.0803 12.256 77.7683 12.508 77.3843 12.748C77.0003 12.988 76.5263 13.108 75.9623 13.108ZM78.0863 8.968H76.9343C76.5383 8.968 76.2563 9.058 76.0883 9.238C75.9323 9.406 75.8543 9.646 75.8543 9.958C75.8543 10.33 75.9443 10.588 76.1243 10.732C76.3043 10.864 76.5623 10.93 76.8983 10.93C77.3783 10.93 77.7743 10.81 78.0863 10.57V8.968ZM85.354 13C85.102 13 84.922 12.946 84.814 12.838C84.718 12.718 84.64 12.592 84.58 12.46C83.944 11.008 83.452 9.556 83.104 8.104C82.756 6.64 82.48 5.158 82.276 3.658H84.76C84.964 3.658 85.114 3.718 85.21 3.838C85.318 3.946 85.39 4.102 85.426 4.306C85.462 4.714 85.51 5.188 85.57 5.728C85.63 6.268 85.702 6.82 85.786 7.384C85.87 7.948 85.966 8.506 86.074 9.058C86.194 9.598 86.32 10.078 86.452 10.498C86.584 10.078 86.71 9.568 86.83 8.968C86.95 8.356 87.058 7.726 87.154 7.078C87.25 6.43 87.328 5.806 87.388 5.206C87.46 4.594 87.514 4.078 87.55 3.658H89.854C90.022 3.658 90.16 3.706 90.268 3.802C90.376 3.886 90.43 4.036 90.43 4.252C90.43 4.36 90.418 4.498 90.394 4.666C90.37 4.822 90.34 5.02 90.304 5.26C90.208 5.872 90.094 6.484 89.962 7.096C89.83 7.708 89.674 8.332 89.494 8.968C89.314 9.604 89.104 10.258 88.864 10.93C88.624 11.59 88.342 12.28 88.018 13H85.354ZM98.9796 12.64C98.6676 12.772 98.2356 12.904 97.6836 13.036C97.1436 13.168 96.4716 13.234 95.6676 13.234C94.9596 13.234 94.3476 13.144 93.8316 12.964C93.3156 12.784 92.8836 12.496 92.5356 12.1C92.1996 11.704 91.9476 11.2 91.7796 10.588C91.6236 9.964 91.5456 9.214 91.5456 8.338C91.5456 6.598 91.8696 5.35 92.5176 4.594C93.1776 3.826 94.2036 3.442 95.5956 3.442C96.3276 3.442 96.9216 3.544 97.3776 3.748C97.8456 3.952 98.2116 4.234 98.4756 4.594C98.7396 4.942 98.9196 5.362 99.0156 5.854C99.1116 6.334 99.1596 6.856 99.1596 7.42C99.1596 7.54 99.1536 7.69 99.1416 7.87C99.1296 8.05 99.1056 8.23 99.0696 8.41C99.0456 8.59 99.0156 8.764 98.9796 8.932C98.9436 9.088 98.9076 9.208 98.8716 9.292H94.3356C94.3356 9.904 94.4796 10.33 94.7676 10.57C95.0676 10.81 95.5356 10.93 96.1716 10.93C96.7596 10.93 97.2036 10.924 97.5036 10.912C97.8156 10.888 98.0856 10.876 98.3136 10.876C98.5536 10.876 98.7216 10.936 98.8176 11.056C98.9256 11.164 98.9796 11.32 98.9796 11.524V12.64ZM96.6036 7.546C96.6036 6.802 96.5256 6.292 96.3696 6.016C96.2256 5.728 95.9556 5.584 95.5596 5.584C95.0796 5.584 94.7556 5.734 94.5876 6.034C94.4316 6.334 94.3476 6.838 94.3356 7.546H96.6036ZM106.654 13.108C105.79 13.108 105.124 12.85 104.656 12.334C104.2 11.818 103.972 11.086 103.972 10.138C103.972 9.49 104.074 8.974 104.278 8.59C104.494 8.194 104.776 7.9 105.124 7.708C105.472 7.504 105.868 7.372 106.312 7.312C106.756 7.252 107.218 7.222 107.698 7.222H108.796V6.682C108.796 6.298 108.664 6.064 108.4 5.98C108.136 5.884 107.728 5.836 107.176 5.836C106.684 5.836 106.24 5.848 105.844 5.872C105.46 5.896 105.214 5.908 105.106 5.908C104.878 5.908 104.716 5.848 104.62 5.728C104.524 5.608 104.476 5.47 104.476 5.314V4.054C104.812 3.91 105.262 3.772 105.826 3.64C106.39 3.508 107.038 3.442 107.77 3.442C109.174 3.442 110.182 3.736 110.794 4.324C111.406 4.912 111.712 5.752 111.712 6.844V13H109.984C109.852 13 109.738 12.994 109.642 12.982C109.558 12.958 109.486 12.922 109.426 12.874C109.366 12.814 109.312 12.736 109.264 12.64C109.216 12.544 109.168 12.424 109.12 12.28L109.012 11.992C108.772 12.256 108.46 12.508 108.076 12.748C107.692 12.988 107.218 13.108 106.654 13.108ZM108.778 8.968H107.626C107.23 8.968 106.948 9.058 106.78 9.238C106.624 9.406 106.546 9.646 106.546 9.958C106.546 10.33 106.636 10.588 106.816 10.732C106.996 10.864 107.254 10.93 107.59 10.93C108.07 10.93 108.466 10.81 108.778 10.57V8.968ZM116.546 13H114.206C113.762 13 113.54 12.79 113.54 12.37V3.658H115.268C115.544 3.658 115.73 3.706 115.826 3.802C115.934 3.886 116.036 4.078 116.132 4.378L116.24 4.702C116.66 4.246 117.068 3.922 117.464 3.73C117.872 3.538 118.346 3.442 118.886 3.442C120.59 3.442 121.442 4.498 121.442 6.61V13H119.102C118.658 13 118.436 12.79 118.436 12.37V6.916C118.436 6.604 118.376 6.376 118.256 6.232C118.136 6.076 117.914 5.998 117.59 5.998C117.41 5.998 117.224 6.028 117.032 6.088C116.84 6.148 116.678 6.238 116.546 6.358V13ZM129.136 13.108C128.272 13.108 127.606 12.85 127.138 12.334C126.682 11.818 126.454 11.086 126.454 10.138C126.454 9.49 126.556 8.974 126.76 8.59C126.976 8.194 127.258 7.9 127.606 7.708C127.954 7.504 128.35 7.372 128.794 7.312C129.238 7.252 129.7 7.222 130.18 7.222H131.278V6.682C131.278 6.298 131.146 6.064 130.882 5.98C130.618 5.884 130.21 5.836 129.658 5.836C129.166 5.836 128.722 5.848 128.326 5.872C127.942 5.896 127.696 5.908 127.588 5.908C127.36 5.908 127.198 5.848 127.102 5.728C127.006 5.608 126.958 5.47 126.958 5.314V4.054C127.294 3.91 127.744 3.772 128.308 3.64C128.872 3.508 129.52 3.442 130.252 3.442C131.656 3.442 132.664 3.736 133.276 4.324C133.888 4.912 134.194 5.752 134.194 6.844V13H132.466C132.334 13 132.22 12.994 132.124 12.982C132.04 12.958 131.968 12.922 131.908 12.874C131.848 12.814 131.794 12.736 131.746 12.64C131.698 12.544 131.65 12.424 131.602 12.28L131.494 11.992C131.254 12.256 130.942 12.508 130.558 12.748C130.174 12.988 129.7 13.108 129.136 13.108ZM131.26 8.968H130.108C129.712 8.968 129.43 9.058 129.262 9.238C129.106 9.406 129.028 9.646 129.028 9.958C129.028 10.33 129.118 10.588 129.298 10.732C129.478 10.864 129.736 10.93 130.072 10.93C130.552 10.93 130.948 10.81 131.26 10.57V8.968ZM142.358 12.64C142.046 12.796 141.692 12.934 141.296 13.054C140.912 13.174 140.408 13.234 139.784 13.234C138.38 13.234 137.372 12.85 136.76 12.082C136.148 11.302 135.842 10.06 135.842 8.356C135.842 6.652 136.142 5.41 136.742 4.63C137.342 3.838 138.314 3.442 139.658 3.442C140.102 3.442 140.51 3.478 140.882 3.55C141.266 3.622 141.578 3.718 141.818 3.838C142.034 3.946 142.178 4.072 142.25 4.216C142.322 4.36 142.358 4.552 142.358 4.792V5.962C141.998 5.926 141.632 5.902 141.26 5.89C140.9 5.866 140.636 5.854 140.468 5.854C140.132 5.854 139.862 5.896 139.658 5.98C139.454 6.052 139.298 6.184 139.19 6.376C139.082 6.556 139.01 6.802 138.974 7.114C138.938 7.414 138.92 7.798 138.92 8.266C138.92 8.77 138.938 9.19 138.974 9.526C139.01 9.85 139.076 10.108 139.172 10.3C139.268 10.48 139.406 10.606 139.586 10.678C139.766 10.75 139.994 10.786 140.27 10.786C140.342 10.786 140.438 10.786 140.558 10.786C140.678 10.774 140.798 10.768 140.918 10.768C141.05 10.768 141.17 10.768 141.278 10.768C141.398 10.756 141.488 10.75 141.548 10.75C141.824 10.75 142.028 10.804 142.16 10.912C142.292 11.02 142.358 11.2 142.358 11.452V12.64ZM150.005 12.64C149.693 12.796 149.339 12.934 148.943 13.054C148.559 13.174 148.055 13.234 147.431 13.234C146.027 13.234 145.019 12.85 144.407 12.082C143.795 11.302 143.489 10.06 143.489 8.356C143.489 6.652 143.789 5.41 144.389 4.63C144.989 3.838 145.961 3.442 147.305 3.442C147.749 3.442 148.157 3.478 148.529 3.55C148.913 3.622 149.225 3.718 149.465 3.838C149.681 3.946 149.825 4.072 149.897 4.216C149.969 4.36 150.005 4.552 150.005 4.792V5.962C149.645 5.926 149.279 5.902 148.907 5.89C148.547 5.866 148.283 5.854 148.115 5.854C147.779 5.854 147.509 5.896 147.305 5.98C147.101 6.052 146.945 6.184 146.837 6.376C146.729 6.556 146.657 6.802 146.621 7.114C146.585 7.414 146.567 7.798 146.567 8.266C146.567 8.77 146.585 9.19 146.621 9.526C146.657 9.85 146.723 10.108 146.819 10.3C146.915 10.48 147.053 10.606 147.233 10.678C147.413 10.75 147.641 10.786 147.917 10.786C147.989 10.786 148.085 10.786 148.205 10.786C148.325 10.774 148.445 10.768 148.565 10.768C148.697 10.768 148.817 10.768 148.925 10.768C149.045 10.756 149.135 10.75 149.195 10.75C149.471 10.75 149.675 10.804 149.807 10.912C149.939 11.02 150.005 11.2 150.005 11.452V12.64ZM155.239 13.234C154.507 13.234 153.877 13.144 153.349 12.964C152.833 12.772 152.407 12.478 152.071 12.082C151.747 11.686 151.507 11.182 151.351 10.57C151.207 9.946 151.135 9.202 151.135 8.338C151.135 7.462 151.207 6.718 151.351 6.106C151.507 5.482 151.747 4.972 152.071 4.576C152.407 4.18 152.833 3.892 153.349 3.712C153.877 3.532 154.507 3.442 155.239 3.442C155.971 3.442 156.595 3.532 157.111 3.712C157.639 3.892 158.065 4.18 158.389 4.576C158.725 4.972 158.965 5.482 159.109 6.106C159.265 6.718 159.343 7.462 159.343 8.338C159.343 9.202 159.265 9.946 159.109 10.57C158.965 11.182 158.725 11.686 158.389 12.082C158.065 12.478 157.639 12.772 157.111 12.964C156.595 13.144 155.971 13.234 155.239 13.234ZM156.301 8.338C156.301 7.762 156.283 7.306 156.247 6.97C156.223 6.622 156.169 6.358 156.085 6.178C156.001 5.986 155.893 5.86 155.761 5.8C155.629 5.74 155.455 5.71 155.239 5.71C155.023 5.71 154.849 5.74 154.717 5.8C154.585 5.86 154.477 5.986 154.393 6.178C154.309 6.358 154.249 6.622 154.213 6.97C154.189 7.306 154.177 7.762 154.177 8.338C154.177 8.926 154.189 9.394 154.213 9.742C154.249 10.09 154.309 10.36 154.393 10.552C154.477 10.732 154.585 10.852 154.717 10.912C154.849 10.972 155.023 11.002 155.239 11.002C155.455 11.002 155.629 10.972 155.761 10.912C155.893 10.852 156.001 10.732 156.085 10.552C156.169 10.36 156.223 10.09 156.247 9.742C156.283 9.394 156.301 8.926 156.301 8.338ZM165.756 3.658H168.096C168.54 3.658 168.762 3.868 168.762 4.288V13H167.034C166.758 13 166.566 12.958 166.458 12.874C166.362 12.778 166.266 12.58 166.17 12.28L166.062 11.956C165.642 12.412 165.228 12.736 164.82 12.928C164.424 13.12 163.956 13.216 163.416 13.216C161.712 13.216 160.86 12.16 160.86 10.048V3.658H163.2C163.644 3.658 163.866 3.868 163.866 4.288V9.742C163.866 10.054 163.926 10.288 164.046 10.444C164.166 10.588 164.388 10.66 164.712 10.66C164.892 10.66 165.078 10.63 165.27 10.57C165.462 10.51 165.624 10.42 165.756 10.3V3.658ZM173.605 13H171.265C170.821 13 170.599 12.79 170.599 12.37V3.658H172.327C172.603 3.658 172.789 3.706 172.885 3.802C172.993 3.886 173.095 4.078 173.191 4.378L173.299 4.702C173.719 4.246 174.127 3.922 174.523 3.73C174.931 3.538 175.405 3.442 175.945 3.442C177.649 3.442 178.501 4.498 178.501 6.61V13H176.161C175.717 13 175.495 12.79 175.495 12.37V6.916C175.495 6.604 175.435 6.376 175.315 6.232C175.195 6.076 174.973 5.998 174.649 5.998C174.469 5.998 174.283 6.028 174.091 6.088C173.899 6.148 173.737 6.238 173.605 6.358V13ZM185.793 12.892C185.433 13 185.103 13.078 184.803 13.126C184.515 13.174 184.197 13.198 183.849 13.198C183.369 13.198 182.937 13.15 182.553 13.054C182.181 12.958 181.857 12.79 181.581 12.55C181.317 12.298 181.113 11.968 180.969 11.56C180.825 11.14 180.753 10.612 180.753 9.976V5.98H180.393C179.949 5.98 179.727 5.77 179.727 5.35V3.658H180.861L181.005 1.39H183.093C183.537 1.39 183.759 1.6 183.759 2.02V3.658H185.127C185.571 3.658 185.793 3.868 185.793 4.288V5.98H183.759V9.922C183.759 10.558 184.041 10.876 184.605 10.876H185.127C185.571 10.876 185.793 11.086 185.793 11.506V12.892ZM189.045 8.896C188.757 8.896 188.553 8.734 188.433 8.41C188.337 8.158 188.289 7.882 188.289 7.582C188.289 7.114 188.409 6.736 188.649 6.448C188.889 6.16 189.171 5.866 189.495 5.566C189.711 5.374 189.885 5.212 190.017 5.08C190.161 4.936 190.269 4.81 190.341 4.702C190.425 4.582 190.485 4.468 190.521 4.36C190.557 4.24 190.575 4.114 190.575 3.982C190.575 3.754 190.533 3.568 190.449 3.424C190.377 3.28 190.269 3.172 190.125 3.1C189.993 3.028 189.831 2.98 189.639 2.956C189.447 2.932 189.243 2.92 189.027 2.92C188.727 2.92 188.415 2.932 188.091 2.956C187.779 2.968 187.563 2.974 187.443 2.974C187.227 2.974 187.077 2.926 186.993 2.83C186.909 2.722 186.867 2.566 186.867 2.362V0.885999C187.179 0.754 187.575 0.622 188.055 0.489999C188.547 0.357999 189.171 0.291999 189.927 0.291999C190.659 0.291999 191.265 0.37 191.745 0.526C192.225 0.682 192.609 0.904 192.897 1.192C193.185 1.48 193.383 1.828 193.491 2.236C193.611 2.632 193.671 3.082 193.671 3.586C193.671 3.982 193.635 4.324 193.563 4.612C193.503 4.9 193.407 5.17 193.275 5.422C193.155 5.662 192.993 5.89 192.789 6.106C192.597 6.31 192.369 6.526 192.105 6.754C191.889 6.934 191.697 7.096 191.529 7.24C191.373 7.372 191.235 7.504 191.115 7.636C191.007 7.756 190.917 7.888 190.845 8.032C190.773 8.164 190.725 8.326 190.701 8.518L190.647 8.896H189.045ZM191.421 11.542C191.421 12.106 191.289 12.514 191.025 12.766C190.761 13.018 190.317 13.144 189.693 13.144C189.069 13.144 188.625 13.018 188.361 12.766C188.097 12.514 187.965 12.106 187.965 11.542C187.965 10.978 188.097 10.57 188.361 10.318C188.625 10.066 189.069 9.94 189.693 9.94C190.317 9.94 190.761 10.066 191.025 10.318C191.289 10.57 191.421 10.978 191.421 11.542Z" fill="black" fill-opacity="0.56"/>
<path d="M199.411 13C198.967 13 198.745 12.79 198.745 12.37V0.526H201.229C201.673 0.526 201.895 0.735999 201.895 1.156V10.426H205.243C205.687 10.426 205.909 10.636 205.909 11.056V13H199.411ZM211.032 13.234C210.3 13.234 209.67 13.144 209.142 12.964C208.626 12.772 208.2 12.478 207.864 12.082C207.54 11.686 207.3 11.182 207.144 10.57C207 9.946 206.928 9.202 206.928 8.338C206.928 7.462 207 6.718 207.144 6.106C207.3 5.482 207.54 4.972 207.864 4.576C208.2 4.18 208.626 3.892 209.142 3.712C209.67 3.532 210.3 3.442 211.032 3.442C211.764 3.442 212.388 3.532 212.904 3.712C213.432 3.892 213.858 4.18 214.182 4.576C214.518 4.972 214.758 5.482 214.902 6.106C215.058 6.718 215.136 7.462 215.136 8.338C215.136 9.202 215.058 9.946 214.902 10.57C214.758 11.182 214.518 11.686 214.182 12.082C213.858 12.478 213.432 12.772 212.904 12.964C212.388 13.144 211.764 13.234 211.032 13.234ZM212.094 8.338C212.094 7.762 212.076 7.306 212.04 6.97C212.016 6.622 211.962 6.358 211.878 6.178C211.794 5.986 211.686 5.86 211.554 5.8C211.422 5.74 211.248 5.71 211.032 5.71C210.816 5.71 210.642 5.74 210.51 5.8C210.378 5.86 210.27 5.986 210.186 6.178C210.102 6.358 210.042 6.622 210.006 6.97C209.982 7.306 209.97 7.762 209.97 8.338C209.97 8.926 209.982 9.394 210.006 9.742C210.042 10.09 210.102 10.36 210.186 10.552C210.27 10.732 210.378 10.852 210.51 10.912C210.642 10.972 210.816 11.002 211.032 11.002C211.248 11.002 211.422 10.972 211.554 10.912C211.686 10.852 211.794 10.732 211.878 10.552C211.962 10.36 212.016 10.09 212.04 9.742C212.076 9.394 212.094 8.926 212.094 8.338ZM221.474 5.854C221.414 5.842 221.336 5.836 221.24 5.836C221.156 5.824 221.066 5.818 220.97 5.818C220.67 5.818 220.43 5.86 220.25 5.944C220.07 6.028 219.932 6.154 219.836 6.322C219.74 6.49 219.674 6.712 219.638 6.988C219.614 7.264 219.602 7.588 219.602 7.96C219.602 8.44 219.62 8.83 219.656 9.13C219.704 9.418 219.77 9.64 219.854 9.796C219.95 9.952 220.07 10.06 220.214 10.12C220.358 10.168 220.532 10.192 220.736 10.192C220.88 10.192 221.012 10.18 221.132 10.156C221.264 10.12 221.378 10.078 221.474 10.03V5.854ZM220.988 3.532C221.552 3.532 222.074 3.556 222.554 3.604C223.046 3.652 223.496 3.706 223.904 3.766C224.084 3.79 224.24 3.82 224.372 3.856C224.516 3.892 224.636 3.94 224.732 4C224.84 4.06 224.918 4.144 224.966 4.252C225.026 4.36 225.056 4.504 225.056 4.684V6.016H224.228C224.312 6.652 224.366 7.282 224.39 7.906C224.414 8.53 224.426 9.112 224.426 9.652V12.712C224.426 13.936 224.09 14.83 223.418 15.394C222.746 15.958 221.768 16.24 220.484 16.24C219.932 16.24 219.404 16.198 218.9 16.114C218.396 16.042 218.024 15.958 217.784 15.862C217.58 15.778 217.442 15.67 217.37 15.538C217.298 15.418 217.262 15.256 217.262 15.052V13.846C217.718 13.882 218.138 13.912 218.522 13.936C218.918 13.96 219.308 13.972 219.692 13.972C220.232 13.972 220.664 13.918 220.988 13.81C221.312 13.714 221.474 13.456 221.474 13.036V11.83C221.186 12.01 220.892 12.154 220.592 12.262C220.304 12.358 219.95 12.406 219.53 12.406C218.546 12.406 217.814 12.088 217.334 11.452C216.854 10.804 216.614 9.76 216.614 8.32C216.614 7.444 216.704 6.7 216.884 6.088C217.064 5.476 217.334 4.984 217.694 4.612C218.054 4.228 218.504 3.952 219.044 3.784C219.596 3.616 220.244 3.532 220.988 3.532ZM230.683 13C230.239 13 230.017 12.79 230.017 12.37V0.526H232.501C232.945 0.526 233.167 0.735999 233.167 1.156V13H230.683ZM238.169 13H235.829C235.385 13 235.163 12.79 235.163 12.37V3.658H236.891C237.167 3.658 237.353 3.706 237.449 3.802C237.557 3.886 237.659 4.078 237.755 4.378L237.863 4.702C238.283 4.246 238.691 3.922 239.087 3.73C239.495 3.538 239.969 3.442 240.509 3.442C242.213 3.442 243.065 4.498 243.065 6.61V13H240.725C240.281 13 240.059 12.79 240.059 12.37V6.916C240.059 6.604 239.999 6.376 239.879 6.232C239.759 6.076 239.537 5.998 239.213 5.998C239.033 5.998 238.847 6.028 238.655 6.088C238.463 6.148 238.301 6.238 238.169 6.358V13Z" fill="black"/>
<path d="M197.683 15.61H215.802V17.23H197.683V15.61ZM224.745 15.61H243.983V17.23H224.745V15.61Z" fill="black"/>
</g>
</svg>
