<svg width="21" height="14" viewBox="0 0 21 14" fill="none" xmlns="http://www.w3.org/2000/svg">
<path d="M17.1553 12.8643L15.8096 14L11.249 8.96191C10.981 9.15715 10.6487 9.27537 10.2871 9.27539C9.40306 9.27534 8.68672 8.58304 8.68652 7.72949C8.68652 7.30543 8.86304 6.92089 9.14941 6.6416L4.16602 1.13574L5.51172 0L17.1553 12.8643ZM7.70898 6.04688C7.33446 6.43053 7.08814 6.90235 7.03027 7.43066C6.86594 8.93185 8.26746 10.3057 10.1602 10.499C10.6788 10.552 11.1801 10.5072 11.6387 10.3887L13.2256 12.1416C12.4649 12.2639 11.644 12.3403 10.7617 12.3525C3.6573 12.451 0.0337508 8.13319 0 8.09277C0 8.09277 1.88704 5.24951 5.76953 3.90332L7.70898 6.04688ZM10.5225 3.22266C17.626 3.50663 21 8.04004 21 8.04004C20.9862 8.0587 19.5505 9.99271 16.4033 11.2646L13.832 8.4248C13.856 8.32887 13.8748 8.23096 13.8857 8.13086C14.049 6.6397 12.6674 5.27507 10.7939 5.06738L9.1377 3.2373C9.58251 3.21036 10.0443 3.20357 10.5225 3.22266Z" fill="#4A4949"/>
</svg>
