<svg width="437" height="82" viewBox="0 0 437 82" fill="none" xmlns="http://www.w3.org/2000/svg">
<path d="M0 30C0 26.134 3.13401 23 7 23H430C433.866 23 437 26.134 437 30V74C437 77.866 433.866 81 430 81H7.00001C3.13402 81 0 77.866 0 74V30Z" fill="#D9D9D9"/>
<path d="M0 23H437H0ZM437 74C437 78.4183 433.418 82 429 82H8C3.58172 82 0 78.4183 0 74C0 77.3137 3.13401 80 7 80H430C433.866 80 437 77.3137 437 74ZM0 81V23V81ZM437 23V81V23Z" fill="#7C7C7C"/>
<path opacity="0.7" d="M13.688 13H12.36C12.1893 13 12.0453 12.8773 11.928 12.632C11.8 12.3333 11.5973 11.9173 11.32 11.384C11.1707 11.0747 10.92 10.584 10.568 9.912C10.344 9.464 10.072 8.94667 9.752 8.36C9.73067 8.31733 9.464 7.816 8.952 6.856C8.57867 6.16267 8.344 5.73067 8.248 5.56C8.04533 5.16533 7.86933 4.84533 7.72 4.6V13H6.504C6.248 13 6.12 12.8773 6.12 12.632V1.912H7.464C7.592 1.912 7.68267 1.944 7.736 2.008C7.78933 2.06133 7.85333 2.152 7.928 2.28C7.992 2.38667 8.16267 2.696 8.44 3.208C8.52533 3.34667 8.64267 3.56 8.792 3.848C8.952 4.12533 9.064 4.32267 9.128 4.44C9.512 5.112 9.77333 5.58667 9.912 5.864C10.2107 6.41867 10.472 6.91467 10.696 7.352C10.9413 7.78933 11.192 8.26933 11.448 8.792C11.6827 9.22933 11.896 9.65067 12.088 10.056V1.912H13.304C13.56 1.912 13.688 2.03467 13.688 2.28V13ZM18.5565 9.112C18.2045 9.112 17.9378 9.144 17.7565 9.208C17.5538 9.272 17.3885 9.368 17.2605 9.496C17.1645 9.592 17.0792 9.74133 17.0045 9.944C16.9512 10.1253 16.9245 10.312 16.9245 10.504C16.9245 10.984 17.0418 11.3413 17.2765 11.576C17.5112 11.8 17.8685 11.912 18.3485 11.912C18.7858 11.912 19.1538 11.832 19.4525 11.672C19.7512 11.512 20.0178 11.32 20.2525 11.096V9.112H18.5565ZM17.9325 13.144C17.1218 13.144 16.5032 12.9147 16.0765 12.456C15.6712 11.9867 15.4685 11.352 15.4685 10.552C15.4685 10.0187 15.5432 9.60267 15.6925 9.304C15.8525 8.96267 16.0712 8.70133 16.3485 8.52C16.6152 8.328 16.9512 8.18933 17.3565 8.104C17.6978 8.01867 18.1138 7.976 18.6045 7.976H20.2525V7.432C20.2525 6.86667 20.1085 6.488 19.8205 6.296C19.5432 6.09333 19.0525 5.992 18.3485 5.992C17.7618 5.992 17.3405 6.01333 17.0845 6.056C16.6792 6.10933 16.4338 6.136 16.3485 6.136C16.2205 6.136 16.1245 6.104 16.0605 6.04C15.9965 5.96533 15.9645 5.87467 15.9645 5.768V5.08C16.3485 4.952 16.7698 4.856 17.2285 4.792C17.6765 4.71733 18.1565 4.68 18.6685 4.68C19.3298 4.68 19.8365 4.744 20.1885 4.872C20.5938 5 20.9192 5.192 21.1645 5.448C21.3992 5.672 21.5698 5.97067 21.6765 6.344C21.7832 6.67467 21.8365 7.064 21.8365 7.512V13H20.8605C20.6792 13 20.5672 12.9627 20.5245 12.888L20.4285 12.6L20.3645 12.12C20.1085 12.3653 19.7778 12.6 19.3725 12.824C18.9778 13.0373 18.4978 13.144 17.9325 13.144ZM28.8133 13C28.7173 13 28.6266 12.968 28.5413 12.904C28.4666 12.8293 28.4293 12.7387 28.4293 12.632V7.592C28.4293 7.03733 28.3173 6.64267 28.0933 6.408C27.8799 6.16267 27.5599 6.04 27.1333 6.04C26.7386 6.04 26.3919 6.12533 26.0933 6.296C25.8053 6.456 25.5653 6.632 25.3733 6.824V13H24.1413C23.8853 13 23.7573 12.8773 23.7573 12.632V4.856H24.7333C24.8613 4.856 24.9573 4.88267 25.0213 4.936C25.1066 4.97867 25.1599 5.08533 25.1813 5.256L25.2453 5.752C25.5439 5.42133 25.8853 5.16 26.2693 4.968C26.6746 4.776 27.1439 4.68 27.6773 4.68C28.1359 4.68 28.5413 4.76533 28.8933 4.936C29.2666 5.08533 29.5493 5.38933 29.7413 5.848C29.9973 5.56 30.3386 5.29333 30.7653 5.048C31.1813 4.80267 31.7146 4.68 32.3653 4.68C33.1119 4.68 33.6879 4.89867 34.0933 5.336C34.5093 5.784 34.7173 6.49333 34.7173 7.464V13H33.4693C33.2239 13 33.1013 12.8773 33.1013 12.632V7.592C33.1013 7.03733 32.9893 6.64267 32.7653 6.408C32.5519 6.16267 32.2319 6.04 31.8053 6.04C31.3679 6.04 31.0053 6.13067 30.7173 6.312C30.3973 6.52533 30.1573 6.712 29.9973 6.872C30.0293 7.13867 30.0453 7.416 30.0453 7.704V13H28.8133ZM37.9763 9.528C38.0083 9.95467 38.0563 10.3173 38.1203 10.616C38.2056 10.9253 38.3283 11.1653 38.4883 11.336C38.6696 11.5067 38.9096 11.6453 39.2083 11.752C39.5283 11.8373 39.9123 11.88 40.3602 11.88C40.6696 11.88 41.0483 11.8587 41.4963 11.816C41.8056 11.7733 42.0403 11.752 42.2003 11.752C42.4456 11.752 42.5683 11.8693 42.5683 12.104V12.776C42.3656 12.8507 42.0189 12.9413 41.5283 13.048C41.0483 13.1333 40.5363 13.176 39.9923 13.176C39.4056 13.176 38.8776 13.1013 38.4083 12.952C37.9603 12.792 37.5923 12.552 37.3043 12.232C36.9949 11.8587 36.7763 11.4213 36.6483 10.92C36.5096 10.3333 36.4403 9.67733 36.4403 8.952C36.4403 8.22667 36.5096 7.57067 36.6483 6.984C36.7976 6.42933 37.0056 5.98667 37.2723 5.656C37.5496 5.31467 37.9016 5.064 38.3283 4.904C38.7443 4.744 39.2296 4.664 39.7843 4.664C40.4563 4.664 40.9629 4.74933 41.3043 4.92C41.6989 5.09067 42.0083 5.33067 42.2323 5.64C42.4669 5.93867 42.6216 6.28533 42.6963 6.68C42.7816 7.032 42.8243 7.464 42.8243 7.976C42.8243 8.28533 42.8083 8.584 42.7763 8.872C42.7443 9.18133 42.7016 9.4 42.6483 9.528H37.9763ZM41.3523 8.392C41.3629 8.31733 41.3683 8.23733 41.3683 8.152V7.944C41.3683 7.24 41.2669 6.728 41.0643 6.408C40.8509 6.056 40.4403 5.88 39.8323 5.88C39.4589 5.88 39.1603 5.93867 38.9363 6.056C38.7016 6.17333 38.5149 6.33867 38.3763 6.552C38.2483 6.76533 38.1523 7.02667 38.0883 7.336C38.0349 7.624 37.9976 7.976 37.9763 8.392H41.3523Z" fill="black"/>
</svg>
