<svg width="437" height="79" viewBox="0 0 437 79" fill="none" xmlns="http://www.w3.org/2000/svg">
<mask id="path-1-inside-1_371_814" fill="white">
<path d="M0 28C0 24.134 3.13401 21 7 21H430C433.866 21 437 24.134 437 28V72C437 75.866 433.866 79 430 79H7.00001C3.13402 79 0 75.866 0 72V28Z"/>
</mask>
<path d="M0 28C0 24.134 3.13401 21 7 21H430C433.866 21 437 24.134 437 28V72C437 75.866 433.866 79 430 79H7.00001C3.13402 79 0 75.866 0 72V28Z" fill="#D9D9D9"/>
<path d="M0 21H437H0ZM437 72C437 76.9706 432.971 81 428 81H9C4.02944 81 0 76.9706 0 72C0 74.7614 3.13401 77 7 77H430C433.866 77 437 74.7614 437 72ZM0 79V21V79ZM437 21V79V21Z" fill="#7C7C7C" mask="url(#path-1-inside-1_371_814)"/>
<path opacity="0.7" d="M6.504 13C6.248 13 6.12 12.8773 6.12 12.632V2.104C6.36533 2.05067 6.89333 1.98133 7.704 1.896C8.29067 1.832 8.84 1.8 9.352 1.8C10.6533 1.8 11.6027 2.07733 12.2 2.632C12.808 3.176 13.112 4.104 13.112 5.416C13.112 6.10933 13.032 6.66933 12.872 7.096C12.712 7.55467 12.4773 7.928 12.168 8.216C11.9013 8.48267 11.5387 8.69067 11.08 8.84C10.6107 8.97867 10.1307 9.048 9.64 9.048C9.37333 9.048 9.08 9.032 8.76 9C8.71733 8.98933 8.392 8.93067 7.784 8.824V13H6.504ZM7.784 7.544C7.86933 7.55467 8.00267 7.576 8.184 7.608C8.376 7.62933 8.52 7.65067 8.616 7.672C9 7.71467 9.27733 7.736 9.448 7.736C9.78933 7.736 10.088 7.704 10.344 7.64C10.6107 7.55467 10.8187 7.432 10.968 7.272C11.1493 7.08 11.2773 6.84 11.352 6.552C11.4373 6.28533 11.48 5.90667 11.48 5.416C11.48 4.88267 11.4373 4.488 11.352 4.232C11.256 3.92267 11.1173 3.69333 10.936 3.544C10.776 3.384 10.5573 3.272 10.28 3.208C10.024 3.144 9.72533 3.112 9.384 3.112C8.97867 3.112 8.68 3.12267 8.488 3.144C8.264 3.15467 8.02933 3.18133 7.784 3.224V7.544ZM17.3221 9.112C16.9701 9.112 16.7035 9.144 16.5221 9.208C16.3195 9.272 16.1541 9.368 16.0261 9.496C15.9301 9.592 15.8448 9.74133 15.7701 9.944C15.7168 10.1253 15.6901 10.312 15.6901 10.504C15.6901 10.984 15.8075 11.3413 16.0421 11.576C16.2768 11.8 16.6341 11.912 17.1141 11.912C17.5515 11.912 17.9195 11.832 18.2181 11.672C18.5168 11.512 18.7835 11.32 19.0181 11.096V9.112H17.3221ZM16.6981 13.144C15.8875 13.144 15.2688 12.9147 14.8421 12.456C14.4368 11.9867 14.2341 11.352 14.2341 10.552C14.2341 10.0187 14.3088 9.60267 14.4581 9.304C14.6181 8.96267 14.8368 8.70133 15.1141 8.52C15.3808 8.328 15.7168 8.18933 16.1221 8.104C16.4635 8.01867 16.8795 7.976 17.3701 7.976H19.0181V7.432C19.0181 6.86667 18.8741 6.488 18.5861 6.296C18.3088 6.09333 17.8181 5.992 17.1141 5.992C16.5275 5.992 16.1061 6.01333 15.8501 6.056C15.4448 6.10933 15.1995 6.136 15.1141 6.136C14.9861 6.136 14.8901 6.104 14.8261 6.04C14.7621 5.96533 14.7301 5.87467 14.7301 5.768V5.08C15.1141 4.952 15.5355 4.856 15.9941 4.792C16.4421 4.71733 16.9221 4.68 17.4341 4.68C18.0955 4.68 18.6021 4.744 18.9541 4.872C19.3595 5 19.6848 5.192 19.9301 5.448C20.1648 5.672 20.3355 5.97067 20.4421 6.344C20.5488 6.67467 20.6021 7.064 20.6021 7.512V13H19.6261C19.4448 13 19.3328 12.9627 19.2901 12.888L19.1941 12.6L19.1301 12.12C18.8741 12.3653 18.5435 12.6 18.1381 12.824C17.7435 13.0373 17.2635 13.144 16.6981 13.144ZM22.2669 11.672C22.7895 11.7147 23.1682 11.752 23.4029 11.784C23.9575 11.8267 24.3629 11.848 24.6189 11.848C25.3229 11.848 25.7975 11.7573 26.0429 11.576C26.2882 11.3947 26.4109 11.1067 26.4109 10.712C26.4109 10.4987 26.3895 10.3493 26.3469 10.264C26.3042 10.1573 26.2135 10.0507 26.0749 9.944C25.9149 9.82667 25.7442 9.74133 25.5629 9.688C25.3175 9.60267 25.0349 9.52267 24.7149 9.448C24.3842 9.36267 24.0429 9.26667 23.6909 9.16C23.3815 9.05333 23.1095 8.91467 22.8749 8.744C22.6615 8.57333 22.4909 8.36 22.3629 8.104C22.2349 7.82667 22.1709 7.48533 22.1709 7.08C22.1709 6.22667 22.4215 5.61333 22.9229 5.24C23.4242 4.86667 24.1282 4.68 25.0349 4.68C25.3655 4.68 25.5629 4.68533 25.6269 4.696C25.9042 4.71733 26.1122 4.73867 26.2509 4.76C26.5709 4.81333 26.7575 4.84533 26.8109 4.856C26.9709 4.888 27.1202 4.93067 27.2589 4.984C27.3549 5.02667 27.4349 5.08533 27.4989 5.16C27.5522 5.21333 27.5789 5.31467 27.5789 5.464V6.152C27.5255 6.14133 27.1095 6.104 26.3309 6.04C25.9789 6.008 25.6535 5.992 25.3549 5.992C24.7682 5.992 24.3469 6.072 24.0909 6.232C23.8455 6.392 23.7229 6.648 23.7229 7C23.7229 7.18133 23.7549 7.336 23.8189 7.464C23.8722 7.56 23.9735 7.66667 24.1229 7.784C24.2189 7.83733 24.4002 7.912 24.6669 8.008C25.0615 8.12533 25.3282 8.2 25.4669 8.232C25.9789 8.37067 26.3149 8.46667 26.4749 8.52C26.7842 8.616 27.0509 8.74933 27.2749 8.92C27.4882 9.06933 27.6589 9.288 27.7869 9.576C27.9149 9.85333 27.9789 10.2053 27.9789 10.632C27.9789 11.1333 27.9095 11.528 27.7709 11.816C27.6215 12.1467 27.4135 12.4133 27.1469 12.616C26.8909 12.808 26.5762 12.952 26.2029 13.048C25.8082 13.1333 25.3975 13.176 24.9709 13.176C24.7149 13.176 24.5069 13.1707 24.3469 13.16C24.2722 13.1493 24.1549 13.1333 23.9949 13.112C23.8455 13.1013 23.7335 13.0907 23.6589 13.08C23.4349 13.048 23.2269 13.016 23.0349 12.984C22.9815 12.9733 22.9229 12.9627 22.8589 12.952C22.8055 12.9307 22.7522 12.9147 22.6989 12.904C22.6455 12.8827 22.6082 12.8667 22.5869 12.856C22.4482 12.792 22.3629 12.728 22.3309 12.664C22.2882 12.536 22.2669 12.4347 22.2669 12.36V11.672ZM29.2044 11.672C29.727 11.7147 30.1057 11.752 30.3404 11.784C30.895 11.8267 31.3004 11.848 31.5564 11.848C32.2604 11.848 32.735 11.7573 32.9804 11.576C33.2257 11.3947 33.3484 11.1067 33.3484 10.712C33.3484 10.4987 33.327 10.3493 33.2844 10.264C33.2417 10.1573 33.151 10.0507 33.0124 9.944C32.8524 9.82667 32.6817 9.74133 32.5004 9.688C32.255 9.60267 31.9724 9.52267 31.6524 9.448C31.3217 9.36267 30.9804 9.26667 30.6284 9.16C30.319 9.05333 30.047 8.91467 29.8124 8.744C29.599 8.57333 29.4284 8.36 29.3004 8.104C29.1724 7.82667 29.1084 7.48533 29.1084 7.08C29.1084 6.22667 29.359 5.61333 29.8604 5.24C30.3617 4.86667 31.0657 4.68 31.9724 4.68C32.303 4.68 32.5004 4.68533 32.5644 4.696C32.8417 4.71733 33.0497 4.73867 33.1884 4.76C33.5084 4.81333 33.695 4.84533 33.7484 4.856C33.9084 4.888 34.0577 4.93067 34.1964 4.984C34.2924 5.02667 34.3724 5.08533 34.4364 5.16C34.4897 5.21333 34.5164 5.31467 34.5164 5.464V6.152C34.463 6.14133 34.047 6.104 33.2684 6.04C32.9164 6.008 32.591 5.992 32.2924 5.992C31.7057 5.992 31.2844 6.072 31.0284 6.232C30.783 6.392 30.6604 6.648 30.6604 7C30.6604 7.18133 30.6924 7.336 30.7564 7.464C30.8097 7.56 30.911 7.66667 31.0604 7.784C31.1564 7.83733 31.3377 7.912 31.6044 8.008C31.999 8.12533 32.2657 8.2 32.4044 8.232C32.9164 8.37067 33.2524 8.46667 33.4124 8.52C33.7217 8.616 33.9884 8.74933 34.2124 8.92C34.4257 9.06933 34.5964 9.288 34.7244 9.576C34.8524 9.85333 34.9164 10.2053 34.9164 10.632C34.9164 11.1333 34.847 11.528 34.7084 11.816C34.559 12.1467 34.351 12.4133 34.0844 12.616C33.8284 12.808 33.5137 12.952 33.1404 13.048C32.7457 13.1333 32.335 13.176 31.9084 13.176C31.6524 13.176 31.4444 13.1707 31.2844 13.16C31.2097 13.1493 31.0924 13.1333 30.9324 13.112C30.783 13.1013 30.671 13.0907 30.5964 13.08C30.3724 13.048 30.1644 13.016 29.9724 12.984C29.919 12.9733 29.8604 12.9627 29.7964 12.952C29.743 12.9307 29.6897 12.9147 29.6364 12.904C29.583 12.8827 29.5457 12.8667 29.5244 12.856C29.3857 12.792 29.3004 12.728 29.2684 12.664C29.2257 12.536 29.2044 12.4347 29.2044 12.36V11.672ZM41.4505 5.528C41.6425 5.528 41.7652 5.55467 41.8185 5.608C41.9038 5.66133 41.9678 5.77867 42.0105 5.96L43.4505 11.304C43.5892 10.8453 43.7225 10.3333 43.8505 9.768C44.0318 8.968 44.1492 8.39733 44.2025 8.056C44.3198 7.42667 44.4105 6.86133 44.4745 6.36C44.5598 5.784 44.6238 5.28267 44.6665 4.856H45.8345C46.0052 4.856 46.1012 4.888 46.1225 4.952C46.1652 5.016 46.1812 5.112 46.1705 5.24C46.1705 5.35733 46.1545 5.496 46.1225 5.656C46.1012 5.86933 46.0798 6.02933 46.0585 6.136C45.8878 7.23467 45.6585 8.36 45.3705 9.512C45.0932 10.6427 44.7198 11.8053 44.2505 13H43.0025C42.8852 13 42.7998 12.9733 42.7465 12.92C42.6825 12.856 42.6345 12.7653 42.6025 12.648L41.1625 7.4L39.6265 13H38.4105C38.2612 13 38.1598 12.9733 38.1065 12.92C38.0638 12.8667 38.0158 12.776 37.9625 12.648C37.8132 12.2427 37.5998 11.6133 37.3225 10.76C37.0558 9.84267 36.8745 9.18667 36.7785 8.792C36.6825 8.39733 36.5438 7.73067 36.3625 6.792C36.2345 6.024 36.1438 5.37867 36.0905 4.856H37.3545C37.5998 4.856 37.7278 4.97867 37.7385 5.224C37.8345 6.088 37.8878 6.56267 37.8985 6.648C38.0052 7.33067 38.0905 7.85333 38.1545 8.216C38.3465 9.13333 38.4585 9.66667 38.4905 9.816C38.5438 10.0293 38.6772 10.5253 38.8905 11.304L40.4585 5.528H41.4505ZM50.8643 13.192C49.6803 13.192 48.8109 12.8507 48.2563 12.168C47.7123 11.4853 47.4403 10.4027 47.4403 8.92C47.4403 7.42667 47.7069 6.34933 48.2403 5.688C48.7843 5.00533 49.6589 4.664 50.8643 4.664C52.0589 4.664 52.9283 5.00533 53.4723 5.688C54.0163 6.36 54.2883 7.43733 54.2883 8.92C54.2883 10.4133 54.0216 11.496 53.4883 12.168C52.9336 12.8507 52.0589 13.192 50.8643 13.192ZM52.6563 8.92C52.6563 8.26933 52.6243 7.78933 52.5603 7.48C52.4963 7.07467 52.3896 6.77067 52.2403 6.568C52.1016 6.33333 51.9149 6.168 51.6803 6.072C51.4563 5.976 51.1843 5.928 50.8643 5.928C50.5763 5.928 50.3096 5.976 50.0643 6.072C49.8403 6.168 49.6536 6.328 49.5043 6.552C49.3763 6.744 49.2696 7.05333 49.1843 7.48C49.1096 7.928 49.0723 8.408 49.0723 8.92C49.0723 9.48533 49.1043 9.97067 49.1683 10.376C49.2536 10.7813 49.3603 11.0907 49.4883 11.304C49.6483 11.5387 49.8349 11.6987 50.0483 11.784C50.2829 11.88 50.5549 11.928 50.8643 11.928C51.1949 11.928 51.4616 11.8853 51.6643 11.8C51.8883 11.7147 52.0749 11.5547 52.2243 11.32C52.3736 11.096 52.4803 10.7867 52.5443 10.392C52.6189 10.0187 52.6563 9.528 52.6563 8.92ZM59.7501 4.808C59.9848 4.808 60.1288 4.84 60.1821 4.904C60.2568 4.968 60.2941 5.064 60.2941 5.192V6.264C60.2515 6.25333 60.1768 6.248 60.0701 6.248H59.8621C59.4248 6.248 59.0301 6.31733 58.6781 6.456C58.3368 6.584 58.0008 6.81867 57.6701 7.16V13H56.4381C56.1821 13 56.0541 12.8773 56.0541 12.632V4.856H57.0301C57.1795 4.856 57.2808 4.88267 57.3341 4.936C57.3981 5 57.4461 5.10667 57.4781 5.256L57.5421 5.96C57.8195 5.62933 58.1341 5.36267 58.4861 5.16C58.8595 4.92533 59.2808 4.808 59.7501 4.808ZM66.1815 6.216C66.0002 6.13067 65.7868 6.06133 65.5415 6.008C65.3602 5.95467 65.1042 5.928 64.7735 5.928C64.4002 5.928 64.0908 5.98133 63.8455 6.088C63.6108 6.17333 63.4135 6.344 63.2535 6.6C63.1148 6.83467 63.0135 7.144 62.9495 7.528C62.8855 7.912 62.8535 8.376 62.8535 8.92C62.8535 9.93333 62.9655 10.6693 63.1895 11.128C63.4242 11.5867 63.8402 11.816 64.4375 11.816C64.8535 11.816 65.2055 11.736 65.4935 11.576C65.7922 11.3947 66.0215 11.224 66.1815 11.064V6.216ZM63.9575 13.144C63.0188 13.144 62.3255 12.792 61.8775 12.088C61.4402 11.3627 61.2215 10.3333 61.2215 9C61.2215 7.464 61.4828 6.36533 62.0055 5.704C62.5495 5.032 63.3495 4.696 64.4055 4.696C64.8855 4.696 65.2535 4.73867 65.5095 4.824C65.8295 4.90933 66.0535 4.99467 66.1815 5.08V1.512H67.4135C67.5308 1.512 67.6215 1.544 67.6855 1.608C67.7602 1.672 67.7975 1.76267 67.7975 1.88V13H66.8215C66.7362 13 66.6402 12.9733 66.5335 12.92C66.4588 12.856 66.4055 12.7493 66.3735 12.6L66.3095 12.104C66.0642 12.3707 65.7548 12.6107 65.3815 12.824C64.9868 13.0373 64.5122 13.144 63.9575 13.144Z" fill="black"/>
</svg>
