<svg width="400" height="30" viewBox="0 0 400 30" fill="none" xmlns="http://www.w3.org/2000/svg">
<path d="M14.8667 12.72L12.0667 29H6.18671C5.68005 29 5.30671 28.8933 5.06671 28.68C4.82671 28.4667 4.64005 28.1467 4.50671 27.72C4.08005 26.4133 3.64005 24.72 3.18671 22.64C2.76005 20.5333 2.34671 18.2667 1.94671 15.84C1.54671 13.4133 1.17338 10.9333 0.826713 8.4C0.506713 5.86667 0.253379 3.49333 0.0667127 1.28H5.66671C6.17338 1.28 6.53338 1.42667 6.74671 1.72C6.96005 2.01333 7.08005 2.38667 7.10671 2.84C7.18671 4.33333 7.25338 5.78667 7.30671 7.2C7.38671 8.58667 7.49338 10.04 7.62671 11.56C7.76005 13.08 7.93338 14.7067 8.14671 16.44C8.36005 18.1733 8.62671 20.1067 8.94671 22.24L12.0667 3.56H16.7467C17.2267 3.56 17.56 3.69333 17.7467 3.96C17.9334 4.22666 18.0667 4.61333 18.1467 5.12L20.9067 22.24C21.2267 20.1867 21.4934 18.2667 21.7067 16.48C21.92 14.6933 22.0934 12.9733 22.2267 11.32C22.3867 9.64 22.52 7.98667 22.6267 6.36C22.7334 4.70667 22.8267 3.01333 22.9067 1.28H28.2267C28.6267 1.28 28.9334 1.4 29.1467 1.64C29.36 1.88 29.4667 2.30667 29.4667 2.92C29.4667 3.10667 29.4534 3.34667 29.4267 3.64C29.4 3.90667 29.36 4.29333 29.3067 4.8C29.1734 6.16 28.9734 7.82667 28.7067 9.8C28.44 11.7733 28.12 13.8667 27.7467 16.08C27.4 18.2667 26.9867 20.4933 26.5067 22.76C26.0267 25 25.4934 27.08 24.9067 29H18.9067C18.4267 29 18.0534 28.8667 17.7867 28.6C17.5467 28.3067 17.3867 27.9333 17.3067 27.48L14.8667 12.72ZM49.1139 28.2C48.4206 28.4933 47.4606 28.7867 46.2339 29.08C45.0339 29.3733 43.5406 29.52 41.7539 29.52C40.1806 29.52 38.8206 29.32 37.6739 28.92C36.5272 28.52 35.5672 27.88 34.7939 27C34.0472 26.12 33.4872 25 33.1139 23.64C32.7672 22.2533 32.5939 20.5867 32.5939 18.64C32.5939 14.7733 33.3139 12 34.7539 10.32C36.2206 8.61333 38.5006 7.76 41.5939 7.76C43.2206 7.76 44.5406 7.98667 45.5539 8.44C46.5939 8.89333 47.4072 9.52 47.9939 10.32C48.5806 11.0933 48.9806 12.0267 49.1939 13.12C49.4072 14.1867 49.5139 15.3467 49.5139 16.6C49.5139 16.8667 49.5006 17.2 49.4739 17.6C49.4472 18 49.3939 18.4 49.3139 18.8C49.2606 19.2 49.1939 19.5867 49.1139 19.96C49.0339 20.3067 48.9539 20.5733 48.8739 20.76H38.7939C38.7939 22.12 39.1139 23.0667 39.7539 23.6C40.4206 24.1333 41.4606 24.4 42.8739 24.4C44.1806 24.4 45.1672 24.3867 45.8339 24.36C46.5272 24.3067 47.1272 24.28 47.6339 24.28C48.1672 24.28 48.5406 24.4133 48.7539 24.68C48.9939 24.92 49.1139 25.2667 49.1139 25.72V28.2ZM43.8339 16.88C43.8339 15.2267 43.6606 14.0933 43.3139 13.48C42.9939 12.84 42.3939 12.52 41.5139 12.52C40.4472 12.52 39.7272 12.8533 39.3539 13.52C39.0072 14.1867 38.8206 15.3067 38.7939 16.88H43.8339ZM59.1502 0.279998C60.1368 0.279998 60.6302 0.746665 60.6302 1.68V9.16C61.1635 8.81333 61.7502 8.49333 62.3902 8.2C63.0568 7.90667 63.8968 7.76 64.9102 7.76C65.8435 7.76 66.7235 7.94667 67.5502 8.32C68.3768 8.66667 69.0968 9.28 69.7102 10.16C70.3502 11.0133 70.8435 12.1467 71.1902 13.56C71.5635 14.9733 71.7502 16.7333 71.7502 18.84C71.7502 20.76 71.5768 22.4 71.2302 23.76C70.9102 25.0933 70.3768 26.2 69.6302 27.08C68.8835 27.9333 67.9102 28.56 66.7102 28.96C65.5368 29.3333 64.1102 29.52 62.4302 29.52C60.6702 29.52 59.1368 29.36 57.8302 29.04C56.5235 28.7467 55.6035 28.4667 55.0702 28.2C54.7768 28.0667 54.5102 27.8667 54.2702 27.6C54.0568 27.3333 53.9502 26.9067 53.9502 26.32V0.279998H59.1502ZM60.6302 24.44C61.1368 24.52 61.6435 24.56 62.1502 24.56C62.6568 24.56 63.0835 24.5067 63.4302 24.4C63.8035 24.2933 64.0968 24.04 64.3102 23.64C64.5502 23.24 64.7235 22.6667 64.8302 21.92C64.9368 21.1467 64.9902 20.0933 64.9902 18.76C64.9902 17.56 64.9368 16.5733 64.8302 15.8C64.7502 15.0267 64.6035 14.4133 64.3902 13.96C64.1768 13.5067 63.8968 13.2 63.5502 13.04C63.2302 12.8533 62.8168 12.76 62.3102 12.76C61.6968 12.76 61.1368 12.8933 60.6302 13.16V24.44ZM87.027 15.08C88.0137 15.08 88.507 15.5467 88.507 16.48V21.04H77.507C76.5204 21.04 76.027 20.5733 76.027 19.64V15.08H87.027ZM99.8948 24.08H102.215C103.362 24.08 104.175 23.8133 104.655 23.28C105.162 22.72 105.415 21.8267 105.415 20.6C105.415 19.32 105.135 18.4267 104.575 17.92C104.042 17.3867 103.122 17.12 101.815 17.12H99.8948V24.08ZM99.8948 12.4H101.975C102.988 12.4 103.708 12.1867 104.135 11.76C104.588 11.3067 104.815 10.44 104.815 9.16C104.815 7.90667 104.602 7.06667 104.175 6.64C103.748 6.18667 102.988 5.96 101.895 5.96C101.628 5.96 101.282 5.97333 100.855 6C100.428 6 100.108 6.01333 99.8948 6.04V12.4ZM93.1748 1.76C94.6682 1.46667 96.1482 1.25333 97.6148 1.12C99.1082 0.959999 100.455 0.88 101.655 0.88C103.122 0.88 104.455 1.01333 105.655 1.28C106.855 1.52 107.868 1.94667 108.695 2.56C109.548 3.14666 110.202 3.93333 110.655 4.92C111.108 5.88 111.335 7.06667 111.335 8.48C111.335 9.97333 111.042 11.2133 110.455 12.2C109.895 13.1867 108.935 14.0267 107.575 14.72C108.482 15.0933 109.228 15.5333 109.815 16.04C110.402 16.52 110.855 17.0667 111.175 17.68C111.495 18.2667 111.708 18.88 111.815 19.52C111.948 20.16 112.015 20.8 112.015 21.44C112.015 22.9333 111.775 24.16 111.295 25.12C110.815 26.08 110.162 26.8533 109.335 27.44C108.508 28.0267 107.535 28.44 106.415 28.68C105.295 28.8933 104.095 29 102.815 29H94.6548C93.6682 29 93.1748 28.5333 93.1748 27.6V1.76ZM121.633 29.24C119.713 29.24 118.233 28.6667 117.193 27.52C116.18 26.3733 115.673 24.7467 115.673 22.64C115.673 21.2 115.9 20.0533 116.353 19.2C116.833 18.32 117.46 17.6667 118.233 17.24C119.006 16.7867 119.886 16.4933 120.873 16.36C121.86 16.2267 122.886 16.16 123.953 16.16H126.393V14.96C126.393 14.1067 126.1 13.5867 125.513 13.4C124.926 13.1867 124.02 13.08 122.793 13.08C121.7 13.08 120.713 13.1067 119.833 13.16C118.98 13.2133 118.433 13.24 118.193 13.24C117.686 13.24 117.326 13.1067 117.113 12.84C116.9 12.5733 116.793 12.2667 116.793 11.92V9.12C117.54 8.8 118.54 8.49333 119.793 8.2C121.046 7.90667 122.486 7.76 124.113 7.76C127.233 7.76 129.473 8.41333 130.833 9.72C132.193 11.0267 132.873 12.8933 132.873 15.32V29H129.033C128.74 29 128.486 28.9867 128.273 28.96C128.086 28.9067 127.926 28.8267 127.793 28.72C127.66 28.5867 127.54 28.4133 127.433 28.2C127.326 27.9867 127.22 27.72 127.113 27.4L126.873 26.76C126.34 27.3467 125.646 27.9067 124.793 28.44C123.94 28.9733 122.886 29.24 121.633 29.24ZM126.353 20.04H123.793C122.913 20.04 122.286 20.24 121.913 20.64C121.566 21.0133 121.393 21.5467 121.393 22.24C121.393 23.0667 121.593 23.64 121.993 23.96C122.393 24.2533 122.966 24.4 123.713 24.4C124.78 24.4 125.66 24.1333 126.353 23.6V20.04ZM137.216 23.96C138.336 24.04 139.416 24.1067 140.456 24.16C141.496 24.2133 142.403 24.24 143.176 24.24C144.376 24.24 145.189 24.1467 145.616 23.96C146.043 23.7467 146.256 23.3333 146.256 22.72C146.256 22.4533 146.216 22.24 146.136 22.08C146.056 21.92 145.909 21.7733 145.696 21.64C145.483 21.5067 145.189 21.3867 144.816 21.28C144.469 21.1733 144.003 21.0533 143.416 20.92C142.296 20.6533 141.336 20.3733 140.536 20.08C139.736 19.76 139.069 19.3733 138.536 18.92C138.003 18.4667 137.603 17.8933 137.336 17.2C137.096 16.48 136.976 15.5733 136.976 14.48C136.976 13.0933 137.163 11.9733 137.536 11.12C137.909 10.24 138.429 9.54667 139.096 9.04C139.789 8.53333 140.603 8.18667 141.536 8C142.469 7.81333 143.496 7.72 144.616 7.72C146.189 7.72 147.443 7.84 148.376 8.08C149.336 8.29333 150.043 8.49333 150.496 8.68C150.976 8.89333 151.309 9.13333 151.496 9.4C151.683 9.64 151.776 10.04 151.776 10.6V13.28C150.016 13.1733 148.709 13.1067 147.856 13.08C147.029 13.0267 146.403 13 145.976 13C145.069 13 144.376 13.08 143.896 13.24C143.443 13.3733 143.216 13.72 143.216 14.28C143.216 14.8133 143.429 15.1867 143.856 15.4C144.309 15.6133 145.003 15.8267 145.936 16.04C147.056 16.3333 148.029 16.6267 148.856 16.92C149.709 17.2133 150.403 17.6 150.936 18.08C151.469 18.5333 151.869 19.12 152.136 19.84C152.403 20.5333 152.536 21.4267 152.536 22.52C152.536 23.88 152.336 25.0133 151.936 25.92C151.563 26.8267 151.029 27.5467 150.336 28.08C149.643 28.6133 148.816 28.9867 147.856 29.2C146.896 29.4133 145.843 29.52 144.696 29.52C143.336 29.52 142.083 29.4133 140.936 29.2C139.816 28.9867 138.989 28.7733 138.456 28.56C137.976 28.3467 137.643 28.0933 137.456 27.8C137.296 27.48 137.216 27.0933 137.216 26.64V23.96ZM172.703 28.2C172.01 28.4933 171.05 28.7867 169.823 29.08C168.623 29.3733 167.13 29.52 165.343 29.52C163.77 29.52 162.41 29.32 161.263 28.92C160.116 28.52 159.156 27.88 158.383 27C157.636 26.12 157.076 25 156.703 23.64C156.356 22.2533 156.183 20.5867 156.183 18.64C156.183 14.7733 156.903 12 158.343 10.32C159.81 8.61333 162.09 7.76 165.183 7.76C166.81 7.76 168.13 7.98667 169.143 8.44C170.183 8.89333 170.996 9.52 171.583 10.32C172.17 11.0933 172.57 12.0267 172.783 13.12C172.996 14.1867 173.103 15.3467 173.103 16.6C173.103 16.8667 173.09 17.2 173.063 17.6C173.036 18 172.983 18.4 172.903 18.8C172.85 19.2 172.783 19.5867 172.703 19.96C172.623 20.3067 172.543 20.5733 172.463 20.76H162.383C162.383 22.12 162.703 23.0667 163.343 23.6C164.01 24.1333 165.05 24.4 166.463 24.4C167.77 24.4 168.756 24.3867 169.423 24.36C170.116 24.3067 170.716 24.28 171.223 24.28C171.756 24.28 172.13 24.4133 172.343 24.68C172.583 24.92 172.703 25.2667 172.703 25.72V28.2ZM167.423 16.88C167.423 15.2267 167.25 14.0933 166.903 13.48C166.583 12.84 165.983 12.52 165.103 12.52C164.036 12.52 163.316 12.8533 162.943 13.52C162.596 14.1867 162.41 15.3067 162.383 16.88H167.423ZM183.619 29.32C182.659 29.32 181.779 29.1467 180.979 28.8C180.179 28.4267 179.499 27.8267 178.939 27C178.379 26.1733 177.939 25.08 177.619 23.72C177.299 22.36 177.139 20.6933 177.139 18.72C177.139 14.9333 177.753 12.2 178.979 10.52C180.233 8.81333 182.179 7.96 184.819 7.96C185.673 7.96 186.379 8.02667 186.939 8.16C187.499 8.29333 187.939 8.42667 188.259 8.56V0.279998H193.459C194.446 0.279998 194.939 0.746665 194.939 1.68V29H191.099C190.486 29 190.059 28.9067 189.819 28.72C189.606 28.5067 189.393 28.0667 189.179 27.4L188.939 26.72C188.326 27.4133 187.579 28.0267 186.699 28.56C185.846 29.0667 184.819 29.32 183.619 29.32ZM188.259 12.88C187.993 12.8267 187.713 12.7867 187.419 12.76C187.126 12.7333 186.873 12.72 186.659 12.72C186.019 12.72 185.513 12.8267 185.139 13.04C184.793 13.2533 184.526 13.5867 184.339 14.04C184.153 14.4667 184.033 15.0267 183.979 15.72C183.926 16.3867 183.899 17.1867 183.899 18.12C183.899 19.2667 183.926 20.2133 183.979 20.96C184.033 21.7067 184.139 22.3067 184.299 22.76C184.459 23.1867 184.686 23.4933 184.979 23.68C185.273 23.8667 185.659 23.96 186.139 23.96C186.593 23.96 186.993 23.8933 187.339 23.76C187.686 23.6267 187.993 23.4667 188.259 23.28V12.88ZM208.081 9.24C208.081 7.66667 208.294 6.34667 208.721 5.28C209.174 4.18667 209.814 3.30667 210.641 2.64C211.467 1.97333 212.467 1.49333 213.641 1.2C214.814 0.906665 216.134 0.759999 217.601 0.759999C218.934 0.759999 220.067 0.853332 221.001 1.04C221.961 1.2 222.707 1.38667 223.241 1.6C223.934 1.89333 224.334 2.24 224.441 2.64C224.574 3.04 224.641 3.42666 224.641 3.8V6.68C224.027 6.65333 223.481 6.62667 223.001 6.6C222.521 6.54667 222.054 6.52 221.601 6.52C221.147 6.49333 220.694 6.48 220.241 6.48C219.787 6.45333 219.294 6.44 218.761 6.44C217.934 6.44 217.254 6.49333 216.721 6.6C216.214 6.70667 215.814 6.85333 215.521 7.04C215.227 7.22666 215.027 7.46666 214.921 7.76C214.814 8.05333 214.761 8.37333 214.761 8.72C214.761 9.12 214.801 9.46667 214.881 9.76C214.987 10.0267 215.174 10.28 215.441 10.52C215.734 10.76 216.147 11.0133 216.681 11.28C217.241 11.5467 217.987 11.88 218.921 12.28C220.147 12.8133 221.174 13.3333 222.001 13.84C222.854 14.3467 223.534 14.92 224.041 15.56C224.574 16.2 224.947 16.9467 225.161 17.8C225.401 18.6533 225.521 19.68 225.521 20.88C225.521 22.4 225.347 23.7067 225.001 24.8C224.654 25.8667 224.094 26.76 223.321 27.48C222.574 28.1733 221.601 28.68 220.401 29C219.201 29.3467 217.734 29.52 216.001 29.52C214.721 29.52 213.521 29.44 212.401 29.28C211.281 29.1467 210.414 28.96 209.801 28.72C209.241 28.5067 208.854 28.24 208.641 27.92C208.427 27.5733 208.321 27.1733 208.321 26.72V23.48C209.361 23.56 210.374 23.6267 211.361 23.68C212.347 23.7067 213.361 23.72 214.401 23.72C215.307 23.72 216.041 23.6667 216.601 23.56C217.187 23.4533 217.627 23.3067 217.921 23.12C218.241 22.9067 218.454 22.6533 218.561 22.36C218.667 22.04 218.721 21.6933 218.721 21.32C218.721 20.84 218.654 20.4533 218.521 20.16C218.387 19.84 218.147 19.56 217.801 19.32C217.481 19.0533 217.027 18.8 216.441 18.56C215.881 18.2933 215.161 17.9733 214.281 17.6C213.027 17.0933 212.001 16.5733 211.201 16.04C210.401 15.5067 209.774 14.9067 209.321 14.24C208.867 13.5733 208.547 12.84 208.361 12.04C208.174 11.2133 208.081 10.28 208.081 9.24ZM236.698 29H231.498C230.512 29 230.018 28.5333 230.018 27.6V8.24H235.218C236.205 8.24 236.698 8.70666 236.698 9.64V29ZM233.378 6.2C232.018 6.2 231.045 5.97333 230.458 5.52C229.898 5.04 229.618 4.25333 229.618 3.16C229.618 2.06667 229.898 1.29333 230.458 0.839998C231.045 0.359998 232.018 0.119998 233.378 0.119998C234.738 0.119998 235.698 0.359998 236.258 0.839998C236.845 1.29333 237.138 2.06667 237.138 3.16C237.138 4.25333 236.845 5.04 236.258 5.52C235.698 5.97333 234.738 6.2 233.378 6.2ZM258.998 29H253.798C252.811 29 252.318 28.5333 252.318 27.6V15.48C252.318 14.7867 252.184 14.28 251.918 13.96C251.678 13.6133 251.211 13.44 250.518 13.44C250.144 13.44 249.758 13.5067 249.358 13.64C248.984 13.7467 248.638 13.9333 248.318 14.2V29H243.118C242.131 29 241.638 28.5333 241.638 27.6V8.24H245.478C246.091 8.24 246.504 8.34666 246.718 8.56C246.958 8.74667 247.184 9.17333 247.398 9.84L247.638 10.56C248.571 9.54667 249.478 8.82667 250.358 8.4C251.238 7.97333 252.264 7.76 253.438 7.76C254.558 7.76 255.518 7.98667 256.318 8.44C257.144 8.86667 257.784 9.57333 258.238 10.56C259.011 9.65333 259.878 8.96 260.838 8.48C261.798 8 262.878 7.76 264.078 7.76C267.811 7.76 269.678 10.1067 269.678 14.8V29H264.478C263.491 29 262.998 28.5333 262.998 27.6V15.48C262.998 14.7867 262.864 14.28 262.598 13.96C262.358 13.6133 261.891 13.44 261.198 13.44C260.824 13.44 260.438 13.5067 260.038 13.64C259.664 13.7467 259.318 13.9333 258.998 14.2V29ZM285.427 8.24H290.627C291.614 8.24 292.107 8.70666 292.107 9.64V29H288.267C287.654 29 287.227 28.9067 286.987 28.72C286.774 28.5067 286.56 28.0667 286.347 27.4L286.107 26.68C285.174 27.6933 284.254 28.4133 283.347 28.84C282.467 29.2667 281.427 29.48 280.227 29.48C276.44 29.48 274.547 27.1333 274.547 22.44V8.24H279.747C280.734 8.24 281.227 8.70666 281.227 9.64V21.76C281.227 22.4533 281.36 22.9733 281.627 23.32C281.894 23.64 282.387 23.8 283.107 23.8C283.507 23.8 283.92 23.7333 284.347 23.6C284.774 23.4667 285.134 23.2667 285.427 23V8.24ZM303.668 22.68C303.668 23.2133 303.748 23.6 303.908 23.84C304.068 24.0533 304.414 24.1867 304.948 24.24C305.481 24.2933 305.801 24.44 305.908 24.68C306.014 24.92 306.068 25.2933 306.068 25.8V28.76C305.374 28.9733 304.774 29.1333 304.268 29.24C303.761 29.3467 303.108 29.4 302.308 29.4C301.508 29.4 300.774 29.2933 300.108 29.08C299.468 28.8933 298.908 28.56 298.428 28.08C297.974 27.5733 297.614 26.8933 297.348 26.04C297.108 25.1867 296.988 24.12 296.988 22.84V0.279998H302.188C303.174 0.279998 303.668 0.746665 303.668 1.68V22.68ZM315.18 29.24C313.26 29.24 311.78 28.6667 310.74 27.52C309.727 26.3733 309.22 24.7467 309.22 22.64C309.22 21.2 309.447 20.0533 309.9 19.2C310.38 18.32 311.007 17.6667 311.78 17.24C312.553 16.7867 313.433 16.4933 314.42 16.36C315.407 16.2267 316.433 16.16 317.5 16.16H319.94V14.96C319.94 14.1067 319.647 13.5867 319.06 13.4C318.473 13.1867 317.567 13.08 316.34 13.08C315.247 13.08 314.26 13.1067 313.38 13.16C312.527 13.2133 311.98 13.24 311.74 13.24C311.233 13.24 310.873 13.1067 310.66 12.84C310.447 12.5733 310.34 12.2667 310.34 11.92V9.12C311.087 8.8 312.087 8.49333 313.34 8.2C314.593 7.90667 316.033 7.76 317.66 7.76C320.78 7.76 323.02 8.41333 324.38 9.72C325.74 11.0267 326.42 12.8933 326.42 15.32V29H322.58C322.287 29 322.033 28.9867 321.82 28.96C321.633 28.9067 321.473 28.8267 321.34 28.72C321.207 28.5867 321.087 28.4133 320.98 28.2C320.873 27.9867 320.767 27.72 320.66 27.4L320.42 26.76C319.887 27.3467 319.193 27.9067 318.34 28.44C317.487 28.9733 316.433 29.24 315.18 29.24ZM319.9 20.04H317.34C316.46 20.04 315.833 20.24 315.46 20.64C315.113 21.0133 314.94 21.5467 314.94 22.24C314.94 23.0667 315.14 23.64 315.54 23.96C315.94 24.2533 316.513 24.4 317.26 24.4C318.327 24.4 319.207 24.1333 319.9 23.6V20.04ZM343.603 28.76C342.803 29 342.07 29.1733 341.403 29.28C340.763 29.3867 340.056 29.44 339.283 29.44C338.216 29.44 337.256 29.3333 336.403 29.12C335.576 28.9067 334.856 28.5333 334.243 28C333.656 27.44 333.203 26.7067 332.883 25.8C332.563 24.8667 332.403 23.6933 332.403 22.28V13.4H331.603C330.616 13.4 330.123 12.9333 330.123 12V8.24H332.643L332.963 3.2H337.603C338.59 3.2 339.083 3.66667 339.083 4.6V8.24H342.123C343.11 8.24 343.603 8.70666 343.603 9.64V13.4H339.083V22.16C339.083 23.5733 339.71 24.28 340.963 24.28H342.123C343.11 24.28 343.603 24.7467 343.603 25.68V28.76ZM354.35 29H349.15C348.163 29 347.67 28.5333 347.67 27.6V8.24H352.87C353.857 8.24 354.35 8.70666 354.35 9.64V29ZM351.03 6.2C349.67 6.2 348.697 5.97333 348.11 5.52C347.55 5.04 347.27 4.25333 347.27 3.16C347.27 2.06667 347.55 1.29333 348.11 0.839998C348.697 0.359998 349.67 0.119998 351.03 0.119998C352.39 0.119998 353.35 0.359998 353.91 0.839998C354.497 1.29333 354.79 2.06667 354.79 3.16C354.79 4.25333 354.497 5.04 353.91 5.52C353.35 5.97333 352.39 6.2 351.03 6.2ZM368.009 29.52C366.383 29.52 364.983 29.32 363.809 28.92C362.663 28.4933 361.716 27.84 360.969 26.96C360.249 26.08 359.716 24.96 359.369 23.6C359.049 22.2133 358.889 20.56 358.889 18.64C358.889 16.6933 359.049 15.04 359.369 13.68C359.716 12.2933 360.249 11.16 360.969 10.28C361.716 9.4 362.663 8.76 363.809 8.36C364.983 7.96 366.383 7.76 368.009 7.76C369.636 7.76 371.023 7.96 372.169 8.36C373.343 8.76 374.289 9.4 375.009 10.28C375.756 11.16 376.289 12.2933 376.609 13.68C376.956 15.04 377.129 16.6933 377.129 18.64C377.129 20.56 376.956 22.2133 376.609 23.6C376.289 24.96 375.756 26.08 375.009 26.96C374.289 27.84 373.343 28.4933 372.169 28.92C371.023 29.32 369.636 29.52 368.009 29.52ZM370.369 18.64C370.369 17.36 370.329 16.3467 370.249 15.6C370.196 14.8267 370.076 14.24 369.889 13.84C369.703 13.4133 369.463 13.1333 369.169 13C368.876 12.8667 368.489 12.8 368.009 12.8C367.529 12.8 367.143 12.8667 366.849 13C366.556 13.1333 366.316 13.4133 366.129 13.84C365.943 14.24 365.809 14.8267 365.729 15.6C365.676 16.3467 365.649 17.36 365.649 18.64C365.649 19.9467 365.676 20.9867 365.729 21.76C365.809 22.5333 365.943 23.1333 366.129 23.56C366.316 23.96 366.556 24.2267 366.849 24.36C367.143 24.4933 367.529 24.56 368.009 24.56C368.489 24.56 368.876 24.4933 369.169 24.36C369.463 24.2267 369.703 23.96 369.889 23.56C370.076 23.1333 370.196 22.5333 370.249 21.76C370.329 20.9867 370.369 19.9467 370.369 18.64ZM388.293 29H383.093C382.106 29 381.613 28.5333 381.613 27.6V8.24H385.453C386.066 8.24 386.479 8.34666 386.693 8.56C386.933 8.74667 387.159 9.17333 387.373 9.84L387.613 10.56C388.546 9.54667 389.453 8.82667 390.333 8.4C391.239 7.97333 392.293 7.76 393.493 7.76C397.279 7.76 399.173 10.1067 399.173 14.8V29H393.973C392.986 29 392.493 28.5333 392.493 27.6V15.48C392.493 14.7867 392.359 14.28 392.093 13.96C391.826 13.6133 391.333 13.44 390.613 13.44C390.213 13.44 389.799 13.5067 389.373 13.64C388.946 13.7733 388.586 13.9733 388.293 14.24V29Z" fill="#664AE5"/>
</svg>
