<?xml version="1.0" encoding="utf-8"?>
<!-- Generator: Adobe Illustrator 18.0.0, SVG Export Plug-In . SVG Version: 6.00 Build 0)  -->
<!DOCTYPE svg PUBLIC "-//W3C//DTD SVG 1.1//EN" "http://www.w3.org/Graphics/SVG/1.1/DTD/svg11.dtd">
<svg version="1.1" id="ecommerce_1_" xmlns="http://www.w3.org/2000/svg" xmlns:xlink="http://www.w3.org/1999/xlink" x="0px"
	 y="0px" viewBox="0 0 115 115" style="enable-background:new 0 0 115 115;" xml:space="preserve">
<style type="text/css">
	.st0{fill:#FFEEAD;}
	.st1{fill:#C9B77D;}
	.st2{fill:#99734A;}
	.st3{fill:#FF6F69;}
	.st4{fill:#96CEB4;}
	.st5{fill:none;}
	.st6{fill:#AA9865;}
	.st7{fill:#71A58A;}
	.st8{fill:#FFCC5C;}
	.st9{fill:#825E3B;}
	.st10{fill:#639376;}
	.st11{fill:#E05858;}
	.st12{fill:#C1821E;}
	.st13{fill:#D6A041;}
	.st14{fill:#B28559;}
	.st15{fill:#BF4343;}
	.st16{fill:#D3C089;}
	.st17{fill:#7C5C3C;}
	.st18{fill:#FDCC5C;}
	.st19{fill:#FFFFFF;}
</style>
<g id="budget_list_1_">
	<g>
		<g>
			<path class="st0" d="M72.4,0h-1.172c-0.75,0-1.422,0.439-1.711,1.109c-0.818,1.897-2.749,3.232-5.005,3.232
				s-4.187-1.334-5.005-3.232C59.219,0.439,58.547,0,57.797,0h-0.764c-0.75,0-1.422,0.439-1.711,1.109
				c-0.818,1.897-2.749,3.232-5.005,3.232c-2.256,0-4.187-1.334-5.005-3.232C45.024,0.439,44.352,0,43.602,0h-0.764
				c-0.75,0-1.422,0.439-1.711,1.109c-0.818,1.897-2.749,3.232-5.005,3.232c-2.256,0-4.187-1.334-5.005-3.232
				C30.829,0.439,30.157,0,29.407,0h-0.764c-0.75,0-1.422,0.439-1.711,1.109c-0.818,1.897-2.749,3.232-5.005,3.232
				s-4.187-1.334-5.005-3.232C16.633,0.439,15.962,0,15.212,0H14.04c-1.026,0-1.858,0.806-1.858,1.8v105.134
				c0,0.994,0.832,1.8,1.858,1.8h1.172c0.75,0,1.422-0.439,1.711-1.11c0.818-1.897,2.749-3.232,5.005-3.232s4.187,1.334,5.005,3.232
				c0.289,0.671,0.961,1.11,1.711,1.11h0.764c0.75,0,1.422-0.439,1.711-1.11c0.818-1.897,2.749-3.232,5.005-3.232
				c2.256,0,4.187,1.334,5.005,3.232c0.289,0.671,0.961,1.11,1.711,1.11h0.764c0.75,0,1.422-0.439,1.711-1.11
				c0.818-1.897,2.749-3.232,5.005-3.232c2.256,0,4.187,1.334,5.005,3.232c0.289,0.671,0.961,1.11,1.711,1.11h0.764
				c0.75,0,1.422-0.439,1.711-1.11c0.818-1.897,2.749-3.232,5.005-3.232s4.187,1.334,5.005,3.232c0.289,0.671,0.961,1.11,1.711,1.11
				H72.4c1.026,0,1.858-0.806,1.858-1.8V1.8C74.259,0.806,73.427,0,72.4,0z"/>
		</g>
	</g>
	<g>
		<g>
			<path class="st1" d="M52.604,35.885c-2.684,0-4.859,2.175-4.859,4.859v63.623c0,0.216,0.036,0.422,0.064,0.631
				c0.751-0.382,1.601-0.606,2.509-0.606c2.256,0,4.187,1.334,5.005,3.232c0.289,0.671,0.961,1.109,1.711,1.109h0.764
				c0.75,0,1.422-0.439,1.711-1.109c0.818-1.897,2.749-3.232,5.005-3.232c2.256,0,4.187,1.334,5.005,3.232
				c0.289,0.671,0.961,1.109,1.711,1.109H72.4c1.026,0,1.858-0.806,1.858-1.8V35.885H52.604z"/>
		</g>
	</g>
	<g>
		<g>
			<g>
				<path class="st7" d="M30.077,40.708c-2.064-1.571-3.081-2.341-3.081-3.081c0-0.216,0.123-0.462,0.401-0.462
					c0.246,0,0.801,1.171,1.017,1.171l4.221-0.216c0.215-0.031,0.339-0.154,0.339-0.339c0-2.711-1.725-5.052-4.559-5.638
					c0-1.818,0-2.002-0.247-2.002h-2.249c-0.123,0-0.215,0.123-0.215,0.277v1.694c-2.865,0.586-4.406,3.05-4.406,5.391
					c0,2.218,1.14,4.036,2.896,5.299c2.434,1.756,3.173,2.433,3.173,3.234c0,0.4-0.277,0.678-0.678,0.678
					c-0.709,0-1.202-0.647-1.417-1.726c-0.062-0.277-0.154-0.339-0.339-0.339l-3.912,0.216c-0.154,0.03-0.246,0.123-0.246,0.277
					c0,3.635,1.694,5.761,4.929,6.346c0,1.848,0,2.064,0.246,2.064h2.218c0.123,0,0.247-0.123,0.247-0.247v-1.786
					c2.865-0.555,4.59-2.65,4.59-5.73C33.003,43.881,31.987,42.156,30.077,40.708z"/>
			</g>
		</g>
		<g>
			<g>
				<path class="st7" d="M65.203,30.514H40.956c-0.611,0-1.111,0.5-1.111,1.111v0.193c0,0.611,0.5,1.111,1.111,1.111h24.247
					c0.611,0,1.111-0.5,1.111-1.111v-0.193C66.314,31.013,65.814,30.514,65.203,30.514z"/>
			</g>
		</g>
		<g>
			<g>
				<path class="st7" d="M65.203,37.676H40.956c-0.611,0-1.111,0.5-1.111,1.111v0.193c0,0.611,0.5,1.111,1.111,1.111h24.247
					c0.611,0,1.111-0.5,1.111-1.111v-0.193C66.314,38.176,65.814,37.676,65.203,37.676z"/>
			</g>
		</g>
		<g>
			<g>
				<path class="st7" d="M65.203,44.838H40.956c-0.611,0-1.111,0.5-1.111,1.111v0.193c0,0.611,0.5,1.111,1.111,1.111h24.247
					c0.611,0,1.111-0.5,1.111-1.111v-0.193C66.314,45.338,65.814,44.838,65.203,44.838z"/>
			</g>
		</g>
		<g>
			<g>
				<path class="st7" d="M65.203,52.001H40.956c-0.611,0-1.111,0.5-1.111,1.111v0.193c0,0.611,0.5,1.111,1.111,1.111h24.247
					c0.611,0,1.111-0.5,1.111-1.111v-0.193C66.314,52.5,65.814,52.001,65.203,52.001z"/>
			</g>
		</g>
		<g>
			<g>
				<path class="st7" d="M65.203,60.049H31.096c-0.611,0-1.111,0.5-1.111,1.111v0.193c0,0.611,0.5,1.111,1.111,1.111h34.106
					c0.611,0,1.111-0.5,1.111-1.111V61.16C66.314,60.549,65.814,60.049,65.203,60.049z"/>
			</g>
		</g>
		<g>
			<g>
				<path class="st7" d="M65.203,22.256H21.237c-0.611,0-1.111,0.5-1.111,1.111v0.193c0,0.611,0.5,1.111,1.111,1.111h43.966
					c0.611,0,1.111-0.5,1.111-1.111v-0.193C66.314,22.756,65.814,22.256,65.203,22.256z"/>
			</g>
		</g>
		<g>
			<g>
				<path class="st7" d="M65.203,67.211H31.096c-0.611,0-1.111,0.5-1.111,1.111v0.193c0,0.611,0.5,1.111,1.111,1.111h34.106
					c0.611,0,1.111-0.5,1.111-1.111v-0.193C66.314,67.712,65.814,67.211,65.203,67.211z"/>
			</g>
		</g>
		<g>
			<g>
				<path class="st7" d="M65.203,74.374H31.096c-0.611,0-1.111,0.5-1.111,1.111v0.193c0,0.611,0.5,1.111,1.111,1.111h34.106
					c0.611,0,1.111-0.5,1.111-1.111v-0.193C66.314,74.874,65.814,74.374,65.203,74.374z"/>
			</g>
		</g>
		<g>
			<g>
				<path class="st7" d="M65.203,81.536H31.096c-0.611,0-1.111,0.5-1.111,1.111v0.193c0,0.611,0.5,1.111,1.111,1.111h34.106
					c0.611,0,1.111-0.5,1.111-1.111v-0.193C66.314,82.036,65.814,81.536,65.203,81.536z"/>
			</g>
		</g>
		<g>
			<g>
				<path class="st7" d="M65.203,88.698H31.096c-0.611,0-1.111,0.5-1.111,1.111v0.193c0,0.611,0.5,1.111,1.111,1.111h34.106
					c0.611,0,1.111-0.5,1.111-1.111V89.81C66.314,89.198,65.814,88.698,65.203,88.698z"/>
			</g>
		</g>
		<g>
			<g>
				<path class="st7" d="M25.96,60.049h-3.433c-0.611,0-1.111,0.5-1.111,1.111v0.193c0,0.611,0.5,1.111,1.111,1.111h3.433
					c0.611,0,1.111-0.5,1.111-1.111V61.16C27.071,60.549,26.571,60.049,25.96,60.049z"/>
			</g>
		</g>
		<g>
			<g>
				<path class="st7" d="M25.96,67.211h-3.433c-0.611,0-1.111,0.5-1.111,1.111v0.193c0,0.611,0.5,1.111,1.111,1.111h3.433
					c0.611,0,1.111-0.5,1.111-1.111v-0.193C27.071,67.712,26.571,67.211,25.96,67.211z"/>
			</g>
		</g>
		<g>
			<g>
				<path class="st7" d="M25.96,74.374h-3.433c-0.611,0-1.111,0.5-1.111,1.111v0.193c0,0.611,0.5,1.111,1.111,1.111h3.433
					c0.611,0,1.111-0.5,1.111-1.111v-0.193C27.071,74.874,26.571,74.374,25.96,74.374z"/>
			</g>
		</g>
		<g>
			<g>
				<path class="st7" d="M25.96,81.536h-3.433c-0.611,0-1.111,0.5-1.111,1.111v0.193c0,0.611,0.5,1.111,1.111,1.111h3.433
					c0.611,0,1.111-0.5,1.111-1.111v-0.193C27.071,82.036,26.571,81.536,25.96,81.536z"/>
			</g>
		</g>
		<g>
			<g>
				<path class="st7" d="M25.96,88.698h-3.433c-0.611,0-1.111,0.5-1.111,1.111v0.193c0,0.611,0.5,1.111,1.111,1.111h3.433
					c0.611,0,1.111-0.5,1.111-1.111V89.81C27.071,89.198,26.571,88.698,25.96,88.698z"/>
			</g>
		</g>
	</g>
	<g>
		<g>
			<g>
				<path class="st10" d="M65.203,37.676H48.865c-0.557,0.678-0.93,1.503-1.054,2.415h17.392c0.611,0,1.111-0.5,1.111-1.111v-0.193
					C66.314,38.176,65.814,37.676,65.203,37.676z"/>
			</g>
		</g>
		<g>
			<g>
				<path class="st10" d="M65.203,44.838H47.745v2.415h17.458c0.611,0,1.111-0.5,1.111-1.111v-0.193
					C66.314,45.338,65.814,44.838,65.203,44.838z"/>
			</g>
		</g>
		<g>
			<g>
				<path class="st10" d="M65.203,52H47.745v2.415h17.458c0.611,0,1.111-0.5,1.111-1.111v-0.193C66.314,52.5,65.814,52,65.203,52z"
					/>
			</g>
		</g>
		<g>
			<g>
				<path class="st10" d="M65.203,60.049H47.745v2.415h17.458c0.611,0,1.111-0.5,1.111-1.111V61.16
					C66.314,60.549,65.814,60.049,65.203,60.049z"/>
			</g>
		</g>
		<g>
			<g>
				<path class="st10" d="M65.203,67.211H47.745v2.415h17.458c0.611,0,1.111-0.5,1.111-1.111v-0.193
					C66.314,67.711,65.814,67.211,65.203,67.211z"/>
			</g>
		</g>
		<g>
			<g>
				<path class="st10" d="M65.203,74.374H47.745v2.415h17.458c0.611,0,1.111-0.5,1.111-1.111v-0.193
					C66.314,74.874,65.814,74.374,65.203,74.374z"/>
			</g>
		</g>
		<g>
			<g>
				<path class="st10" d="M65.203,81.536H47.745v2.415h17.458c0.611,0,1.111-0.5,1.111-1.111v-0.193
					C66.314,82.036,65.814,81.536,65.203,81.536z"/>
			</g>
		</g>
		<g>
			<g>
				<path class="st10" d="M65.203,88.698H47.745v2.415h17.458c0.611,0,1.111-0.5,1.111-1.111V89.81
					C66.314,89.198,65.814,88.698,65.203,88.698z"/>
			</g>
		</g>
	</g>
	<g>
		<g>
			<g>
				<path class="st7" d="M98.235,45.816H57.381c-2.532,0-4.584,2.052-4.584,4.584v60.017c0,2.531,2.052,4.584,4.584,4.584h40.854
					c2.532,0,4.584-2.052,4.584-4.584V50.399C102.819,47.868,100.767,45.816,98.235,45.816z"/>
			</g>
		</g>
		<g>
			<g>
				<path class="st4" d="M98.235,41.793H57.381c-2.532,0-4.584,2.052-4.584,4.584v60.017c0,2.532,2.052,4.584,4.584,4.584h40.854
					c2.532,0,4.584-2.052,4.584-4.584V46.377C102.819,43.845,100.767,41.793,98.235,41.793z"/>
			</g>
		</g>
		<g>
			<g>
				<path class="st0" d="M94.746,48.43H60.869c-2.159,0-3.909,1.75-3.909,3.909v4.865c0,2.159,1.75,3.909,3.909,3.909h33.877
					c2.159,0,3.909-1.75,3.909-3.909v-4.865C98.655,50.18,96.905,48.43,94.746,48.43z"/>
			</g>
		</g>
		<g>
			<g>
				<g>
					<path class="st1" d="M94.746,48.43H60.869c-2.159,0-3.909,1.75-3.909,3.909v1.327c0.041-2.117,1.758-3.827,3.886-3.834
						l33.876-0.122c2.159-0.008,3.915,1.736,3.923,3.895l0.009,2.473v-3.739C98.655,50.18,96.905,48.43,94.746,48.43z"/>
				</g>
			</g>
			<g>
				<g>
					<path class="st1" d="M56.96,56.147v1.057c0,0.013,0.004,0.026,0.004,0.039L56.96,56.147z"/>
				</g>
			</g>
		</g>
		<g>
			<g>
				<g>
					<path class="st11" d="M94.083,83.569h-5.856c-1.298,0-2.35,1.052-2.35,2.35v19.079c0,1.298,1.052,2.35,2.35,2.35h5.856
						c1.298,0,2.35-1.052,2.35-2.35V85.919C96.433,84.621,95.381,83.569,94.083,83.569z"/>
				</g>
			</g>
			<g>
				<g>
					<path class="st2" d="M94.083,70.009h-5.724c-1.298,0-2.35,1.052-2.35,2.35v5.724c0,1.298,1.052,2.35,2.35,2.35h5.724
						c1.298,0,2.35-1.052,2.35-2.35v-5.724C96.433,71.062,95.381,70.009,94.083,70.009z"/>
				</g>
			</g>
			<g>
				<g>
					<path class="st11" d="M67.257,70.009h-5.724c-1.298,0-2.35,1.052-2.35,2.35v5.724c0,1.298,1.052,2.35,2.35,2.35h5.724
						c1.298,0,2.35-1.052,2.35-2.35v-5.724C69.607,71.062,68.554,70.009,67.257,70.009z"/>
				</g>
			</g>
			<g>
				<g>
					<path class="st11" d="M80.716,70.009h-5.724c-1.298,0-2.35,1.052-2.35,2.35v5.724c0,1.298,1.052,2.35,2.35,2.35h5.724
						c1.298,0,2.35-1.052,2.35-2.35v-5.724C83.066,71.062,82.014,70.009,80.716,70.009z"/>
				</g>
			</g>
			<g>
				<g>
					<path class="st11" d="M67.257,83.569h-5.724c-1.298,0-2.35,1.052-2.35,2.35v5.724c0,1.298,1.052,2.35,2.35,2.35h5.724
						c1.298,0,2.35-1.052,2.35-2.35v-5.724C69.607,84.621,68.554,83.569,67.257,83.569z"/>
				</g>
			</g>
			<g>
				<g>
					<path class="st11" d="M80.716,83.569h-5.724c-1.298,0-2.35,1.052-2.35,2.35v5.724c0,1.298,1.052,2.35,2.35,2.35h5.724
						c1.298,0,2.35-1.052,2.35-2.35v-5.724C83.066,84.621,82.014,83.569,80.716,83.569z"/>
				</g>
			</g>
			<g>
				<g>
					<path class="st11" d="M67.257,96.924h-5.724c-1.298,0-2.35,1.052-2.35,2.35v5.724c0,1.298,1.052,2.35,2.35,2.35h5.724
						c1.298,0,2.35-1.052,2.35-2.35v-5.724C69.607,97.976,68.554,96.924,67.257,96.924z"/>
				</g>
			</g>
			<g>
				<g>
					<path class="st11" d="M80.716,96.924h-5.724c-1.298,0-2.35,1.052-2.35,2.35v5.724c0,1.298,1.052,2.35,2.35,2.35h5.724
						c1.298,0,2.35-1.052,2.35-2.35v-5.724C83.066,97.976,82.014,96.924,80.716,96.924z"/>
				</g>
			</g>
			<g>
				<g>
					<circle class="st11" cx="66.266" cy="90.886" r="0.517"/>
				</g>
			</g>
			<g>
				<g>
					<circle class="st11" cx="62.394" cy="86.916" r="0.517"/>
				</g>
			</g>
			<g>
				<g>
					<path class="st3" d="M94.083,82.388h-5.856c-1.298,0-2.35,1.052-2.35,2.35v19.079c0,1.298,1.052,2.35,2.35,2.35h5.856
						c1.298,0,2.35-1.052,2.35-2.35V84.738C96.433,83.44,95.381,82.388,94.083,82.388z"/>
				</g>
			</g>
			<g>
				<g>
					<path class="st8" d="M94.083,68.828h-5.724c-1.298,0-2.35,1.052-2.35,2.35v5.724c0,1.298,1.052,2.35,2.35,2.35h5.724
						c1.298,0,2.35-1.052,2.35-2.35v-5.724C96.433,69.88,95.381,68.828,94.083,68.828z"/>
				</g>
			</g>
			<g>
				<g>
					<path class="st3" d="M67.257,68.828h-5.724c-1.298,0-2.35,1.052-2.35,2.35v5.724c0,1.298,1.052,2.35,2.35,2.35h5.724
						c1.298,0,2.35-1.052,2.35-2.35v-5.724C69.607,69.88,68.554,68.828,67.257,68.828z"/>
				</g>
			</g>
			<g>
				<g>
					<path class="st3" d="M80.716,68.828h-5.724c-1.298,0-2.35,1.052-2.35,2.35v5.724c0,1.298,1.052,2.35,2.35,2.35h5.724
						c1.298,0,2.35-1.052,2.35-2.35v-5.724C83.066,69.88,82.014,68.828,80.716,68.828z"/>
				</g>
			</g>
			<g>
				<g>
					<path class="st3" d="M67.257,82.388h-5.724c-1.298,0-2.35,1.052-2.35,2.35v5.724c0,1.298,1.052,2.35,2.35,2.35h5.724
						c1.298,0,2.35-1.052,2.35-2.35v-5.724C69.607,83.44,68.554,82.388,67.257,82.388z"/>
				</g>
			</g>
			<g>
				<g>
					<path class="st3" d="M80.716,82.388h-5.724c-1.298,0-2.35,1.052-2.35,2.35v5.724c0,1.298,1.052,2.35,2.35,2.35h5.724
						c1.298,0,2.35-1.052,2.35-2.35v-5.724C83.066,83.44,82.014,82.388,80.716,82.388z"/>
				</g>
			</g>
			<g>
				<g>
					<path class="st3" d="M67.257,95.743h-5.724c-1.298,0-2.35,1.052-2.35,2.35v5.724c0,1.298,1.052,2.35,2.35,2.35h5.724
						c1.298,0,2.35-1.052,2.35-2.35v-5.724C69.607,96.795,68.554,95.743,67.257,95.743z"/>
				</g>
			</g>
			<g>
				<g>
					<path class="st3" d="M80.716,95.743h-5.724c-1.298,0-2.35,1.052-2.35,2.35v5.724c0,1.298,1.052,2.35,2.35,2.35h5.724
						c1.298,0,2.35-1.052,2.35-2.35v-5.724C83.066,96.795,82.014,95.743,80.716,95.743z"/>
				</g>
			</g>
			<g>
				<g>
					<circle class="st3" cx="66.266" cy="89.705" r="0.517"/>
				</g>
			</g>
			<g>
				<g>
					<circle class="st3" cx="62.394" cy="85.735" r="0.517"/>
				</g>
			</g>
		</g>
	</g>
</g>
</svg>
