<?xml version="1.0" encoding="utf-8"?>
<!-- Generator: Adobe Illustrator 22.1.0, SVG Export Plug-In . SVG Version: 6.00 Build 0)  -->
<svg version="1.1" id="Layer_1" xmlns="http://www.w3.org/2000/svg" xmlns:xlink="http://www.w3.org/1999/xlink" x="0px" y="0px"
	 viewBox="0 0 256 256" style="enable-background:new 0 0 256 256;" xml:space="preserve">
<style type="text/css">
	.st0{fill:#231F20;}
	.st1{fill:#FFEFE4;}
	.st2{fill:#69EBFC;}
	.st3{fill:#5FD4E3;}
	.st4{fill:#A1F1FC;}
	.st5{fill:#D476E2;}
	.st6{fill:#B665C2;}
	.st7{fill:#EA82FA;}
	.st8{fill:#FFF7F2;}
	.st9{fill:#FF8354;}
	.st10{fill:#FFA172;}
	.st11{fill:#6770E6;}
	.st12{fill:#5861C7;}
	.st13{fill:#E0734A;}
	.st14{fill:#EDD4C2;}
	.st15{fill:#CC6944;}
	.st16{fill:#858EFF;}
	.st17{fill:#C76642;}
	.st18{fill:#FFFFFF;}
	.st19{fill:#FFDEC7;}
	.st20{fill:#4E56B0;}
	.st21{fill:#94529E;}
	.st22{fill:#41B6C5;}
	.st23{fill:#9847A4;}
	.st24{fill:#C2552C;}
	.st25{fill:#CFB6A4;}
</style>
<g>
	<polygon class="st1" points="236,256 20,256 20,120 128,50 236,120 	"/>
	<rect x="20" y="219" class="st4" width="21.6" height="37"/>
	<rect x="41.6" y="219" class="st2" width="21.6" height="37"/>
	<rect x="63.2" y="219" class="st4" width="21.6" height="37"/>
	<rect x="84.8" y="219" class="st2" width="21.6" height="37"/>
	<rect x="106.4" y="219" class="st4" width="21.6" height="37"/>
	<rect x="128" y="219" class="st2" width="21.6" height="37"/>
	<rect x="149.6" y="219" class="st4" width="21.6" height="37"/>
	<rect x="171.2" y="219" class="st2" width="21.6" height="37"/>
	<rect x="192.8" y="219" class="st4" width="21.6" height="37"/>
	<rect x="214.4" y="219" class="st2" width="21.6" height="37"/>
	<rect x="20" y="250" class="st2" width="21.6" height="6"/>
	<rect x="41.6" y="250" class="st3" width="21.6" height="6"/>
	<rect x="63.2" y="250" class="st2" width="21.6" height="6"/>
	<rect x="84.8" y="250" class="st3" width="21.6" height="6"/>
	<rect x="106.4" y="250" class="st2" width="21.6" height="6"/>
	<rect x="128" y="250" class="st3" width="21.6" height="6"/>
	<rect x="149.6" y="250" class="st2" width="21.6" height="6"/>
	<rect x="171.2" y="250" class="st3" width="21.6" height="6"/>
	<rect x="192.8" y="250" class="st2" width="21.6" height="6"/>
	<rect x="214.4" y="250" class="st3" width="21.6" height="6"/>
	<rect x="20" y="209" class="st3" width="216" height="10"/>
	<polygon class="st9" points="256,103 128,20 0,103 0,133 128,50 256,133 	"/>
	<polygon class="st10" points="128,20 0,103 0,109 128,26 256,109 256,103 	"/>
	<polygon class="st1" points="230,86 170,47 170,20 230,20 	"/>
	<rect x="163" class="st14" width="73" height="20"/>
	<rect x="163" class="st1" width="73" height="6"/>
	<rect x="83" y="136" class="st6" width="90" height="120"/>
	<rect x="83" y="250" class="st23" width="90" height="6"/>
	<rect x="73" y="166" transform="matrix(-1.836970e-16 1 -1 -1.836970e-16 329 73)" class="st5" width="110" height="70"/>
	<rect x="125" y="218" transform="matrix(-1.836970e-16 1 -1 -1.836970e-16 381 125)" class="st6" width="6" height="70"/>
	<circle class="st6" cx="150" cy="201" r="5"/>
</g>
</svg>
