<svg xmlns="http://www.w3.org/2000/svg" viewBox="0 0 48 48"><defs><style>.cls-1{fill:#dad7e5;}.cls-2{fill:#edebf2;}.cls-3{fill:#db5669;}.cls-4{fill:#f26674;}.cls-5{fill:#fc6;}.cls-6{fill:#ffde76;}.cls-7{fill:#6fabe6;}.cls-8{fill:#919191;}.cls-9{fill:#82bcf4;}</style></defs><title>store growth</title><g id="store_growth" data-name="store growth"><rect class="cls-1" x="6" y="15.46" width="36" height="31.54"/><path class="cls-2" d="M42,15.46V45H12a3,3,0,0,1-3-3V15.46Z"/><path class="cls-3" d="M12,15c0,1.32.11,2.65-1.28,3.93A4,4,0,0,1,4,16V15Z"/><path class="cls-4" d="M12,15c0,1.32.11,2.65-1.28,3.93A4,4,0,0,1,6,15Z"/><path class="cls-5" d="M20,15v1a4,4,0,0,1-8,0V15Z"/><path class="cls-3" d="M28,15v1a4,4,0,0,1-8,0V15Z"/><path class="cls-5" d="M36,15v1a4,4,0,0,1-8,0V15Z"/><path class="cls-3" d="M44,15v1a4,4,0,0,1-8,0V15Z"/><polygon class="cls-3" points="14 6 12 15 4 15 7 6 14 6"/><path class="cls-4" d="M14,6l-1.56,7h-3a2,2,0,0,1-1.89-2.63L9,6Z"/><polygon class="cls-5" points="21 6 20 15 12 15 14 6 21 6"/><path class="cls-6" d="M21,6l-.78,7H16.93A2,2,0,0,1,15,10.56L16,6Z"/><polygon class="cls-3" points="28 15 20 15 21 6 27 6 28 15"/><path class="cls-4" d="M27.78,13H24.46a2,2,0,0,1-2-2.22L23,6h4Z"/><polygon class="cls-5" points="36 15 28 15 27 6 34 6 36 15"/><path class="cls-6" d="M35.56,13h-4a2,2,0,0,1-2-1.78L29,6h5Z"/><polygon class="cls-3" points="44 15 36 15 34 6 41 6 44 15"/><path class="cls-4" d="M43.33,13H39.16a2,2,0,0,1-1.95-1.56L36,6h5Z"/><rect class="cls-1" x="7" y="1" width="34" height="5"/><path class="cls-2" d="M41,1V4H13a3,3,0,0,1-3-3Z"/><rect class="cls-7" x="11" y="37" width="6" height="10"/><rect class="cls-7" x="21" y="33" width="6" height="14"/><rect class="cls-7" x="31" y="29" width="6" height="18"/><path class="cls-8" d="M44,48H4a1,1,0,0,1,0-2H44A1,1,0,0,1,44,48Z"/><path class="cls-4" d="M20.23,23.32a1,1,0,0,0-.34,2l1.56.28-8,5.61A1,1,0,0,0,14,33c.45,0-.12.3,8.6-5.8l-.28,1.57a1,1,0,0,0,2,.34C25.31,23.32,26.08,24.35,20.23,23.32Z"/><path class="cls-9" d="M17,37c0,8.55-.1,8,0,8a4,4,0,0,1-4-4V37Z"/><path class="cls-9" d="M27,33c0,12.64-.1,12,0,12a4,4,0,0,1-4-4V33Z"/><path class="cls-9" d="M37,29c0,16.82-.1,16,0,16a4,4,0,0,1-4-4V29Z"/><path class="cls-6" d="M20,15c0,1.32.11,2.65-1.28,3.93A4,4,0,0,1,14,15Z"/><path class="cls-4" d="M28,15c0,1.32.11,2.65-1.28,3.93A4,4,0,0,1,22,15Z"/><path class="cls-6" d="M36,15c0,1.32.11,2.65-1.28,3.93A4,4,0,0,1,30,15Z"/><path class="cls-4" d="M44,15c0,1.32.11,2.65-1.28,3.93A4,4,0,0,1,38,15Z"/></g></svg>