<svg xmlns="http://www.w3.org/2000/svg" viewBox="0 0 48 48"><defs><style>.cls-1{fill:#9dcc6b;}.cls-2{fill:#b5e08c;}.cls-3{fill:#6fabe6;}.cls-4{fill:#db5669;}.cls-5{fill:#f26674;}.cls-6{fill:#82bcf4;}.cls-7{fill:#84b749;}</style></defs><title>Fund Growth</title><g id="Fund_Growth" data-name="Fund Growth"><rect class="cls-1" x="1" y="21" width="46" height="26"/><path class="cls-2" d="M47,21V45H6a3,3,0,0,1-3-3V21Z"/><rect class="cls-3" x="11" y="15" width="6" height="6"/><rect class="cls-3" x="21" y="11" width="6" height="10"/><path class="cls-4" d="M39,7H37V21H31V7H29l5-6Z"/><path class="cls-5" d="M39,7H37V19a4,4,0,0,1-4-4V7H31l4-4.8Z"/><path class="cls-6" d="M17,15v4a4,4,0,0,1-4-4Z"/><path class="cls-6" d="M27,11c0,8.55-.1,8,0,8a4,4,0,0,1-4-4V11Z"/><path class="cls-7" d="M24,37a1,1,0,0,1-1-1,1,1,0,0,0-1-1c-1.66,0-1.21,3,1,3.82a1,1,0,1,0,2,0A3,3,0,0,0,24,33a1,1,0,1,1,1-1,1,1,0,0,0,1,1c1.66,0,1.21-3-1-3.82a1,1,0,1,0-2,0A3,3,0,0,0,24,35,1,1,0,0,1,24,37Z"/><path class="cls-7" d="M43,27a2,2,0,0,1-2-2,1,1,0,0,0-1-1H8a1,1,0,0,0-1,1,2,2,0,0,1-2,2,1,1,0,0,0-1,1V40a1,1,0,0,0,1,1,2,2,0,0,1,2,2,1,1,0,0,0,1,1H40a1,1,0,0,0,1-1,2,2,0,0,1,2-2,1,1,0,0,0,1-1V28A1,1,0,0,0,43,27ZM32,34a8,8,0,1,1-8-8A8,8,0,0,1,32,34ZM8.87,42A4,4,0,0,0,6,39.13V28.87A4,4,0,0,0,8.87,26H18a10,10,0,0,0,0,16ZM42,39.13A4,4,0,0,0,39.13,42H30a10,10,0,0,0,0-16h9.16A4,4,0,0,0,42,28.87Z"/></g></svg>