<svg xmlns="http://www.w3.org/2000/svg" viewBox="0 0 48 48"><defs><style>.cls-1{fill:#db5669;}.cls-2{fill:#f26674;}.cls-3{fill:#6fabe6;}.cls-4{fill:#425b72;}.cls-5{fill:#82bcf4;}</style></defs><title>graphic growth goal</title><g id="graphic_growth_goal" data-name="graphic growth goal"><polygon class="cls-1" points="40 2 40 8 32 8 34 5 32 2 40 2"/><path class="cls-2" d="M40,2V6H38a4,4,0,0,1-4-4Z"/><rect class="cls-3" x="4" y="31" width="8" height="16"/><rect class="cls-3" x="12" y="27" width="8" height="20"/><rect class="cls-3" x="20" y="23" width="8" height="24"/><rect class="cls-3" x="28" y="19" width="8" height="28"/><rect class="cls-3" x="36" y="15" width="8" height="32"/><path class="cls-4" d="M39,15V1a1,1,0,0,1,2,0V15A1,1,0,0,1,39,15Z"/><path class="cls-2" d="M17.23,11.32a1,1,0,0,0-.34,2l1.54.27-11,7.62A1,1,0,0,0,8,23c.45,0-.4.49,11.6-7.81l-.28,1.58a1,1,0,0,0,2,.34C22.32,11.27,23,12.33,17.23,11.32Z"/><path class="cls-4" d="M47,48H1a1,1,0,0,1,0-2H47A1,1,0,0,1,47,48Z"/><path class="cls-5" d="M12,31c0,14.74-.1,14,0,14a5,5,0,0,1-5-5V31Z"/><path class="cls-5" d="M20,27c0,18.76-.1,18,0,18a5,5,0,0,1-5-5V27Z"/><path class="cls-5" d="M28,23c0,23.28-.1,22,0,22a5,5,0,0,1-5-5V23Z"/><path class="cls-5" d="M36,19c0,27.19-.1,26,0,26a5,5,0,0,1-5-5V19Z"/><path class="cls-5" d="M44,15c0,31.16-.1,30,0,30a5,5,0,0,1-5-5V15Z"/></g></svg>