<svg width="156" height="107" viewBox="0 0 156 107" fill="none" xmlns="http://www.w3.org/2000/svg">
<g filter="url(#filter0_d_265_757)">
<path d="M34.7058 77.5518L38.857 48.7224C38.9553 48.0391 39.7003 47.657 40.3119 47.9761L73.8521 65.4814C74.0478 65.5835 74.272 65.6179 74.4897 65.5793L116.144 58.1769C116.814 58.0577 117.404 58.6277 117.307 59.3012L113.1 88.5187C113.055 88.8294 112.877 89.0959 112.597 89.2394C109.576 90.79 91.0648 99.6473 68.6244 96.1753C46.1675 92.7008 36.3714 80.3151 34.8618 78.2248C34.7201 78.0284 34.6712 77.7918 34.7058 77.5518Z" fill="url(#paint0_linear_265_757)"/>
<path d="M81.9659 9.91903C82.292 9.8548 82.6302 9.8997 82.927 10.0481L150.863 44.0163C152.142 44.6564 151.879 46.5547 150.473 46.8292L143.986 48.0941L141.093 68.1877C141.376 68.3956 141.538 68.7306 141.487 69.0808C141.437 69.4319 141.185 69.7078 140.854 69.8286L141.833 72.0363L138.26 71.5309L139.823 69.6837C139.538 69.4759 139.374 69.1405 139.425 68.789C139.476 68.4363 139.729 68.1578 140.063 68.038L142.904 48.305L75.1955 61.5153C74.857 61.5814 74.5055 61.5288 74.2017 61.3668L9.57547 26.8935C8.33213 26.2301 8.61297 24.372 9.9976 24.0989L81.9659 9.91903Z" fill="url(#paint1_linear_265_757)"/>
</g>
<defs>
<filter id="filter0_d_265_757" x="4.7832" y="9.89053" width="150.906" height="95.085" filterUnits="userSpaceOnUse" color-interpolation-filters="sRGB">
<feFlood flood-opacity="0" result="BackgroundImageFix"/>
<feColorMatrix in="SourceAlpha" type="matrix" values="0 0 0 0 0 0 0 0 0 0 0 0 0 0 0 0 0 0 127 0" result="hardAlpha"/>
<feOffset dy="4"/>
<feGaussianBlur stdDeviation="2"/>
<feComposite in2="hardAlpha" operator="out"/>
<feColorMatrix type="matrix" values="0 0 0 0 0 0 0 0 0 0 0 0 0 0 0 0 0 0 0.25 0"/>
<feBlend mode="normal" in2="BackgroundImageFix" result="effect1_dropShadow_265_757"/>
<feBlend mode="normal" in="SourceGraphic" in2="effect1_dropShadow_265_757" result="shape"/>
</filter>
<linearGradient id="paint0_linear_265_757" x1="247.149" y1="40.5834" x2="-122.5" y2="69.2703" gradientUnits="userSpaceOnUse">
<stop offset="0.169983"/>
<stop offset="0.757387" stop-color="#686868"/>
</linearGradient>
<linearGradient id="paint1_linear_265_757" x1="241.019" y1="-8.83291" x2="-136.873" y2="97.1892" gradientUnits="userSpaceOnUse">
<stop offset="0.264387"/>
<stop offset="0.925346" stop-color="#868686"/>
</linearGradient>
</defs>
</svg>
