<svg width="100" height="119" viewBox="0 0 100 119" fill="none" xmlns="http://www.w3.org/2000/svg">
<g filter="url(#filter0_d_265_839)">
<path d="M83.0208 106.212C79.2088 109.493 79.1293 110.783 74.2745 110.484L19.0733 107.084C19.0733 107.084 9.77895 105.586 5.72908 95.1594C1.6792 84.7324 9.64122 75.6005 9.64122 75.6005L20.9695 76.2982L25.5682 1.63801L27.936 7.15018L31.8615 2.02565L35.3082 7.60427L40.1327 2.53511L43.2198 8.09158L48.0444 3.02242L51.3113 8.58997L55.7762 3.49866L59.7624 9.11051L64.4071 4.03027L68.2134 9.63105L72.8581 4.55081L76.3049 10.1294L80.7698 5.03812L84.0367 10.6057L88.142 5.49221L91.4089 11.0598L95.3343 5.93522C95.3343 5.93522 90.4089 95.379 89.7138 97.1866C89.0186 98.9942 86.8327 102.931 83.0208 106.212Z" fill="url(#paint0_linear_265_839)"/>
<path d="M19.3801 77.7032L19.3347 78.4401L64.7399 81.2368C64.7236 81.2768 64.706 81.3169 64.6894 81.358C64.1621 82.6582 63.4719 84.4696 62.8211 86.5116C61.5481 90.5061 60.3168 95.7064 61.0269 99.6616C61.7061 103.444 63.0527 105.908 65.2905 107.737C65.6168 108.004 65.9617 108.252 66.3212 108.491L19.2503 105.592C19.1981 105.581 19.1163 105.564 19.008 105.539C18.7831 105.486 18.4448 105.398 18.0212 105.261C17.1723 104.985 15.9878 104.514 14.6845 103.741C12.0906 102.203 9.0104 99.4638 7.12766 94.6167C5.28918 89.8833 6.1583 85.4134 7.55278 82.0439C8.24859 80.3626 9.06458 78.9823 9.70626 78.0251C9.94494 77.6691 10.1607 77.3752 10.3328 77.146L19.3801 77.7032ZM66.9723 10.4746L68.04 12.0442L69.3209 10.6437L72.6256 7.0285L75.0287 10.918L76.0955 12.6441L77.433 11.1189L80.5279 7.5896L82.7433 11.3648L83.8439 13.2417L85.2067 11.5449L87.9493 8.12695L90.1151 11.8188L91.2441 13.7425L92.5997 11.9719L93.5659 10.7086C93.4345 13.0717 93.2618 16.1963 93.0563 19.8547C92.5838 28.2677 91.9466 39.5037 91.2875 50.7957C90.6284 62.0884 89.9478 73.4345 89.3886 82.0692C89.109 86.3873 88.8593 90.0226 88.6588 92.6322C88.5584 93.9379 88.471 94.9785 88.3983 95.7167C88.3619 96.0873 88.3302 96.3701 88.3039 96.567C88.2942 96.6396 88.2853 96.6936 88.2791 96.7318C87.6251 98.3771 85.5849 102.026 82.0424 105.075C81.0597 105.921 80.3055 106.649 79.7056 107.209C79.0857 107.787 78.6578 108.158 78.2387 108.422C77.5477 108.857 76.7213 109.11 74.5908 108.998C71.1586 107.679 68.8501 106.771 67.1888 105.414C65.6366 104.145 64.5666 102.397 63.9801 99.1312C63.4137 95.976 64.4079 91.4132 65.6797 87.4225C66.3013 85.4721 66.9633 83.7349 67.47 82.4851C67.723 81.8615 67.9363 81.361 68.0858 81.0183C68.1605 80.847 68.2191 80.7147 68.2586 80.6268C68.2783 80.5829 68.294 80.5502 68.3038 80.5288C68.3087 80.5181 68.3118 80.5099 68.3141 80.505C68.3151 80.5028 68.3159 80.5012 68.3163 80.5002L68.3174 80.4993L69.2355 78.508L22.5135 75.6302L26.6778 8.02104L27.5685 10.0963L29.1272 8.06232L31.7287 4.66407L34.0322 8.39282L35.0545 10.0467L36.3946 8.63813L39.8123 5.04653L41.9085 8.82023L42.8993 10.6042L44.3064 9.12545L47.7585 5.49879L50.0173 9.34904L51.0693 11.1407L52.4393 9.57943L55.6522 5.91455L58.5396 9.97963L59.6155 11.494L60.8691 10.1231L64.2336 6.44312L66.9723 10.4746Z" stroke="#DDDDDD" stroke-opacity="0.43" stroke-width="3"/>
<path d="M62.4582 99.4229C61.1816 92.3322 67.4882 79.2502 67.4882 79.2502L20.9529 76.3839L9.63316 75.6867C9.63316 75.6867 1.67836 84.7921 5.72646 95.1904C9.77456 105.589 19.062 107.083 19.062 107.083L74.2216 110.481L74.0446 110.413C67.2876 107.82 63.7238 106.452 62.4582 99.4229Z" fill="#6362FF" fill-opacity="0.44"/>
<rect x="31.9873" y="17.1735" width="56.3214" height="2.27339" rx="1.1367" transform="rotate(3.52465 31.9873 17.1735)" fill="#6362FF" fill-opacity="0.57"/>
<rect x="31.3301" y="27.8516" width="13.0724" height="1.87221" rx="0.936103" transform="rotate(3.52465 31.3301 27.8516)" fill="#6362FF" fill-opacity="0.57"/>
<rect x="71.6904" y="30.3376" width="15.0272" height="1.87221" rx="0.936103" transform="rotate(3.52465 71.6904 30.3376)" fill="#6362FF" fill-opacity="0.57"/>
<rect x="70.8926" y="43.2847" width="15.0272" height="2.27339" rx="1.1367" transform="rotate(3.52465 70.8926 43.2847)" fill="#6362FF" fill-opacity="0.57"/>
<rect x="70.0713" y="56.6324" width="15.0272" height="2.13966" rx="1.06983" transform="rotate(3.52465 70.0713 56.6324)" fill="#6362FF" fill-opacity="0.57"/>
<rect x="66.2041" y="29.9996" width="4.3982" height="1.87221" rx="0.936103" transform="rotate(3.52465 66.2041 29.9996)" fill="#6362FF" fill-opacity="0.57"/>
<rect x="65.4062" y="42.9468" width="4.3982" height="2.27339" rx="1.1367" transform="rotate(3.52465 65.4062 42.9468)" fill="#6362FF" fill-opacity="0.57"/>
<rect x="64.585" y="56.2944" width="4.3982" height="2.13966" rx="1.06983" transform="rotate(3.52465 64.585 56.2944)" fill="#6362FF" fill-opacity="0.57"/>
<rect x="55.8398" y="29.3612" width="10.1403" height="1.87221" rx="0.936103" transform="rotate(3.52465 55.8398 29.3612)" fill="#6362FF" fill-opacity="0.57"/>
<rect x="55.042" y="42.3084" width="10.1403" height="2.27339" rx="1.1367" transform="rotate(3.52465 55.042 42.3084)" fill="#6362FF" fill-opacity="0.57"/>
<rect x="54.2197" y="55.656" width="10.1403" height="2.13966" rx="1.06983" transform="rotate(3.52465 54.2197 55.656)" fill="#6362FF" fill-opacity="0.57"/>
<rect x="55.584" y="33.4989" width="22.724" height="2.13966" rx="1.06983" transform="rotate(3.52465 55.584 33.4989)" fill="#6362FF" fill-opacity="0.57"/>
<rect x="54.7705" y="46.7131" width="22.724" height="2.13966" rx="1.06983" transform="rotate(3.52465 54.7705 46.7131)" fill="#6362FF" fill-opacity="0.57"/>
<rect x="53.9561" y="59.9271" width="22.724" height="1.87221" rx="0.936103" transform="rotate(3.52465 53.9561 59.9271)" fill="#6362FF" fill-opacity="0.57"/>
<rect x="79.9727" y="35.001" width="6.47512" height="2.13966" rx="1.06983" transform="rotate(3.52465 79.9727 35.001)" fill="#6362FF" fill-opacity="0.57"/>
<rect x="79.1582" y="48.2152" width="6.47512" height="2.13966" rx="1.06983" transform="rotate(3.52465 79.1582 48.2152)" fill="#6362FF" fill-opacity="0.57"/>
<rect x="78.3438" y="61.4293" width="6.47512" height="1.87221" rx="0.936103" transform="rotate(3.52465 78.3438 61.4293)" fill="#6362FF" fill-opacity="0.57"/>
<rect x="55.3135" y="37.9037" width="6.84164" height="2.54085" rx="1.27043" transform="rotate(3.52465 55.3135 37.9037)" fill="#6362FF" fill-opacity="0.57"/>
<rect x="54.5234" y="50.7173" width="6.84164" height="2.27339" rx="1.1367" transform="rotate(3.52465 54.5234 50.7173)" fill="#6362FF" fill-opacity="0.57"/>
<rect x="53.7021" y="64.065" width="6.84164" height="2.13966" rx="1.06983" transform="rotate(3.52465 53.7021 64.065)" fill="#6362FF" fill-opacity="0.57"/>
<rect x="62.5068" y="38.3467" width="23.7014" height="2.54085" rx="1.27043" transform="rotate(3.52465 62.5068 38.3467)" fill="#6362FF" fill-opacity="0.57"/>
<rect x="61.7178" y="51.1605" width="23.7014" height="2.27339" rx="1.1367" transform="rotate(3.52465 61.7178 51.1605)" fill="#6362FF" fill-opacity="0.57"/>
<rect x="60.8955" y="64.5081" width="23.7014" height="2.13966" rx="1.06983" transform="rotate(3.52465 60.8955 64.5081)" fill="#6362FF" fill-opacity="0.57"/>
<rect x="30.2607" y="45.2035" width="13.0724" height="2.13966" rx="1.06983" transform="rotate(3.52465 30.2607 45.2035)" fill="#6362FF" fill-opacity="0.57"/>
<rect x="31.0752" y="31.9893" width="8.42988" height="2.13966" rx="1.06983" transform="rotate(3.52465 31.0752 31.9893)" fill="#6362FF" fill-opacity="0.57"/>
<rect x="30.0146" y="49.2077" width="8.42988" height="2.27339" rx="1.1367" transform="rotate(3.52465 30.0146 49.2077)" fill="#6362FF" fill-opacity="0.57"/>
<rect x="29.1924" y="62.5553" width="8.42988" height="2.13966" rx="1.06983" transform="rotate(3.52465 29.1924 62.5553)" fill="#6362FF" fill-opacity="0.57"/>
<rect x="30.8037" y="36.394" width="11.2398" height="2.54085" rx="1.27043" transform="rotate(3.52465 30.8037 36.394)" fill="#6362FF" fill-opacity="0.57"/>
<rect x="29.71" y="54.1464" width="11.2398" height="2.13966" rx="1.06983" transform="rotate(3.52465 29.71 54.1464)" fill="#6362FF" fill-opacity="0.57"/>
<rect x="28.8965" y="67.3605" width="11.2398" height="1.87221" rx="0.936103" transform="rotate(3.52465 28.8965 67.3605)" fill="#6362FF" fill-opacity="0.57"/>
<rect x="30.5322" y="40.7988" width="4.0319" height="2.27352" rx="1.13676" transform="rotate(3.52465 30.5322 40.7988)" fill="#6362FF" fill-opacity="0.57"/>
<rect x="29.4482" y="58.4175" width="4.0319" height="1.87231" rx="0.936154" transform="rotate(3.52465 29.4482 58.4175)" fill="#6362FF" fill-opacity="0.57"/>
<rect x="28.6494" y="71.3648" width="4.0319" height="2.27352" rx="1.13676" transform="rotate(3.52465 28.6494 71.3648)" fill="#6362FF" fill-opacity="0.57"/>
</g>
<defs>
<filter id="filter0_d_265_839" x="0.478125" y="1.538" width="98.9559" height="117.088" filterUnits="userSpaceOnUse" color-interpolation-filters="sRGB">
<feFlood flood-opacity="0" result="BackgroundImageFix"/>
<feColorMatrix in="SourceAlpha" type="matrix" values="0 0 0 0 0 0 0 0 0 0 0 0 0 0 0 0 0 0 127 0" result="hardAlpha"/>
<feOffset dy="4"/>
<feGaussianBlur stdDeviation="2.05"/>
<feComposite in2="hardAlpha" operator="out"/>
<feColorMatrix type="matrix" values="0 0 0 0 0 0 0 0 0 0 0 0 0 0 0 0 0 0 0.29 0"/>
<feBlend mode="normal" in2="BackgroundImageFix" result="effect1_dropShadow_265_839"/>
<feBlend mode="normal" in="SourceGraphic" in2="effect1_dropShadow_265_839" result="shape"/>
</filter>
<linearGradient id="paint0_linear_265_839" x1="91.1473" y1="15.2997" x2="55.1306" y2="218.353" gradientUnits="userSpaceOnUse">
<stop stop-color="#DBE3E2"/>
<stop offset="1" stop-color="#76C6FF"/>
</linearGradient>
</defs>
</svg>
