<svg width="90" height="107" viewBox="0 0 90 107" fill="none" xmlns="http://www.w3.org/2000/svg">
<path d="M89.2806 18.7443C91.7989 20.7342 70.3974 105.761 43.2783 105.133C16.1591 104.505 2.05036 20.8016 2.32246 17.9106C2.59455 15.0197 18.5711 0.366872 45.6903 0.994995C72.8095 1.62312 86.7623 16.7545 89.2806 18.7443Z" fill="url(#paint0_linear_265_875)"/>
<path d="M45.6791 1.49487C72.4204 2.11437 86.2338 16.9193 88.9189 19.0936C88.928 19.1211 88.9415 19.1687 88.9525 19.2429C88.9786 19.4188 88.9893 19.68 88.9772 20.0327C88.9532 20.7346 88.8426 21.7262 88.6453 22.975C88.2514 25.469 87.5196 28.9356 86.4838 33.0478C84.4124 41.2708 81.1326 52.0463 76.9285 62.7378C72.7224 73.4345 67.6011 84.0209 61.857 91.8849C56.0904 99.7797 49.8037 104.784 43.2902 104.633C36.7771 104.482 30.9358 99.3309 25.82 91.3755C20.7226 83.4486 16.4409 72.8843 13.0045 62.2175C9.56996 51.5564 6.98836 40.8203 5.28268 32.5688C4.42998 28.4437 3.7966 24.9419 3.3852 22.3834C3.17947 21.104 3.03001 20.0628 2.93599 19.299C2.88896 18.9168 2.85605 18.6071 2.83728 18.3736C2.81745 18.1268 2.81669 17.9981 2.82055 17.9571C2.82898 17.8686 2.87488 17.7079 2.99989 17.4679C3.12155 17.2345 3.30357 16.9534 3.5497 16.6308C4.04196 15.9858 4.77158 15.2009 5.73539 14.3302C7.66203 12.5898 10.4977 10.5303 14.1737 8.57487C21.5237 4.665 32.2136 1.18299 45.6791 1.49487Z" stroke="#A8A8A8" stroke-opacity="0.28"/>
<path d="M45.4369 100.462C39.7988 100.331 40.9297 7.2156 46.6474 3.91424C52.3651 0.612878 84.3673 22.708 84.3673 22.708C84.3673 22.708 78.1504 47.5663 77.3862 53.987C76.6221 60.4076 51.0751 100.592 45.4369 100.462Z" fill="url(#paint1_linear_265_875)" fill-opacity="0.6"/>
<defs>
<linearGradient id="paint0_linear_265_875" x1="46.3152" y1="1.00947" x2="-160.833" y2="128.011" gradientUnits="userSpaceOnUse">
<stop stop-color="white"/>
<stop offset="1" stop-color="#18B8F2"/>
</linearGradient>
<linearGradient id="paint1_linear_265_875" x1="53.166" y1="5.88944" x2="62.5966" y2="100.737" gradientUnits="userSpaceOnUse">
<stop stop-color="white"/>
<stop offset="1" stop-color="#1777CE"/>
</linearGradient>
</defs>
</svg>
