<svg width="117" height="97" viewBox="0 0 117 97" fill="none" xmlns="http://www.w3.org/2000/svg">
<rect x="11.9834" y="3.01276" width="102.717" height="60.7795" rx="6" transform="rotate(-1.46627 11.9834 3.01276)" fill="url(#paint0_linear_349_760)"/>
<path d="M12.2197 12.2458L114.903 9.61742L115.147 19.1483L12.4637 21.7767L12.2197 12.2458Z" fill="black"/>
<rect x="19.1934" y="26.6711" width="69.1822" height="13.4073" rx="3" transform="rotate(-1.46627 19.1934 26.6711)" fill="#D9D9D9"/>
<rect x="21.1543" y="31.0916" width="48.3219" height="4.17114" rx="2" transform="rotate(-1.46627 21.1543 31.0916)" fill="#535353" fill-opacity="0.54"/>
<rect x="96.3389" y="47.9433" width="10.5622" height="7.44847" rx="2" transform="rotate(-1.46627 96.3389 47.9433)" fill="#F8B007"/>
<rect x="4.15137" y="29.7322" width="103.94" height="61.5031" rx="6" transform="rotate(2.95843 4.15137 29.7322)" fill="url(#paint1_linear_349_760)"/>
<rect x="9.90527" y="62.2443" width="73.0054" height="8.66166" rx="3" transform="rotate(2.95843 9.90527 62.2443)" fill="#D9D9D9"/>
<rect x="11.3105" y="35.0583" width="22.2728" height="8.66166" rx="3" transform="rotate(2.95843 11.3105 35.0583)" fill="#D9D9D9"/>
<rect x="85.749" y="81.6474" width="10.6879" height="7.53715" rx="2" transform="rotate(2.95843 85.749 81.6474)" fill="#F8B007"/>
<rect x="11.9727" y="46.2438" width="17.3233" height="11.9338" rx="1" transform="rotate(2.95843 11.9727 46.2438)" fill="#FFD700"/>
<path d="M16.6999 48.9063L20.1513 46.9962C20.4849 46.8116 20.8945 46.8328 21.2073 47.0508L24.4434 49.3065C24.0416 51.9803 23.9421 53.5509 24.0714 56.5039L20.6076 58.334C20.2828 58.5056 19.89 58.4853 19.5847 58.2811L16.328 56.1038C16.6997 53.3047 16.7851 51.729 16.6999 48.9063Z" fill="#FFD700"/>
<path d="M16.6999 48.9063L20.1513 46.9962C20.4849 46.8116 20.8945 46.8328 21.2073 47.0508L24.4434 49.3065M16.6999 48.9063C16.7851 51.729 16.6997 53.3047 16.328 56.1038M16.6999 48.9063L11.848 48.6556M16.328 56.1038L19.5847 58.2811C19.89 58.4853 20.2828 58.5056 20.6076 58.334L24.0714 56.5039M16.328 56.1038L11.476 55.853M24.0714 56.5039C23.9421 53.5509 24.0416 51.9803 24.4434 49.3065M24.0714 56.5039L28.7763 56.7471M24.4434 49.3065L29.1482 49.5497" stroke="black" stroke-width="0.5"/>
<defs>
<linearGradient id="paint0_linear_349_760" x1="59.9093" y1="-17.843" x2="63.6625" y2="113.856" gradientUnits="userSpaceOnUse">
<stop offset="0.198063" stop-color="#60D4FF"/>
<stop offset="0.818528" stop-color="#0035A8"/>
</linearGradient>
<linearGradient id="paint1_linear_349_760" x1="52.6478" y1="8.62817" x2="56.4457" y2="141.895" gradientUnits="userSpaceOnUse">
<stop offset="0.198063" stop-color="#60D4FF"/>
<stop offset="0.818528" stop-color="#0035A8"/>
</linearGradient>
</defs>
</svg>
